<svg width="201" height="60" viewBox="0 0 201 60" fill="none" xmlns="http://www.w3.org/2000/svg">
<path d="M198.726 52.2773C198.726 53.0233 198.579 53.7621 198.294 54.4512C198.008 55.1404 197.589 55.7665 197.061 56.2937C196.533 56.821 195.906 57.239 195.217 57.524C194.527 57.809 193.788 57.9552 193.042 57.9544H7.01182C5.50404 57.956 4.05736 57.3588 2.98995 56.2942C1.92254 55.2296 1.32179 53.7847 1.31982 52.2773V7.0039C1.32179 5.49583 1.9223 4.05018 2.9895 2.98438C4.0567 1.91857 5.50336 1.31973 7.01182 1.31934H193.04C193.787 1.31934 194.526 1.46638 195.216 1.75208C195.906 2.03777 196.533 2.45652 197.06 2.98439C197.588 3.51227 198.007 4.13895 198.293 4.82862C198.578 5.51829 198.725 6.25746 198.725 7.0039L198.726 52.2773Z" fill="white"/>
<path d="M193.042 59.2751H7.01158C5.15417 59.2747 3.37277 58.5377 2.05827 57.2257C0.743765 55.9138 0.00353415 54.1341 0 52.2772L0 7.00527C0.00274777 5.14743 0.74249 3.36654 2.05695 2.05326C3.37141 0.739984 5.15324 0.00156809 7.01158 0L193.04 0C194.898 0.00235053 196.68 0.741018 197.994 2.05412C199.308 3.36723 200.048 5.14767 200.052 7.00527V52.2772C200.055 56.1371 196.904 59.2751 193.042 59.2751Z" fill="#A6A6A6"/>
<path d="M198.726 52.2773C198.726 53.0233 198.579 53.7621 198.294 54.4512C198.008 55.1404 197.589 55.7665 197.061 56.2937C196.533 56.821 195.906 57.239 195.217 57.524C194.527 57.809 193.788 57.9552 193.042 57.9544H7.01182C5.50404 57.956 4.05736 57.3588 2.98995 56.2942C1.92254 55.2296 1.32179 53.7847 1.31982 52.2773V7.0039C1.32179 5.49583 1.9223 4.05018 2.9895 2.98438C4.0567 1.91857 5.50336 1.31973 7.01182 1.31934H193.04C193.787 1.31934 194.526 1.46638 195.216 1.75208C195.906 2.03777 196.533 2.45652 197.06 2.98439C197.588 3.51227 198.007 4.13895 198.293 4.82862C198.578 5.51829 198.725 6.25746 198.725 7.0039L198.726 52.2773Z" fill="black"/>
<path d="M44.6701 29.3255C44.6271 24.5481 48.5829 22.2239 48.7638 22.1157C46.5235 18.8502 43.0511 18.404 41.8308 18.3684C38.9144 18.0616 36.0854 20.1131 34.5998 20.1131C33.0845 20.1131 30.7967 18.3981 28.331 18.4485C25.1581 18.4974 22.1898 20.3339 20.5618 23.1859C17.2021 29.0009 19.7078 37.5462 22.9267 42.2466C24.5369 44.55 26.4184 47.1188 28.8811 47.0284C31.2905 46.9306 32.1904 45.4942 35.098 45.4942C37.9788 45.4942 38.8239 47.0284 41.3356 46.9706C43.9214 46.9306 45.5494 44.6582 47.1032 42.3355C48.964 39.6985 49.7112 37.0986 49.7409 36.9652C49.6816 36.9444 44.7205 35.0501 44.6701 29.3255ZM39.9256 15.2764C41.2214 13.6563 42.1081 11.4521 41.8619 9.21533C39.9864 9.29834 37.6408 10.5123 36.29 12.0969C35.095 13.4932 34.0275 15.7819 34.3033 17.9341C36.4101 18.0912 38.5734 16.8713 39.9256 15.2764Z" fill="white"/>
<path d="M193.042 0H93.3984L132.427 59.2751H193.042C194.9 59.2735 196.681 58.5355 197.995 57.2229C199.31 55.9102 200.05 54.1301 200.053 52.2728V7.00527C200.05 5.14755 199.31 3.36688 197.996 2.05369C196.682 0.740501 194.9 0.00195946 193.042 0Z" fill="url(#paint0_linear_807_3156)"/>
<path d="M79.568 46.6979H76.2009L74.3564 40.9037H67.9453L66.1884 46.6979H62.9102L69.2634 26.9717H73.1866L79.568 46.6979ZM73.8004 38.4727L72.1324 33.3218C71.956 32.7956 71.6238 31.5564 71.1375 29.6057H71.0782C70.8825 30.4447 70.5697 31.6839 70.1412 33.3218L68.5013 38.4727H73.8004ZM95.8745 39.411C95.8745 41.8301 95.2177 43.7423 93.9025 45.146C92.7253 46.3955 91.2619 47.0196 89.5168 47.0196C87.6323 47.0196 86.2771 46.3481 85.4543 45.0022V52.4655H82.2932V37.1491C82.2932 35.6297 82.2532 34.0718 82.1761 32.4739H84.9561L85.1325 34.7285H85.1918C86.246 33.0298 87.8458 32.1804 89.9927 32.1804C91.6711 32.1804 93.0723 32.843 94.1932 34.1697C95.3126 35.4993 95.8745 37.2454 95.8745 39.411ZM92.6541 39.5266C92.6541 38.1422 92.3428 37.0008 91.7171 36.1011C91.0336 35.1658 90.1158 34.6974 88.9652 34.6974C88.1853 34.6974 87.4766 34.9582 86.8435 35.4726C86.2089 35.9914 85.7938 36.6688 85.5996 37.5078C85.5129 37.8215 85.4636 38.1444 85.4528 38.4698V40.8429C85.4528 41.8761 85.7701 42.7491 86.4047 43.4636C87.0392 44.1751 87.8636 44.5323 88.8778 44.5323C90.0683 44.5323 90.995 44.0713 91.6578 43.1568C92.322 42.2392 92.6541 41.0297 92.6541 39.5266ZM112.239 39.411C112.239 41.8301 111.582 43.7423 110.267 45.146C109.088 46.3955 107.626 47.0196 105.88 47.0196C103.995 47.0196 102.64 46.3481 101.817 45.0022V52.4655H98.656V37.1491C98.656 35.6297 98.616 34.0718 98.5389 32.4739H101.319L101.495 34.7285H101.555C102.607 33.0298 104.207 32.1804 106.356 32.1804C108.032 32.1804 109.434 32.843 110.557 34.1697C111.675 35.4993 112.239 37.2454 112.239 39.411ZM109.017 39.5266C109.017 38.1422 108.704 37.0008 108.078 36.1011C107.395 35.1658 106.48 34.6974 105.33 34.6974C104.55 34.6974 103.841 34.9582 103.205 35.4726C102.57 35.9914 102.157 36.6688 101.962 37.5078C101.866 37.8991 101.814 38.2178 101.814 38.4698V40.8429C101.814 41.8761 102.133 42.7491 102.765 43.4636C103.399 44.1736 104.223 44.5323 105.241 44.5323C106.433 44.5323 107.359 44.0713 108.021 43.1568C108.685 42.2392 109.017 41.0297 109.017 39.5266ZM130.535 41.1646C130.535 42.844 129.948 44.2092 128.781 45.2631C127.497 46.4133 125.704 46.9899 123.406 46.9899C121.283 46.9899 119.581 46.5808 118.297 45.7611L119.028 43.1271C120.414 43.9483 121.937 44.3574 123.595 44.3574C124.787 44.3574 125.713 44.0876 126.375 43.5525C127.037 43.0159 127.372 42.2985 127.372 41.4032C127.372 40.6013 127.095 39.9298 126.551 39.3829C126.004 38.8374 125.1 38.329 123.829 37.862C120.374 36.5739 118.645 34.69 118.645 32.2116C118.645 30.5929 119.256 29.2678 120.475 28.2316C121.694 27.197 123.31 26.6797 125.32 26.6797C127.116 26.6797 128.612 26.9924 129.8 27.6165L129.006 30.1927C127.888 29.5879 126.627 29.2855 125.215 29.2855C124.1 29.2855 123.225 29.5598 122.6 30.1052C122.073 30.5929 121.807 31.1873 121.807 31.8929C121.807 32.6711 122.11 33.3174 122.715 33.8243C123.24 34.2912 124.198 34.7996 125.583 35.3451C127.282 36.0299 128.53 36.8274 129.33 37.7435C130.135 38.6595 130.535 39.8023 130.535 41.1646ZM141.013 34.8456H137.529V41.7516C137.529 43.5081 138.143 44.3841 139.373 44.3841C139.938 44.3841 140.407 44.3367 140.777 44.2373L140.865 46.6372C140.242 46.8699 139.422 46.987 138.407 46.987C137.158 46.987 136.183 46.606 135.478 45.8441C134.777 45.0822 134.424 43.806 134.424 42.0095V34.8397H132.348V32.468H134.424V29.8636L137.529 28.9268V32.468H141.013V34.8456ZM156.703 39.4688C156.703 41.6552 156.077 43.4502 154.829 44.854C153.522 46.2992 151.785 47.0196 149.619 47.0196C147.528 47.0196 145.866 46.3274 144.626 44.9444C143.387 43.5585 142.767 41.8123 142.767 39.706C142.767 37.5018 143.408 35.6964 144.684 34.2927C145.964 32.8875 147.687 32.1849 149.853 32.1849C151.94 32.1849 153.617 32.8786 154.887 34.2631C156.099 35.606 156.703 37.3403 156.703 39.4688ZM153.426 39.5415C153.426 38.2385 153.144 37.1209 152.579 36.1856C151.917 35.0561 150.968 34.4913 149.739 34.4913C148.472 34.4913 147.501 35.0561 146.84 36.1856C146.274 37.1209 145.992 38.2578 145.992 39.6008C145.992 40.9052 146.274 42.0258 146.84 42.9581C147.524 44.0876 148.477 44.6524 149.712 44.6524C150.92 44.6524 151.868 44.0758 152.553 42.93C153.134 41.9724 153.426 40.8474 153.426 39.5415ZM166.982 35.2532C166.653 35.1939 166.32 35.1646 165.986 35.1658C164.874 35.1658 164.014 35.5838 163.409 36.4257C162.884 37.1668 162.62 38.1037 162.62 39.2346V46.6979H159.459V36.9534C159.462 35.4602 159.431 33.9672 159.367 32.4754H162.121L162.236 35.1969H162.324C162.659 34.2616 163.184 33.5071 163.904 32.9423C164.564 32.4489 165.365 32.1816 166.189 32.1804C166.481 32.1804 166.745 32.2012 166.979 32.2383L166.982 35.2532ZM181.12 38.913C181.128 39.3934 181.089 39.8734 181.004 40.3463H171.521C171.556 41.7516 172.016 42.8277 172.897 43.5688C173.696 44.2299 174.729 44.562 175.998 44.562C177.402 44.562 178.683 44.3396 179.836 43.8905L180.331 46.0828C178.984 46.6698 177.395 46.9618 175.561 46.9618C173.355 46.9618 171.623 46.3125 170.363 45.017C169.105 43.72 168.475 41.9769 168.475 39.7935C168.475 37.6501 169.061 35.8639 170.234 34.4394C171.461 32.9186 173.12 32.1582 175.208 32.1582C177.259 32.1582 178.811 32.9186 179.865 34.4394C180.7 35.6445 181.12 37.1387 181.12 38.913ZM178.105 38.0933C178.127 37.155 177.92 36.3471 177.491 35.6638C176.944 34.7833 176.102 34.3446 174.974 34.3446C173.94 34.3446 173.098 34.773 172.458 35.6327C171.931 36.316 171.619 37.1372 171.522 38.0903L178.105 38.0933Z" fill="white"/>
<path d="M67.0332 19.9975C66.154 19.9975 65.3934 19.9545 64.7603 19.8818V10.3448C65.6457 10.2081 66.5405 10.1407 67.4365 10.1432C71.0616 10.1432 72.7311 11.9264 72.7311 14.8332C72.7311 18.1861 70.7592 19.9975 67.0332 19.9975ZM67.564 11.3661C67.0747 11.3661 66.6581 11.3958 66.3126 11.4669V18.7168C66.4994 18.7464 66.8582 18.7598 67.3623 18.7598C69.7376 18.7598 71.0898 17.4079 71.0898 14.8762C71.0898 12.6187 69.8666 11.3661 67.564 11.3661ZM77.9338 20.0701C75.8907 20.0701 74.5667 18.5448 74.5667 16.4741C74.5667 14.3159 75.9189 12.7773 78.0495 12.7773C80.063 12.7773 81.4166 14.2299 81.4166 16.3599C81.4166 18.5448 80.0214 20.0701 77.9338 20.0701ZM77.9931 13.9127C76.8708 13.9127 76.1517 14.9621 76.1517 16.4296C76.1517 17.8689 76.8856 18.9184 77.9783 18.9184C79.071 18.9184 79.805 17.7963 79.805 16.4C79.805 14.977 79.0859 13.9127 77.9931 13.9127ZM93.0675 12.921L90.8806 19.9115H89.4557L88.5498 16.8758C88.3245 16.1332 88.137 15.3798 87.9879 14.6183H87.9582C87.844 15.3802 87.6276 16.1435 87.3978 16.8758L86.434 19.9115H84.9943L82.9364 12.921H84.5332L85.325 16.2443C85.5118 17.0359 85.669 17.7829 85.7994 18.4885H85.8291C85.9433 17.9 86.1301 17.1648 86.4044 16.2591L87.3978 12.9225H88.664L89.6144 16.188C89.8442 16.9795 90.031 17.7563 90.1763 18.49H90.2178C90.3186 17.7711 90.4773 17.0077 90.6923 16.188L91.5418 12.9225L93.0675 12.921ZM101.118 19.9115H99.5646V15.8975C99.5646 14.6612 99.0901 14.0416 98.1546 14.0416C97.2338 14.0416 96.6007 14.8332 96.6007 15.7537V19.9115H95.0469V14.9192C95.0469 14.301 95.0321 13.6385 94.9891 12.9196H96.3561L96.4287 13.9987H96.4717C96.8899 13.2516 97.7379 12.7773 98.6883 12.7773C100.156 12.7773 101.12 13.8993 101.12 15.7255L101.118 19.9115ZM105.403 19.9115H103.848V9.71338H105.403V19.9115ZM111.069 20.0701C109.027 20.0701 107.702 18.5448 107.702 16.4741C107.702 14.3159 109.054 12.7773 111.183 12.7773C113.198 12.7773 114.55 14.2299 114.55 16.3599C114.552 18.5448 113.155 20.0701 111.069 20.0701ZM111.127 13.9127C110.004 13.9127 109.285 14.9621 109.285 16.4296C109.285 17.8689 110.02 18.9184 111.11 18.9184C112.204 18.9184 112.937 17.7963 112.937 16.4C112.938 14.977 112.221 13.9127 111.127 13.9127ZM120.676 19.9115L120.564 19.1066H120.522C120.048 19.7544 119.355 20.0701 118.478 20.0701C117.225 20.0701 116.335 19.1926 116.335 18.0127C116.335 16.2873 117.831 15.395 120.421 15.395V15.266C120.421 14.3455 119.934 13.8845 118.97 13.8845C118.28 13.8845 117.676 14.058 117.143 14.4033L116.827 13.382C117.474 12.9789 118.28 12.7773 119.228 12.7773C121.055 12.7773 121.977 13.7407 121.977 15.6692V18.2439C121.977 18.9495 122.008 19.4965 122.078 19.913L120.676 19.9115ZM120.463 16.4296C118.737 16.4296 117.871 16.8476 117.871 17.8393C117.871 18.573 118.318 18.9317 118.937 18.9317C119.728 18.9317 120.463 18.3284 120.463 17.5087V16.4296ZM129.522 19.9115L129.449 18.7894H129.406C128.96 19.6373 128.21 20.0701 127.162 20.0701C125.476 20.0701 124.227 18.5878 124.227 16.5022C124.227 14.3159 125.522 12.7758 127.289 12.7758C128.225 12.7758 128.888 13.0915 129.261 13.7259H129.292V9.71338H130.848V18.0275C130.848 18.7034 130.864 19.3364 130.905 19.9115H129.522ZM129.292 15.7982C129.292 14.8198 128.644 13.9853 127.655 13.9853C126.503 13.9853 125.799 15.0066 125.799 16.4444C125.799 17.8541 126.53 18.8191 127.624 18.8191C128.601 18.8191 129.292 17.9697 129.292 16.9632V15.7982ZM140.709 20.0701C138.667 20.0701 137.343 18.5448 137.343 16.4741C137.343 14.3159 138.695 12.7773 140.825 12.7773C142.84 12.7773 144.192 14.2299 144.192 16.3599C144.193 18.5448 142.798 20.0701 140.709 20.0701ZM140.767 13.9127C139.646 13.9127 138.927 14.9621 138.927 16.4296C138.927 17.8689 139.661 18.9184 140.752 18.9184C141.846 18.9184 142.579 17.7963 142.579 16.4C142.582 14.977 141.862 13.9127 140.767 13.9127ZM152.548 19.9115H150.993V15.8975C150.993 14.6612 150.518 14.0416 149.583 14.0416C148.662 14.0416 148.03 14.8332 148.03 15.7537V19.9115H146.475V14.9192C146.475 14.301 146.46 13.6385 146.417 12.9196H147.784L147.857 13.9987H147.9C148.316 13.2516 149.166 12.7758 150.115 12.7758C151.583 12.7758 152.548 13.8979 152.548 15.724V19.9115ZM163.002 14.0861H161.293V17.4805C161.293 18.3447 161.592 18.7761 162.197 18.7761C162.472 18.7761 162.701 18.7464 162.887 18.7034L162.93 19.8833C162.629 19.9989 162.225 20.0568 161.724 20.0568C160.5 20.0568 159.767 19.3808 159.767 17.611V14.0861H158.747V12.921H159.767V11.6403L161.293 11.1794V12.9196H163.002V14.0861ZM171.228 19.9115H169.676V15.9271C169.676 14.6761 169.203 14.0431 168.266 14.0431C167.461 14.0431 166.711 14.5901 166.711 15.6974V19.9115H165.158V9.71338H166.711V13.9127H166.742C167.231 13.1508 167.94 12.7758 168.844 12.7758C170.324 12.7758 171.228 13.926 171.228 15.7537V19.9115ZM179.656 16.7898H174.993C175.022 18.1135 175.899 18.8606 177.196 18.8606C177.886 18.8606 178.52 18.7449 179.081 18.53L179.322 19.6091C178.661 19.8967 177.883 20.0405 176.977 20.0405C174.79 20.0405 173.495 18.659 173.495 16.5171C173.495 14.3737 174.821 12.7624 176.802 12.7624C178.588 12.7624 179.709 14.0861 179.709 16.0857C179.719 16.3217 179.701 16.558 179.656 16.7898ZM178.231 15.6825C178.231 14.6034 177.687 13.8415 176.693 13.8415C175.801 13.8415 175.095 14.6183 174.994 15.6825H178.231Z" fill="white"/>
<defs>
<linearGradient id="paint0_linear_807_3156" x1="146.724" y1="59.4324" x2="146.724" y2="-154.342" gradientUnits="userSpaceOnUse">
<stop stop-color="#1A1A1A" stop-opacity="0.1"/>
<stop offset="0.123" stop-color="#212121" stop-opacity="0.151"/>
<stop offset="0.308" stop-color="#353535" stop-opacity="0.227"/>
<stop offset="0.532" stop-color="#575757" stop-opacity="0.318"/>
<stop offset="0.783" stop-color="#858585" stop-opacity="0.421"/>
<stop offset="1" stop-color="#B3B3B3" stop-opacity="0.51"/>
</linearGradient>
</defs>
</svg>
