<svg width="118" height="122" viewBox="0 0 118 122" fill="none" xmlns="http://www.w3.org/2000/svg">
<path d="M59.7277 95.6889C59.6398 90.9064 59.6437 87.2085 59.6969 84.1193C61.0872 82.8992 66.2305 77.0564 82.3908 82.2046C86.9333 81.8764 79.5574 70.6353 60.3593 60.2465C60.3382 57.6155 60.2774 54.571 60.1613 50.9378C60.9129 51.628 62.3463 52.208 64.9216 52.7802C66.6055 55.04 62.7197 55.7546 60.7145 55.5349C66.6738 61.9266 70.1709 65.9503 92.9496 66.849C92.515 57.1164 87.8661 48.3106 82.382 49.3606C89.8128 44.7753 86.3069 34.9075 84.9589 27.0557C76.6707 26.9105 66.2973 33.3459 60.033 47.2815C59.8188 41.6454 59.4865 34.7459 58.9929 26.102L59.4705 48.5798C59.433 48.8685 59.4162 49.1396 59.4313 49.3957L59.145 55.3629L59.1671 59.6105L59.2897 83.2081C59.2268 83.9478 59.2192 84.2761 59.329 84.3265L59.7277 95.6889Z" fill="url(#paint0_linear_4860_3463)"/>
<path d="M55.3468 26.4263C55.4339 30.0752 55.5105 33.3376 55.5789 36.3328C54.5256 35.8193 50.5005 36.9889 36.6815 32.999C32.4306 33.5269 37.5803 52.0453 56.061 61.4269C56.0821 62.861 56.1029 64.3352 56.1237 65.8713L55.9187 71.1551C55.8238 69.6911 54.8929 68.4479 51.1172 67.7414C49.5572 65.6204 52.8515 65.3413 54.6937 65.4669C49.1829 59.5202 45.9473 55.7654 25.0311 55.8896C25.4913 65.3228 29.8143 73.6715 34.8421 72.4117C28.0496 77.1901 31.33 86.6202 32.6169 94.1868C40.4587 93.9583 50.2896 86.8453 55.8795 72.1671L56.4594 93.9766C56.3196 81.7151 56.2215 73.1064 56.1237 65.8713L56.1355 65.5652L56.0885 61.4409L55.8274 38.5285C55.9173 37.3073 56.0073 36.733 55.7449 36.4522L55.3468 26.4263Z" fill="url(#paint1_linear_4860_3463)"/>
<defs>
<linearGradient id="paint0_linear_4860_3463" x1="76.2116" y1="97.4948" x2="83.9408" y2="26.9442" gradientUnits="userSpaceOnUse">
<stop stop-color="#B40E1D"/>
<stop offset="1" stop-color="#280226"/>
</linearGradient>
<linearGradient id="paint1_linear_4860_3463" x1="40.2342" y1="25.3961" x2="35.5309" y2="94.3855" gradientUnits="userSpaceOnUse">
<stop stop-color="#B40E1D"/>
<stop offset="1" stop-color="#280226"/>
</linearGradient>
</defs>
</svg>
