<svg width="84" height="88" viewBox="0 0 84 88" fill="none" xmlns="http://www.w3.org/2000/svg">
<path d="M42.4517 68.4603C42.3853 65.0394 42.3854 62.3945 42.4214 60.1849C43.417 59.3133 47.0995 55.1384 58.687 58.8339C61.9428 58.6028 56.6477 50.5565 42.8791 43.1102C42.862 41.2283 42.8163 39.0506 42.7304 36.4518C43.2697 36.9462 44.2976 37.3621 46.144 37.7735C47.3526 39.3913 44.5678 39.8992 43.1303 39.7404C47.4065 44.317 49.9161 47.1979 66.2445 47.8592C65.9261 40.8975 62.5874 34.5953 58.6572 35.3419C63.9803 32.0682 61.4602 25.0073 60.4884 19.3901C54.5473 19.2795 47.1162 23.874 42.6359 33.8365C42.4783 29.805 42.2352 24.8699 41.8752 18.6868L42.2336 34.7647C42.207 34.9712 42.1951 35.1651 42.2061 35.3483L42.0051 39.6162L42.024 42.6543L42.1288 59.5328C42.0843 60.0618 42.0791 60.2967 42.1578 60.3328L42.4517 68.4603Z" fill="url(#paint0_linear_295_749)"/>
<path d="M39.2711 18.9132C39.3361 21.5232 39.3934 23.8567 39.4446 25.9991C38.6892 25.631 35.8048 26.4642 25.8965 23.5992C22.8498 23.9733 26.5544 37.223 39.8081 43.9484C39.8243 44.9742 39.8402 46.0286 39.8562 47.1273L39.7131 50.9065C39.644 49.8593 38.9758 48.9693 36.2689 48.4609C35.1492 46.9425 37.5103 46.7456 38.8309 46.8369C34.8765 42.5789 32.5545 39.8907 17.5619 39.9625C17.8985 46.7101 21.0032 52.6851 24.6062 51.7881C19.7408 55.2004 22.0989 61.948 23.0268 67.3612C28.6477 67.2041 35.6893 62.1245 39.6857 51.6303L40.1169 67.2302C40.008 58.4599 39.9315 52.3024 39.8562 47.1273L39.8645 46.9084L39.8278 43.9584L39.6243 27.5698C39.6878 26.6964 39.7519 26.2857 39.5637 26.0847L39.2711 18.9132Z" fill="url(#paint1_linear_295_749)"/>
<defs>
<linearGradient id="paint0_linear_295_749" x1="54.2687" y1="69.7654" x2="59.8403" y2="19.3185" gradientUnits="userSpaceOnUse">
<stop stop-color="#B40E1D"/>
<stop offset="1" stop-color="#280226"/>
</linearGradient>
<linearGradient id="paint1_linear_295_749" x1="28.4376" y1="18.164" x2="25.0256" y2="67.4994" gradientUnits="userSpaceOnUse">
<stop stop-color="#B40E1D"/>
<stop offset="1" stop-color="#280226"/>
</linearGradient>
</defs>
</svg>
