<svg width="651" height="677" viewBox="0 0 651 677" fill="none" xmlns="http://www.w3.org/2000/svg">
<path d="M329.022 530.954C328.535 504.426 328.557 483.913 328.852 466.778C336.563 460.009 365.093 427.599 454.735 456.157C479.932 454.336 439.018 391.981 332.526 334.355C332.409 319.76 332.071 302.872 331.427 282.719C335.597 286.548 343.548 289.765 357.833 292.939C367.173 305.474 345.619 309.438 334.496 308.219C367.552 343.674 386.951 365.994 513.305 370.979C510.894 316.992 485.107 268.146 454.686 273.97C495.905 248.536 476.458 193.799 468.98 150.245C423.006 149.439 365.464 185.136 330.716 262.437C329.528 231.174 327.684 192.902 324.946 144.954L327.595 269.639C327.388 271.241 327.295 272.745 327.378 274.165L325.79 307.265L325.912 330.827L326.593 461.723C326.244 465.826 326.202 467.647 326.811 467.927L329.022 530.954Z" fill="url(#paint0_linear_4860_3463)"/>
<path d="M304.722 146.753C305.205 166.993 305.63 185.089 306.01 201.704C300.167 198.855 277.84 205.343 201.186 183.211C177.606 186.14 206.171 288.861 308.684 340.902C308.801 348.856 308.916 357.034 309.031 365.555L307.895 394.864C307.368 386.743 302.204 379.847 281.26 375.928C272.607 364.163 290.881 362.615 301.099 363.311C270.531 330.325 252.583 309.497 136.56 310.186C139.113 362.512 163.093 408.823 190.982 401.834C153.304 428.34 171.501 480.649 178.639 522.621C222.138 521.354 276.67 481.898 307.677 400.478L310.894 521.455C310.118 453.44 309.574 405.688 309.031 365.555L309.097 363.856L308.837 340.979L307.388 213.884C307.887 207.11 308.386 203.924 306.931 202.366L304.722 146.753Z" fill="url(#paint1_linear_4860_3463)"/>
<defs>
<linearGradient id="paint0_linear_4860_3463" x1="420.459" y1="540.972" x2="463.333" y2="149.626" gradientUnits="userSpaceOnUse">
<stop stop-color="#B40E1D"/>
<stop offset="1" stop-color="#280226"/>
</linearGradient>
<linearGradient id="paint1_linear_4860_3463" x1="220.892" y1="141.038" x2="194.803" y2="523.723" gradientUnits="userSpaceOnUse">
<stop stop-color="#B40E1D"/>
<stop offset="1" stop-color="#280226"/>
</linearGradient>
</defs>
</svg>
