<svg width="592" height="406" viewBox="0 0 592 406" fill="none" xmlns="http://www.w3.org/2000/svg">
<g filter="url(#filter0_d_1115_6959)">
<rect x="53.9106" y="13.0998" width="500.752" height="304.01" rx="8" transform="rotate(3 53.9106 13.0998)" fill="url(#paint0_linear_1115_6959)"/>
<g clip-path="url(#clip0_1115_6959)">
<path d="M319.676 125.03C301.95 136.844 294.565 163.429 297.523 176.721C308.354 182.136 330.011 200.352 334.442 225.459C338.978 251.163 319.632 260.805 309.294 262.282C297.544 263.96 277.728 254.998 275.365 231.367C282.75 224.476 300.477 207.737 297.523 176.721C287.18 172.29 262.075 153.09 262.073 129.46C262.07 98.717 281.769 93.0302 291.615 94.0148C314.064 96.3779 319.676 115.676 319.676 125.03Z" fill="url(#paint1_radial_1115_6959)"/>
<path d="M297.523 176.721C294.565 163.429 301.95 136.844 319.676 125.03C319.676 115.676 314.064 96.3779 291.615 94.0148C281.769 93.0302 262.07 98.717 262.073 129.46C262.075 153.09 287.18 172.29 297.523 176.721ZM297.523 176.721C308.354 182.136 330.011 200.352 334.442 225.459C338.978 251.163 319.632 260.805 309.294 262.282C297.544 263.96 277.728 254.998 275.365 231.367C282.75 224.476 300.477 207.737 297.523 176.721Z" stroke="#5C0303" stroke-width="1.64586"/>
<path d="M319.674 125.028C330.505 117.151 355.119 111.637 365.415 130.837C368.493 136.577 374.024 157.817 355.119 170.814C344.781 166.383 321.15 158.999 297.52 176.722C298.996 210.691 282.75 224.721 273.889 231.368C264.043 238.752 243.768 246.902 229.582 228.414C214.77 209.112 230.565 190.014 238.442 184.106C248.781 190.014 273.311 194.879 297.52 176.722C294.565 167.86 299.365 139.799 319.674 125.028Z" fill="url(#paint2_radial_1115_6959)"/>
<path d="M297.52 176.722C321.15 158.999 344.781 166.383 355.119 170.814C374.024 157.817 368.494 136.577 365.415 130.837C355.119 111.637 330.505 117.151 319.674 125.028C299.365 139.799 294.565 167.86 297.52 176.722ZM297.52 176.722C273.311 194.879 248.781 190.014 238.442 184.106C230.565 190.014 214.77 209.112 229.582 228.414C243.768 246.902 264.043 238.752 273.889 231.368C282.75 224.721 298.996 210.691 297.52 176.722Z" stroke="#5C0303" stroke-width="1.64586"/>
<path d="M222.195 141.28C232.494 121.979 254.195 125.526 262.072 129.464C262.072 153.096 285.211 170.326 297.519 176.727C322.332 157.822 349.212 166.881 359.55 173.773C369.889 179.188 386.135 195.336 368.412 216.604C364.473 221.527 352.165 230.191 334.442 225.465C331.981 214.142 321.15 188.542 297.519 176.727C272.707 195.631 247.796 189.527 238.441 184.111C227.611 177.711 211.395 161.52 222.195 141.28Z" fill="url(#paint3_radial_1115_6959)"/>
<path d="M297.519 176.727C272.707 195.631 247.796 189.527 238.441 184.111C227.611 177.711 211.395 161.52 222.195 141.28C232.494 121.979 254.195 125.526 262.072 129.464C262.072 153.096 285.211 170.326 297.519 176.727ZM297.519 176.727C322.332 157.822 349.212 166.881 359.55 173.773C369.889 179.188 386.135 195.336 368.412 216.604C364.473 221.527 352.165 230.191 334.442 225.465C331.981 214.142 321.15 188.542 297.519 176.727Z" stroke="#5C0303" stroke-width="1.64586"/>
<path d="M387.036 117.559C384.354 115.327 381.824 115.141 378.972 115.767L379.461 117.371C379.642 117.967 379.581 118.598 379.288 119.148C378.701 120.249 377.225 120.693 376.139 120.114L367.005 115.328C366.868 115.256 366.746 115.158 366.648 115.038C366.549 114.919 366.475 114.782 366.43 114.634C366.384 114.486 366.369 114.33 366.385 114.176C366.4 114.023 366.446 113.873 366.52 113.737L371.428 104.676C372.012 103.577 373.484 103.127 374.585 103.715C375.134 104.009 375.537 104.498 375.719 105.094L376.299 106.996C381.771 106.466 386.926 109.851 388.558 115.207L388.898 116.323C388.972 116.563 388.967 116.821 388.882 117.058C388.797 117.295 388.638 117.498 388.429 117.637C388.219 117.776 387.971 117.843 387.719 117.829C387.468 117.815 387.229 117.72 387.036 117.559ZM377.184 113.81C379.666 113.121 382.494 112.672 385.447 113.878C384.476 112.223 383.017 110.907 381.27 110.113C379.523 109.318 377.573 109.082 375.686 109.437C375.105 109.546 374.678 109.681 374.678 109.681L373.488 105.779L369.135 113.809L377.228 118.05L376.038 114.145L377.184 113.81Z" fill="#FFFEEF"/>
</g>
<path d="M190.912 133.559C193.593 131.327 196.124 131.141 198.976 131.767L198.487 133.371C198.305 133.967 198.367 134.598 198.66 135.148C199.246 136.249 200.722 136.693 201.809 136.114L210.943 131.327C211.08 131.256 211.201 131.158 211.3 131.038C211.399 130.919 211.473 130.782 211.518 130.634C211.563 130.486 211.578 130.33 211.563 130.176C211.547 130.022 211.501 129.873 211.427 129.737L206.52 120.676C205.935 119.577 204.464 119.127 203.362 119.715C202.813 120.009 202.41 120.498 202.229 121.094L201.649 122.996C196.177 122.466 191.021 125.851 189.389 131.207L189.049 132.323C188.975 132.563 188.981 132.821 189.066 133.058C189.15 133.295 189.309 133.498 189.519 133.637C189.728 133.776 189.977 133.843 190.228 133.829C190.479 133.815 190.719 133.72 190.912 133.559ZM200.764 129.81C198.282 129.121 195.454 128.672 192.501 129.878C193.472 128.222 194.931 126.907 196.678 126.112C198.425 125.318 200.375 125.082 202.261 125.437C202.843 125.546 203.27 125.681 203.27 125.681L204.459 121.779L208.813 129.809L200.719 134.05L201.909 130.145L200.764 129.81Z" fill="#FFFEEF"/>
<path d="M333.804 282.638C330.438 281.723 328.833 279.757 327.71 277.062L329.304 276.542C329.896 276.349 330.378 275.936 330.66 275.38C331.225 274.268 330.742 272.805 329.645 272.247L320.484 267.513C320.346 267.442 320.196 267.398 320.042 267.386C319.888 267.373 319.733 267.392 319.585 267.44C319.438 267.488 319.302 267.564 319.185 267.665C319.068 267.766 318.972 267.89 318.903 268.028L314.297 277.247C313.733 278.356 314.209 279.819 315.322 280.384C315.878 280.665 316.51 280.715 317.102 280.521L318.992 279.905C321.698 284.691 327.428 286.971 332.751 285.235L333.86 284.873C334.1 284.796 334.307 284.643 334.453 284.438C334.598 284.233 334.673 283.986 334.667 283.735C334.661 283.483 334.573 283.241 334.418 283.043C334.262 282.846 334.047 282.704 333.804 282.638ZM325.081 276.72C325.941 279.148 327.195 281.722 329.878 283.449C327.965 283.603 326.05 283.163 324.397 282.188C322.744 281.213 321.432 279.752 320.641 278.003C320.396 277.464 320.262 277.037 320.262 277.037L316.383 278.302L320.462 270.129L328.579 274.324L324.698 275.59L325.081 276.72Z" fill="#FFFEEF"/>
<path d="M424.078 102.519C413.989 101.62 415.877 112.912 416.386 116.808C419.361 118.642 425.118 124.432 425.749 131.762C426.394 139.266 420.587 141.541 417.577 141.701C414.157 141.882 408.692 138.799 408.618 131.946C419.234 133.775 416.441 125.798 416.386 116.808C413.527 115.27 406.804 109.108 407.409 102.316C408.195 93.4806 414.003 92.3509 416.807 92.8862C423.199 94.1405 424.318 99.8309 424.078 102.519Z" fill="url(#paint4_radial_1115_6959)"/>
<path d="M416.386 116.808C415.877 112.912 413.989 101.62 424.078 102.519C424.318 99.8309 423.199 94.1405 416.807 92.8862C414.003 92.3509 408.195 93.4806 407.409 102.316C406.804 109.108 413.527 115.27 416.386 116.808ZM416.386 116.808C419.361 118.642 425.118 124.432 425.749 131.762C426.394 139.266 420.587 141.541 417.577 141.701C414.157 141.882 408.692 138.799 408.618 131.946C419.234 133.775 416.441 125.798 416.386 116.808Z" stroke="#5C0303" stroke-width="0.474912"/>
<path d="M179.078 126.519C168.989 125.62 170.877 136.912 171.386 140.808C174.361 142.642 180.118 148.432 180.749 155.762C181.394 163.266 175.587 165.541 172.577 165.701C169.157 165.882 163.692 162.799 163.618 155.946C174.234 157.775 171.441 149.798 171.386 140.808C168.527 139.27 161.804 133.108 162.409 126.316C163.195 117.481 169.003 116.351 171.807 116.886C178.199 118.141 179.318 123.831 179.078 126.519Z" fill="url(#paint5_radial_1115_6959)"/>
<path d="M171.386 140.808C170.877 136.912 168.989 125.62 179.078 126.519C179.318 123.831 178.199 118.141 171.807 116.886C169.003 116.351 163.195 117.481 162.409 126.316C161.804 133.108 168.527 139.27 171.386 140.808ZM171.386 140.808C174.361 142.642 180.118 148.432 180.749 155.762C181.394 163.266 175.587 165.541 172.577 165.701C169.157 165.882 163.692 162.799 163.618 155.946C174.234 157.775 171.441 149.798 171.386 140.808Z" stroke="#5C0303" stroke-width="0.474912"/>
<path d="M371.078 272.519C360.989 271.62 362.877 282.912 363.386 286.808C366.361 288.642 372.118 294.432 372.749 301.762C373.394 309.266 367.587 311.541 364.577 311.701C361.157 311.882 355.692 308.799 355.618 301.946C366.234 303.775 363.441 295.798 363.386 286.808C360.527 285.27 353.804 279.108 354.409 272.316C355.195 263.481 361.003 262.351 363.807 262.886C370.199 264.141 371.318 269.831 371.078 272.519Z" fill="url(#paint6_radial_1115_6959)"/>
<path d="M363.386 286.808C362.877 282.912 360.989 271.62 371.078 272.519C371.318 269.831 370.199 264.141 363.807 262.886C361.003 262.351 355.195 263.481 354.409 272.316C353.804 279.108 360.527 285.27 363.386 286.808ZM363.386 286.808C366.361 288.642 372.118 294.432 372.749 301.762C373.394 309.266 367.587 311.541 364.577 311.701C361.157 311.882 355.692 308.799 355.618 301.946C366.234 303.775 363.441 295.798 363.386 286.808Z" stroke="#5C0303" stroke-width="0.474912"/>
</g>
<defs>
<filter id="filter0_d_1115_6959" x="0" y="0.0997925" width="591.977" height="405.8" filterUnits="userSpaceOnUse" color-interpolation-filters="sRGB">
<feFlood flood-opacity="0" result="BackgroundImageFix"/>
<feColorMatrix in="SourceAlpha" type="matrix" values="0 0 0 0 0 0 0 0 0 0 0 0 0 0 0 0 0 0 127 0" result="hardAlpha"/>
<feMorphology radius="12" operator="erode" in="SourceAlpha" result="effect1_dropShadow_1115_6959"/>
<feOffset dy="25"/>
<feGaussianBlur stdDeviation="25"/>
<feComposite in2="hardAlpha" operator="out"/>
<feColorMatrix type="matrix" values="0 0 0 0 0 0 0 0 0 0 0 0 0 0 0 0 0 0 0.25 0"/>
<feBlend mode="normal" in2="BackgroundImageFix" result="effect1_dropShadow_1115_6959"/>
<feBlend mode="normal" in="SourceGraphic" in2="effect1_dropShadow_1115_6959" result="shape"/>
</filter>
<linearGradient id="paint0_linear_1115_6959" x1="197.871" y1="-74.2995" x2="467.591" y2="369.972" gradientUnits="userSpaceOnUse">
<stop stop-color="#B40A1E"/>
<stop offset="1" stop-color="#EC4899"/>
</linearGradient>
<radialGradient id="paint1_radial_1115_6959" cx="0" cy="0" r="1" gradientUnits="userSpaceOnUse" gradientTransform="translate(298.596 178.195) rotate(90) scale(84.283 36.5234)">
<stop stop-color="#98021D"/>
<stop offset="1" stop-color="#FFFEEF"/>
</radialGradient>
<radialGradient id="paint2_radial_1115_6959" cx="0" cy="0" r="1" gradientUnits="userSpaceOnUse" gradientTransform="translate(296.044 178.733) rotate(90) scale(60.9546 72.5688)">
<stop stop-color="#98021D"/>
<stop offset="1" stop-color="#FFFEEF"/>
</radialGradient>
<radialGradient id="paint3_radial_1115_6959" cx="0" cy="0" r="1" gradientUnits="userSpaceOnUse" gradientTransform="translate(297.467 176.597) rotate(90) scale(50.234 78.8303)">
<stop stop-color="#98021D"/>
<stop offset="1" stop-color="#FFFEEF"/>
</radialGradient>
<radialGradient id="paint4_radial_1115_6959" cx="0" cy="0" r="1" gradientUnits="userSpaceOnUse" gradientTransform="translate(416.657 117.259) rotate(95.0943) scale(24.3198 10.5388)">
<stop stop-color="#98021D"/>
<stop offset="1" stop-color="#FFFEEF"/>
</radialGradient>
<radialGradient id="paint5_radial_1115_6959" cx="0" cy="0" r="1" gradientUnits="userSpaceOnUse" gradientTransform="translate(171.657 141.259) rotate(95.0943) scale(24.3198 10.5388)">
<stop stop-color="#98021D"/>
<stop offset="1" stop-color="#FFFEEF"/>
</radialGradient>
<radialGradient id="paint6_radial_1115_6959" cx="0" cy="0" r="1" gradientUnits="userSpaceOnUse" gradientTransform="translate(363.657 287.259) rotate(95.0943) scale(24.3198 10.5388)">
<stop stop-color="#98021D"/>
<stop offset="1" stop-color="#FFFEEF"/>
</radialGradient>
<clipPath id="clip0_1115_6959">
<rect width="192" height="192" fill="white" transform="translate(200 82.0998)"/>
</clipPath>
</defs>
</svg>
