<svg width="494" height="859" viewBox="0 0 494 859" fill="none" xmlns="http://www.w3.org/2000/svg">
<g clip-path="url(#clip0_5_702)">
<path d="M0 0H474C485.046 0 494 8.95431 494 20V839C494 850.046 485.046 859 474 859H0V0Z" fill="black"/>
<path d="M105.36 382.864L98.176 406H94.288L89.232 390.192C89.0933 389.808 88.9653 389.339 88.848 388.784C88.784 389.051 88.72 389.301 88.656 389.536C88.592 389.771 88.5227 389.989 88.448 390.192L83.344 406H79.44L72.272 382.864H75.872C76.2453 382.864 76.5547 382.955 76.8 383.136C77.056 383.307 77.2267 383.541 77.312 383.84L81.248 397.68C81.3333 398.021 81.4133 398.395 81.488 398.8C81.5733 399.195 81.6587 399.611 81.744 400.048C81.8293 399.6 81.92 399.179 82.016 398.784C82.1227 398.389 82.2347 398.021 82.352 397.68L86.896 383.84C86.9813 383.595 87.1467 383.371 87.392 383.168C87.648 382.965 87.9573 382.864 88.32 382.864H89.584C89.9573 382.864 90.2613 382.955 90.496 383.136C90.7307 383.317 90.9067 383.552 91.024 383.84L95.552 397.68C95.776 398.341 95.9787 399.104 96.16 399.968C96.2987 399.125 96.4533 398.363 96.624 397.68L100.56 383.84C100.624 383.573 100.784 383.344 101.04 383.152C101.307 382.96 101.621 382.864 101.984 382.864H105.36ZM116.216 395.904C116.216 395.392 116.141 394.912 115.992 394.464C115.853 394.005 115.64 393.605 115.352 393.264C115.064 392.923 114.696 392.656 114.248 392.464C113.81 392.261 113.298 392.16 112.712 392.16C111.57 392.16 110.669 392.485 110.008 393.136C109.357 393.787 108.941 394.709 108.76 395.904H116.216ZM108.68 398.288C108.744 399.131 108.893 399.861 109.128 400.48C109.362 401.088 109.672 401.595 110.056 402C110.44 402.395 110.893 402.693 111.416 402.896C111.949 403.088 112.536 403.184 113.176 403.184C113.816 403.184 114.365 403.109 114.824 402.96C115.293 402.811 115.698 402.645 116.04 402.464C116.392 402.283 116.696 402.117 116.952 401.968C117.218 401.819 117.474 401.744 117.72 401.744C118.05 401.744 118.296 401.867 118.456 402.112L119.592 403.552C119.154 404.064 118.664 404.496 118.12 404.848C117.576 405.189 117.005 405.467 116.408 405.68C115.821 405.883 115.218 406.027 114.6 406.112C113.992 406.197 113.4 406.24 112.824 406.24C111.682 406.24 110.621 406.053 109.64 405.68C108.658 405.296 107.805 404.736 107.08 404C106.354 403.253 105.784 402.336 105.368 401.248C104.952 400.149 104.743 398.88 104.743 397.44C104.743 396.32 104.925 395.269 105.288 394.288C105.65 393.296 106.168 392.437 106.84 391.712C107.522 390.976 108.349 390.395 109.32 389.968C110.301 389.541 111.405 389.328 112.632 389.328C113.666 389.328 114.621 389.493 115.496 389.824C116.37 390.155 117.122 390.64 117.752 391.28C118.381 391.909 118.872 392.688 119.224 393.616C119.586 394.533 119.767 395.584 119.767 396.768C119.767 397.365 119.704 397.771 119.576 397.984C119.448 398.187 119.202 398.288 118.84 398.288H108.68ZM149.775 382.864L140.431 406H136.543L127.199 382.864H130.655C131.028 382.864 131.332 382.955 131.567 383.136C131.802 383.317 131.978 383.552 132.095 383.84L137.551 397.952C137.732 398.411 137.903 398.917 138.063 399.472C138.234 400.016 138.394 400.587 138.543 401.184C138.671 400.587 138.81 400.016 138.959 399.472C139.108 398.917 139.274 398.411 139.455 397.952L144.879 383.84C144.964 383.595 145.13 383.371 145.375 383.168C145.631 382.965 145.94 382.864 146.303 382.864H149.775ZM157.78 398.992C156.639 399.045 155.679 399.147 154.9 399.296C154.122 399.435 153.498 399.616 153.028 399.84C152.559 400.064 152.223 400.325 152.02 400.624C151.818 400.923 151.716 401.248 151.716 401.6C151.716 402.293 151.919 402.789 152.324 403.088C152.74 403.387 153.279 403.536 153.94 403.536C154.751 403.536 155.45 403.392 156.036 403.104C156.634 402.805 157.215 402.357 157.78 401.76V398.992ZM148.724 391.872C150.612 390.144 152.884 389.28 155.54 389.28C156.5 389.28 157.359 389.44 158.116 389.76C158.874 390.069 159.514 390.507 160.036 391.072C160.559 391.627 160.954 392.293 161.22 393.072C161.498 393.851 161.636 394.704 161.636 395.632V406H159.844C159.471 406 159.183 405.947 158.98 405.84C158.778 405.723 158.618 405.493 158.5 405.152L158.148 403.968C157.732 404.341 157.327 404.672 156.932 404.96C156.538 405.237 156.127 405.472 155.7 405.664C155.274 405.856 154.815 406 154.324 406.096C153.844 406.203 153.311 406.256 152.724 406.256C152.031 406.256 151.391 406.165 150.804 405.984C150.218 405.792 149.711 405.509 149.284 405.136C148.858 404.763 148.527 404.299 148.292 403.744C148.058 403.189 147.94 402.544 147.94 401.808C147.94 401.392 148.01 400.981 148.148 400.576C148.287 400.16 148.511 399.765 148.82 399.392C149.14 399.019 149.551 398.667 150.052 398.336C150.554 398.005 151.167 397.717 151.892 397.472C152.628 397.227 153.482 397.029 154.452 396.88C155.423 396.72 156.532 396.624 157.78 396.592V395.632C157.78 394.533 157.546 393.723 157.076 393.2C156.607 392.667 155.93 392.4 155.044 392.4C154.404 392.4 153.871 392.475 153.444 392.624C153.028 392.773 152.66 392.944 152.34 393.136C152.02 393.317 151.727 393.483 151.46 393.632C151.204 393.781 150.916 393.856 150.596 393.856C150.319 393.856 150.084 393.787 149.892 393.648C149.7 393.499 149.546 393.328 149.428 393.136L148.724 391.872ZM169.358 382.224V406H165.406V382.224H169.358ZM187.44 389.584V406H185.024C184.501 406 184.17 405.76 184.032 405.28L183.76 403.968C183.088 404.651 182.346 405.205 181.536 405.632C180.725 406.048 179.77 406.256 178.672 406.256C177.776 406.256 176.981 406.107 176.288 405.808C175.605 405.499 175.029 405.067 174.56 404.512C174.09 403.957 173.733 403.301 173.488 402.544C173.253 401.776 173.136 400.933 173.136 400.016V389.584H177.088V400.016C177.088 401.019 177.317 401.797 177.776 402.352C178.245 402.896 178.944 403.168 179.872 403.168C180.554 403.168 181.194 403.019 181.792 402.72C182.389 402.411 182.954 401.989 183.488 401.456V389.584H187.44ZM201.934 395.904C201.934 395.392 201.86 394.912 201.71 394.464C201.572 394.005 201.358 393.605 201.07 393.264C200.782 392.923 200.414 392.656 199.966 392.464C199.529 392.261 199.017 392.16 198.43 392.16C197.289 392.16 196.388 392.485 195.726 393.136C195.076 393.787 194.66 394.709 194.478 395.904H201.934ZM194.398 398.288C194.462 399.131 194.612 399.861 194.846 400.48C195.081 401.088 195.39 401.595 195.774 402C196.158 402.395 196.612 402.693 197.134 402.896C197.668 403.088 198.254 403.184 198.894 403.184C199.534 403.184 200.084 403.109 200.542 402.96C201.012 402.811 201.417 402.645 201.758 402.464C202.11 402.283 202.414 402.117 202.67 401.968C202.937 401.819 203.193 401.744 203.438 401.744C203.769 401.744 204.014 401.867 204.174 402.112L205.31 403.552C204.873 404.064 204.382 404.496 203.838 404.848C203.294 405.189 202.724 405.467 202.126 405.68C201.54 405.883 200.937 406.027 200.318 406.112C199.71 406.197 199.118 406.24 198.542 406.24C197.401 406.24 196.34 406.053 195.358 405.68C194.377 405.296 193.524 404.736 192.798 404C192.073 403.253 191.502 402.336 191.086 401.248C190.67 400.149 190.462 398.88 190.462 397.44C190.462 396.32 190.644 395.269 191.006 394.288C191.369 393.296 191.886 392.437 192.558 391.712C193.241 390.976 194.068 390.395 195.038 389.968C196.02 389.541 197.124 389.328 198.35 389.328C199.385 389.328 200.34 389.493 201.214 389.824C202.089 390.155 202.841 390.64 203.47 391.28C204.1 391.909 204.59 392.688 204.942 393.616C205.305 394.533 205.486 395.584 205.486 396.768C205.486 397.365 205.422 397.771 205.294 397.984C205.166 398.187 204.921 398.288 204.558 398.288H194.398ZM225.512 397.04V406H221.224V397.04L212.792 382.864H216.584C216.957 382.864 217.251 382.955 217.464 383.136C217.688 383.317 217.875 383.547 218.024 383.824L222.248 391.552C222.493 392.011 222.707 392.443 222.888 392.848C223.08 393.253 223.251 393.659 223.4 394.064C223.539 393.659 223.699 393.253 223.88 392.848C224.061 392.443 224.269 392.011 224.504 391.552L228.712 383.824C228.829 383.589 229.005 383.371 229.24 383.168C229.475 382.965 229.773 382.864 230.136 382.864H233.944L225.512 397.04ZM239.341 389.328C240.557 389.328 241.661 389.525 242.653 389.92C243.656 390.315 244.509 390.875 245.213 391.6C245.928 392.325 246.477 393.211 246.861 394.256C247.245 395.301 247.437 396.469 247.437 397.76C247.437 399.061 247.245 400.235 246.861 401.28C246.477 402.325 245.928 403.216 245.213 403.952C244.509 404.688 243.656 405.253 242.653 405.648C241.661 406.043 240.557 406.24 239.341 406.24C238.114 406.24 237 406.043 235.997 405.648C234.994 405.253 234.136 404.688 233.421 403.952C232.717 403.216 232.168 402.325 231.773 401.28C231.389 400.235 231.197 399.061 231.197 397.76C231.197 396.469 231.389 395.301 231.773 394.256C232.168 393.211 232.717 392.325 233.421 391.6C234.136 390.875 234.994 390.315 235.997 389.92C237 389.525 238.114 389.328 239.341 389.328ZM239.341 403.2C240.706 403.2 241.714 402.741 242.365 401.824C243.026 400.907 243.357 399.563 243.357 397.792C243.357 396.021 243.026 394.672 242.365 393.744C241.714 392.816 240.706 392.352 239.341 392.352C237.954 392.352 236.925 392.821 236.253 393.76C235.592 394.688 235.261 396.032 235.261 397.792C235.261 399.552 235.592 400.896 236.253 401.824C236.925 402.741 237.954 403.2 239.341 403.2ZM264.596 389.584V406H262.18C261.657 406 261.327 405.76 261.188 405.28L260.916 403.968C260.244 404.651 259.503 405.205 258.692 405.632C257.881 406.048 256.927 406.256 255.828 406.256C254.932 406.256 254.137 406.107 253.444 405.808C252.761 405.499 252.185 405.067 251.716 404.512C251.247 403.957 250.889 403.301 250.644 402.544C250.409 401.776 250.292 400.933 250.292 400.016V389.584H254.244V400.016C254.244 401.019 254.473 401.797 254.932 402.352C255.401 402.896 256.1 403.168 257.028 403.168C257.711 403.168 258.351 403.019 258.948 402.72C259.545 402.411 260.111 401.989 260.644 401.456V389.584H264.596ZM272.243 392.432C272.755 391.451 273.363 390.683 274.067 390.128C274.771 389.563 275.603 389.28 276.562 389.28C277.32 389.28 277.928 389.445 278.387 389.776L278.131 392.736C278.077 392.928 277.997 393.067 277.891 393.152C277.795 393.227 277.661 393.264 277.491 393.264C277.331 393.264 277.091 393.237 276.771 393.184C276.461 393.131 276.157 393.104 275.859 393.104C275.421 393.104 275.032 393.168 274.691 393.296C274.349 393.424 274.04 393.611 273.763 393.856C273.496 394.091 273.256 394.379 273.043 394.72C272.84 395.061 272.648 395.451 272.467 395.888V406H268.515V389.584H270.835C271.24 389.584 271.523 389.659 271.683 389.808C271.843 389.947 271.949 390.203 272.003 390.576L272.243 392.432ZM292.49 386.288V393.136H301.162V396.576H292.49V406H288.17V382.864H302.762V386.288H292.49ZM314.809 395.904C314.809 395.392 314.735 394.912 314.585 394.464C314.447 394.005 314.233 393.605 313.945 393.264C313.657 392.923 313.289 392.656 312.841 392.464C312.404 392.261 311.892 392.16 311.305 392.16C310.164 392.16 309.263 392.485 308.601 393.136C307.951 393.787 307.535 394.709 307.353 395.904H314.809ZM307.273 398.288C307.337 399.131 307.487 399.861 307.721 400.48C307.956 401.088 308.265 401.595 308.649 402C309.033 402.395 309.487 402.693 310.009 402.896C310.543 403.088 311.129 403.184 311.769 403.184C312.409 403.184 312.959 403.109 313.417 402.96C313.887 402.811 314.292 402.645 314.633 402.464C314.985 402.283 315.289 402.117 315.545 401.968C315.812 401.819 316.068 401.744 316.313 401.744C316.644 401.744 316.889 401.867 317.049 402.112L318.185 403.552C317.748 404.064 317.257 404.496 316.713 404.848C316.169 405.189 315.599 405.467 315.001 405.68C314.415 405.883 313.812 406.027 313.193 406.112C312.585 406.197 311.993 406.24 311.417 406.24C310.276 406.24 309.215 406.053 308.233 405.68C307.252 405.296 306.399 404.736 305.673 404C304.948 403.253 304.377 402.336 303.961 401.248C303.545 400.149 303.337 398.88 303.337 397.44C303.337 396.32 303.519 395.269 303.881 394.288C304.244 393.296 304.761 392.437 305.433 391.712C306.116 390.976 306.943 390.395 307.913 389.968C308.895 389.541 309.999 389.328 311.225 389.328C312.26 389.328 313.215 389.493 314.089 389.824C314.964 390.155 315.716 390.64 316.345 391.28C316.975 391.909 317.465 392.688 317.817 393.616C318.18 394.533 318.361 395.584 318.361 396.768C318.361 397.365 318.297 397.771 318.169 397.984C318.041 398.187 317.796 398.288 317.433 398.288H307.273ZM331.903 395.904C331.903 395.392 331.828 394.912 331.679 394.464C331.54 394.005 331.327 393.605 331.039 393.264C330.751 392.923 330.383 392.656 329.935 392.464C329.498 392.261 328.986 392.16 328.399 392.16C327.258 392.16 326.356 392.485 325.695 393.136C325.044 393.787 324.628 394.709 324.447 395.904H331.903ZM324.367 398.288C324.431 399.131 324.58 399.861 324.815 400.48C325.05 401.088 325.359 401.595 325.743 402C326.127 402.395 326.58 402.693 327.103 402.896C327.636 403.088 328.223 403.184 328.863 403.184C329.503 403.184 330.052 403.109 330.511 402.96C330.98 402.811 331.386 402.645 331.727 402.464C332.079 402.283 332.383 402.117 332.639 401.968C332.906 401.819 333.162 401.744 333.407 401.744C333.738 401.744 333.983 401.867 334.143 402.112L335.279 403.552C334.842 404.064 334.351 404.496 333.807 404.848C333.263 405.189 332.692 405.467 332.095 405.68C331.508 405.883 330.906 406.027 330.287 406.112C329.679 406.197 329.087 406.24 328.511 406.24C327.37 406.24 326.308 406.053 325.327 405.68C324.346 405.296 323.492 404.736 322.767 404C322.042 403.253 321.471 402.336 321.055 401.248C320.639 400.149 320.431 398.88 320.431 397.44C320.431 396.32 320.612 395.269 320.975 394.288C321.338 393.296 321.855 392.437 322.527 391.712C323.21 390.976 324.036 390.395 325.007 389.968C325.988 389.541 327.092 389.328 328.319 389.328C329.354 389.328 330.308 389.493 331.183 389.824C332.058 390.155 332.81 390.64 333.439 391.28C334.068 391.909 334.559 392.688 334.911 393.616C335.274 394.533 335.455 395.584 335.455 396.768C335.455 397.365 335.391 397.771 335.263 397.984C335.135 398.187 334.89 398.288 334.527 398.288H324.367ZM348.725 393.776C348.277 393.232 347.786 392.848 347.253 392.624C346.73 392.4 346.165 392.288 345.557 392.288C344.959 392.288 344.421 392.4 343.941 392.624C343.461 392.848 343.05 393.189 342.709 393.648C342.367 394.096 342.106 394.672 341.925 395.376C341.743 396.069 341.653 396.891 341.653 397.84C341.653 398.8 341.727 399.616 341.877 400.288C342.037 400.949 342.261 401.493 342.549 401.92C342.837 402.336 343.189 402.64 343.605 402.832C344.021 403.013 344.485 403.104 344.997 403.104C345.818 403.104 346.517 402.933 347.093 402.592C347.669 402.251 348.213 401.765 348.725 401.136V393.776ZM352.677 382.224V406H350.261C349.738 406 349.407 405.76 349.269 405.28L348.933 403.696C348.271 404.453 347.509 405.067 346.645 405.536C345.791 406.005 344.794 406.24 343.653 406.24C342.757 406.24 341.935 406.053 341.189 405.68C340.442 405.307 339.797 404.768 339.253 404.064C338.719 403.349 338.303 402.469 338.005 401.424C337.717 400.379 337.573 399.184 337.573 397.84C337.573 396.624 337.738 395.493 338.069 394.448C338.399 393.403 338.874 392.496 339.493 391.728C340.111 390.96 340.853 390.363 341.717 389.936C342.581 389.499 343.551 389.28 344.629 389.28C345.546 389.28 346.33 389.424 346.981 389.712C347.631 390 348.213 390.389 348.725 390.88V382.224H352.677ZM360.529 401.744C360.977 402.288 361.462 402.672 361.985 402.896C362.518 403.12 363.078 403.232 363.665 403.232C364.273 403.232 364.817 403.125 365.297 402.912C365.788 402.688 366.204 402.347 366.545 401.888C366.886 401.419 367.148 400.827 367.329 400.112C367.51 399.387 367.601 398.523 367.601 397.52C367.601 395.717 367.302 394.416 366.705 393.616C366.108 392.805 365.249 392.4 364.129 392.4C363.372 392.4 362.71 392.576 362.145 392.928C361.58 393.269 361.041 393.755 360.529 394.384V401.744ZM360.529 391.6C361.19 390.907 361.921 390.357 362.721 389.952C363.532 389.536 364.454 389.328 365.489 389.328C366.438 389.328 367.292 389.515 368.049 389.888C368.817 390.261 369.468 390.8 370.001 391.504C370.545 392.197 370.961 393.04 371.249 394.032C371.537 395.024 371.681 396.139 371.681 397.376C371.681 398.709 371.516 399.92 371.185 401.008C370.854 402.096 370.38 403.029 369.761 403.808C369.153 404.576 368.417 405.173 367.553 405.6C366.689 406.027 365.729 406.24 364.673 406.24C364.161 406.24 363.697 406.187 363.281 406.08C362.865 405.984 362.481 405.845 362.129 405.664C361.777 405.483 361.452 405.264 361.153 405.008C360.865 404.741 360.588 404.448 360.321 404.128L360.145 405.232C360.081 405.509 359.969 405.707 359.809 405.824C359.66 405.941 359.452 406 359.185 406H356.577V382.224H360.529V391.6ZM383.405 398.992C382.264 399.045 381.304 399.147 380.525 399.296C379.747 399.435 379.123 399.616 378.653 399.84C378.184 400.064 377.848 400.325 377.645 400.624C377.443 400.923 377.341 401.248 377.341 401.6C377.341 402.293 377.544 402.789 377.949 403.088C378.365 403.387 378.904 403.536 379.565 403.536C380.376 403.536 381.075 403.392 381.661 403.104C382.259 402.805 382.84 402.357 383.405 401.76V398.992ZM374.349 391.872C376.237 390.144 378.509 389.28 381.165 389.28C382.125 389.28 382.984 389.44 383.741 389.76C384.499 390.069 385.139 390.507 385.661 391.072C386.184 391.627 386.579 392.293 386.845 393.072C387.123 393.851 387.261 394.704 387.261 395.632V406H385.469C385.096 406 384.808 405.947 384.605 405.84C384.403 405.723 384.243 405.493 384.125 405.152L383.773 403.968C383.357 404.341 382.952 404.672 382.557 404.96C382.163 405.237 381.752 405.472 381.325 405.664C380.899 405.856 380.44 406 379.949 406.096C379.469 406.203 378.936 406.256 378.349 406.256C377.656 406.256 377.016 406.165 376.429 405.984C375.843 405.792 375.336 405.509 374.909 405.136C374.483 404.763 374.152 404.299 373.917 403.744C373.683 403.189 373.565 402.544 373.565 401.808C373.565 401.392 373.635 400.981 373.773 400.576C373.912 400.16 374.136 399.765 374.445 399.392C374.765 399.019 375.176 398.667 375.677 398.336C376.179 398.005 376.792 397.717 377.517 397.472C378.253 397.227 379.107 397.029 380.077 396.88C381.048 396.72 382.157 396.624 383.405 396.592V395.632C383.405 394.533 383.171 393.723 382.701 393.2C382.232 392.667 381.555 392.4 380.669 392.4C380.029 392.4 379.496 392.475 379.069 392.624C378.653 392.773 378.285 392.944 377.965 393.136C377.645 393.317 377.352 393.483 377.085 393.632C376.829 393.781 376.541 393.856 376.221 393.856C375.944 393.856 375.709 393.787 375.517 393.648C375.325 393.499 375.171 393.328 375.053 393.136L374.349 391.872ZM402.743 393.056C402.626 393.205 402.509 393.323 402.391 393.408C402.285 393.493 402.125 393.536 401.911 393.536C401.709 393.536 401.511 393.477 401.319 393.36C401.127 393.232 400.898 393.093 400.631 392.944C400.365 392.784 400.045 392.645 399.671 392.528C399.309 392.4 398.855 392.336 398.311 392.336C397.618 392.336 397.01 392.464 396.487 392.72C395.965 392.965 395.527 393.323 395.175 393.792C394.834 394.261 394.578 394.832 394.407 395.504C394.237 396.165 394.151 396.917 394.151 397.76C394.151 398.635 394.242 399.413 394.423 400.096C394.615 400.779 394.887 401.355 395.239 401.824C395.591 402.283 396.018 402.635 396.519 402.88C397.021 403.115 397.586 403.232 398.215 403.232C398.845 403.232 399.351 403.157 399.735 403.008C400.13 402.848 400.461 402.677 400.727 402.496C400.994 402.304 401.223 402.133 401.415 401.984C401.618 401.824 401.842 401.744 402.087 401.744C402.407 401.744 402.647 401.867 402.807 402.112L403.943 403.552C403.506 404.064 403.031 404.496 402.519 404.848C402.007 405.189 401.474 405.467 400.919 405.68C400.375 405.883 399.81 406.027 399.223 406.112C398.647 406.197 398.071 406.24 397.495 406.24C396.482 406.24 395.527 406.053 394.631 405.68C393.735 405.296 392.951 404.741 392.279 404.016C391.607 403.291 391.074 402.405 390.679 401.36C390.295 400.304 390.103 399.104 390.103 397.76C390.103 396.555 390.274 395.44 390.615 394.416C390.967 393.381 391.479 392.491 392.151 391.744C392.823 390.987 393.655 390.395 394.647 389.968C395.639 389.541 396.781 389.328 398.071 389.328C399.298 389.328 400.37 389.525 401.287 389.92C402.215 390.315 403.047 390.88 403.783 391.616L402.743 393.056ZM410.373 382.224V395.84H411.109C411.375 395.84 411.583 395.808 411.733 395.744C411.893 395.669 412.053 395.525 412.213 395.312L416.293 390.272C416.463 390.048 416.65 389.877 416.853 389.76C417.066 389.643 417.338 389.584 417.669 389.584H421.285L416.181 395.68C415.818 396.16 415.423 396.528 414.997 396.784C415.221 396.944 415.418 397.131 415.589 397.344C415.77 397.557 415.941 397.787 416.101 398.032L421.573 406H418.005C417.695 406 417.429 405.952 417.205 405.856C416.981 405.749 416.794 405.563 416.645 405.296L412.453 399.072C412.303 398.827 412.149 398.667 411.989 398.592C411.829 398.517 411.589 398.48 411.269 398.48H410.373V406H406.421V382.224H410.373Z" fill="white" fill-opacity="0.83"/>
<path d="M54.9299 451.727C55.4159 451.727 55.8419 451.664 56.2079 451.538C56.5799 451.412 56.8889 451.235 57.1349 451.007C57.3869 450.773 57.5759 450.497 57.7019 450.179C57.8279 449.855 57.8909 449.498 57.8909 449.108C57.8909 448.322 57.6449 447.704 57.1529 447.254C56.6669 446.804 55.9259 446.579 54.9299 446.579H52.9319V451.727H54.9299ZM54.9299 445.076C55.7579 445.076 56.4779 445.172 57.0899 445.364C57.7019 445.556 58.2089 445.829 58.6109 446.183C59.0129 446.531 59.3099 446.954 59.5019 447.452C59.6999 447.95 59.7989 448.502 59.7989 449.108C59.7989 449.714 59.6939 450.272 59.4839 450.782C59.2739 451.286 58.9649 451.721 58.5569 452.087C58.1489 452.453 57.6389 452.738 57.0269 452.942C56.4209 453.14 55.7219 453.239 54.9299 453.239H52.9319V458H51.0149V445.076H54.9299ZM63.3006 444.716V458H61.5366V444.716H63.3006ZM71.8642 452.411C71.8642 452.063 71.8132 451.742 71.7112 451.448C71.6152 451.154 71.4712 450.899 71.2792 450.683C71.0872 450.467 70.8532 450.299 70.5772 450.179C70.3012 450.059 69.9832 449.999 69.6232 449.999C68.8852 449.999 68.3032 450.212 67.8772 450.638C67.4572 451.064 67.1902 451.655 67.0762 452.411H71.8642ZM73.3132 456.695C73.0972 456.947 72.8482 457.166 72.5662 457.352C72.2842 457.532 71.9842 457.679 71.6662 457.793C71.3482 457.907 71.0182 457.991 70.6762 458.045C70.3402 458.099 70.0072 458.126 69.6772 458.126C69.0472 458.126 68.4622 458.021 67.9222 457.811C67.3882 457.595 66.9232 457.283 66.5272 456.875C66.1372 456.461 65.8312 455.951 65.6092 455.345C65.3932 454.733 65.2852 454.031 65.2852 453.239C65.2852 452.603 65.3842 452.012 65.5822 451.466C65.7802 450.914 66.0622 450.434 66.4282 450.026C66.8002 449.618 67.2532 449.297 67.7872 449.063C68.3212 448.829 68.9212 448.712 69.5872 448.712C70.1452 448.712 70.6582 448.805 71.1262 448.991C71.6002 449.171 72.0082 449.435 72.3502 449.783C72.6922 450.131 72.9592 450.56 73.1512 451.07C73.3492 451.58 73.4482 452.162 73.4482 452.816C73.4482 453.086 73.4182 453.269 73.3582 453.365C73.2982 453.455 73.1872 453.5 73.0252 453.5H67.0312C67.0492 454.046 67.1272 454.523 67.2652 454.931C67.4032 455.333 67.5922 455.669 67.8322 455.939C68.0782 456.209 68.3692 456.41 68.7052 456.542C69.0412 456.674 69.4162 456.74 69.8302 456.74C70.2202 456.74 70.5562 456.695 70.8382 456.605C71.1262 456.515 71.3722 456.419 71.5762 456.317C71.7862 456.209 71.9602 456.11 72.0982 456.02C72.2422 455.93 72.3682 455.885 72.4762 455.885C72.6202 455.885 72.7312 455.939 72.8092 456.047L73.3132 456.695ZM80.2486 453.941C79.5346 453.965 78.9286 454.022 78.4306 454.112C77.9326 454.196 77.5276 454.31 77.2156 454.454C76.9036 454.598 76.6786 454.769 76.5406 454.967C76.4026 455.159 76.3336 455.375 76.3336 455.615C76.3336 455.843 76.3696 456.041 76.4416 456.209C76.5196 456.371 76.6216 456.506 76.7476 456.614C76.8796 456.716 77.0326 456.791 77.2066 456.839C77.3806 456.887 77.5696 456.911 77.7736 456.911C78.0436 456.911 78.2896 456.884 78.5116 456.83C78.7396 456.776 78.9526 456.701 79.1506 456.605C79.3486 456.503 79.5376 456.38 79.7176 456.236C79.8976 456.092 80.0746 455.927 80.2486 455.741V453.941ZM75.1006 450.134C75.6106 449.648 76.1626 449.285 76.7566 449.045C77.3566 448.805 78.0136 448.685 78.7276 448.685C79.2496 448.685 79.7116 448.772 80.1136 448.946C80.5156 449.114 80.8546 449.351 81.1306 449.657C81.4066 449.963 81.6136 450.329 81.7516 450.755C81.8956 451.181 81.9676 451.652 81.9676 452.168V458H81.1846C81.0106 458 80.8786 457.973 80.7886 457.919C80.6986 457.859 80.6266 457.751 80.5726 457.595L80.3836 456.794C80.1496 457.01 79.9186 457.202 79.6906 457.37C79.4626 457.532 79.2226 457.673 78.9706 457.793C78.7246 457.907 78.4606 457.994 78.1786 458.054C77.8966 458.114 77.5846 458.144 77.2426 458.144C76.8826 458.144 76.5436 458.096 76.2256 458C75.9136 457.898 75.6406 457.745 75.4066 457.541C75.1726 457.337 74.9866 457.082 74.8486 456.776C74.7166 456.47 74.6506 456.113 74.6506 455.705C74.6506 455.345 74.7466 455 74.9386 454.67C75.1366 454.334 75.4546 454.034 75.8926 453.77C76.3366 453.506 76.9126 453.29 77.6206 453.122C78.3346 452.954 79.2106 452.858 80.2486 452.834V452.168C80.2486 451.478 80.1016 450.962 79.8076 450.62C79.5136 450.278 79.0816 450.107 78.5116 450.107C78.1276 450.107 77.8036 450.155 77.5396 450.251C77.2816 450.347 77.0566 450.455 76.8646 450.575C76.6786 450.689 76.5136 450.794 76.3696 450.89C76.2316 450.986 76.0876 451.034 75.9376 451.034C75.8176 451.034 75.7126 451.001 75.6226 450.935C75.5386 450.869 75.4696 450.791 75.4156 450.701L75.1006 450.134ZM89.708 450.431C89.66 450.509 89.609 450.566 89.555 450.602C89.501 450.632 89.432 450.647 89.348 450.647C89.252 450.647 89.144 450.614 89.024 450.548C88.91 450.482 88.769 450.41 88.601 450.332C88.439 450.254 88.247 450.182 88.025 450.116C87.803 450.05 87.539 450.017 87.233 450.017C86.981 450.017 86.75 450.05 86.54 450.116C86.336 450.176 86.162 450.263 86.018 450.377C85.874 450.485 85.763 450.617 85.685 450.773C85.607 450.923 85.568 451.085 85.568 451.259C85.568 451.487 85.634 451.676 85.766 451.826C85.904 451.976 86.081 452.105 86.297 452.213C86.519 452.321 86.768 452.42 87.044 452.51C87.326 452.594 87.611 452.684 87.899 452.78C88.193 452.876 88.478 452.987 88.754 453.113C89.036 453.233 89.285 453.386 89.501 453.572C89.723 453.752 89.9 453.971 90.032 454.229C90.17 454.487 90.239 454.802 90.239 455.174C90.239 455.6 90.161 455.996 90.005 456.362C89.855 456.722 89.63 457.034 89.33 457.298C89.036 457.562 88.67 457.769 88.232 457.919C87.794 458.069 87.293 458.144 86.729 458.144C86.099 458.144 85.517 458.039 84.983 457.829C84.449 457.619 84.002 457.352 83.642 457.028L84.056 456.353C84.104 456.269 84.164 456.206 84.236 456.164C84.308 456.116 84.404 456.092 84.524 456.092C84.638 456.092 84.755 456.134 84.875 456.218C84.995 456.302 85.139 456.395 85.307 456.497C85.475 456.593 85.679 456.683 85.919 456.767C86.159 456.845 86.459 456.884 86.819 456.884C87.119 456.884 87.38 456.848 87.602 456.776C87.824 456.698 88.007 456.596 88.151 456.47C88.301 456.338 88.412 456.188 88.484 456.02C88.556 455.852 88.592 455.675 88.592 455.489C88.592 455.249 88.523 455.051 88.385 454.895C88.253 454.733 88.076 454.595 87.854 454.481C87.638 454.367 87.389 454.268 87.107 454.184C86.825 454.1 86.537 454.01 86.243 453.914C85.949 453.818 85.661 453.707 85.379 453.581C85.097 453.455 84.845 453.296 84.623 453.104C84.407 452.912 84.23 452.678 84.092 452.402C83.96 452.126 83.894 451.79 83.894 451.394C83.894 451.04 83.966 450.701 84.11 450.377C84.26 450.053 84.473 449.768 84.749 449.522C85.031 449.276 85.376 449.081 85.784 448.937C86.198 448.787 86.669 448.712 87.197 448.712C87.803 448.712 88.349 448.808 88.835 449C89.327 449.192 89.747 449.456 90.095 449.792L89.708 450.431ZM98.1963 452.411C98.1963 452.063 98.1453 451.742 98.0433 451.448C97.9473 451.154 97.8033 450.899 97.6113 450.683C97.4193 450.467 97.1853 450.299 96.9093 450.179C96.6333 450.059 96.3153 449.999 95.9553 449.999C95.2173 449.999 94.6353 450.212 94.2093 450.638C93.7893 451.064 93.5223 451.655 93.4083 452.411H98.1963ZM99.6453 456.695C99.4293 456.947 99.1803 457.166 98.8983 457.352C98.6163 457.532 98.3163 457.679 97.9983 457.793C97.6803 457.907 97.3503 457.991 97.0083 458.045C96.6723 458.099 96.3393 458.126 96.0093 458.126C95.3793 458.126 94.7943 458.021 94.2543 457.811C93.7203 457.595 93.2553 457.283 92.8593 456.875C92.4693 456.461 92.1633 455.951 91.9413 455.345C91.7253 454.733 91.6173 454.031 91.6173 453.239C91.6173 452.603 91.7163 452.012 91.9143 451.466C92.1123 450.914 92.3943 450.434 92.7603 450.026C93.1323 449.618 93.5853 449.297 94.1193 449.063C94.6533 448.829 95.2533 448.712 95.9193 448.712C96.4773 448.712 96.9903 448.805 97.4583 448.991C97.9323 449.171 98.3403 449.435 98.6823 449.783C99.0243 450.131 99.2913 450.56 99.4833 451.07C99.6813 451.58 99.7803 452.162 99.7803 452.816C99.7803 453.086 99.7503 453.269 99.6903 453.365C99.6303 453.455 99.5193 453.5 99.3573 453.5H93.3633C93.3813 454.046 93.4593 454.523 93.5973 454.931C93.7353 455.333 93.9243 455.669 94.1643 455.939C94.4103 456.209 94.7013 456.41 95.0373 456.542C95.3733 456.674 95.7483 456.74 96.1623 456.74C96.5523 456.74 96.8883 456.695 97.1703 456.605C97.4583 456.515 97.7043 456.419 97.9083 456.317C98.1183 456.209 98.2923 456.11 98.4303 456.02C98.5743 455.93 98.7003 455.885 98.8083 455.885C98.9523 455.885 99.0633 455.939 99.1413 456.047L99.6453 456.695ZM111.61 450.431C111.562 450.509 111.511 450.566 111.457 450.602C111.403 450.632 111.334 450.647 111.25 450.647C111.154 450.647 111.046 450.614 110.926 450.548C110.812 450.482 110.671 450.41 110.503 450.332C110.341 450.254 110.149 450.182 109.927 450.116C109.705 450.05 109.441 450.017 109.135 450.017C108.883 450.017 108.652 450.05 108.442 450.116C108.238 450.176 108.064 450.263 107.92 450.377C107.776 450.485 107.665 450.617 107.587 450.773C107.509 450.923 107.47 451.085 107.47 451.259C107.47 451.487 107.536 451.676 107.668 451.826C107.806 451.976 107.983 452.105 108.199 452.213C108.421 452.321 108.67 452.42 108.946 452.51C109.228 452.594 109.513 452.684 109.801 452.78C110.095 452.876 110.38 452.987 110.656 453.113C110.938 453.233 111.187 453.386 111.403 453.572C111.625 453.752 111.802 453.971 111.934 454.229C112.072 454.487 112.141 454.802 112.141 455.174C112.141 455.6 112.063 455.996 111.907 456.362C111.757 456.722 111.532 457.034 111.232 457.298C110.938 457.562 110.572 457.769 110.134 457.919C109.696 458.069 109.195 458.144 108.631 458.144C108.001 458.144 107.419 458.039 106.885 457.829C106.351 457.619 105.904 457.352 105.544 457.028L105.958 456.353C106.006 456.269 106.066 456.206 106.138 456.164C106.21 456.116 106.306 456.092 106.426 456.092C106.54 456.092 106.657 456.134 106.777 456.218C106.897 456.302 107.041 456.395 107.209 456.497C107.377 456.593 107.581 456.683 107.821 456.767C108.061 456.845 108.361 456.884 108.721 456.884C109.021 456.884 109.282 456.848 109.504 456.776C109.726 456.698 109.909 456.596 110.053 456.47C110.203 456.338 110.314 456.188 110.386 456.02C110.458 455.852 110.494 455.675 110.494 455.489C110.494 455.249 110.425 455.051 110.287 454.895C110.155 454.733 109.978 454.595 109.756 454.481C109.54 454.367 109.291 454.268 109.009 454.184C108.727 454.1 108.439 454.01 108.145 453.914C107.851 453.818 107.563 453.707 107.281 453.581C106.999 453.455 106.747 453.296 106.525 453.104C106.309 452.912 106.132 452.678 105.994 452.402C105.862 452.126 105.796 451.79 105.796 451.394C105.796 451.04 105.868 450.701 106.012 450.377C106.162 450.053 106.375 449.768 106.651 449.522C106.933 449.276 107.278 449.081 107.686 448.937C108.1 448.787 108.571 448.712 109.099 448.712C109.705 448.712 110.251 448.808 110.737 449C111.229 449.192 111.649 449.456 111.997 449.792L111.61 450.431ZM115.797 450.017C116.181 449.627 116.604 449.312 117.066 449.072C117.534 448.832 118.071 448.712 118.677 448.712C119.181 448.712 119.622 448.796 120 448.964C120.384 449.132 120.705 449.369 120.963 449.675C121.221 449.975 121.416 450.338 121.548 450.764C121.68 451.19 121.746 451.661 121.746 452.177V458H119.982V452.177C119.982 451.523 119.832 451.016 119.532 450.656C119.232 450.29 118.773 450.107 118.155 450.107C117.705 450.107 117.282 450.215 116.886 450.431C116.496 450.641 116.133 450.929 115.797 451.295V458H114.042V444.716H115.797V450.017ZM129.028 453.941C128.314 453.965 127.708 454.022 127.21 454.112C126.712 454.196 126.307 454.31 125.995 454.454C125.683 454.598 125.458 454.769 125.32 454.967C125.182 455.159 125.113 455.375 125.113 455.615C125.113 455.843 125.149 456.041 125.221 456.209C125.299 456.371 125.401 456.506 125.527 456.614C125.659 456.716 125.812 456.791 125.986 456.839C126.16 456.887 126.349 456.911 126.553 456.911C126.823 456.911 127.069 456.884 127.291 456.83C127.519 456.776 127.732 456.701 127.93 456.605C128.128 456.503 128.317 456.38 128.497 456.236C128.677 456.092 128.854 455.927 129.028 455.741V453.941ZM123.88 450.134C124.39 449.648 124.942 449.285 125.536 449.045C126.136 448.805 126.793 448.685 127.507 448.685C128.029 448.685 128.491 448.772 128.893 448.946C129.295 449.114 129.634 449.351 129.91 449.657C130.186 449.963 130.393 450.329 130.531 450.755C130.675 451.181 130.747 451.652 130.747 452.168V458H129.964C129.79 458 129.658 457.973 129.568 457.919C129.478 457.859 129.406 457.751 129.352 457.595L129.163 456.794C128.929 457.01 128.698 457.202 128.47 457.37C128.242 457.532 128.002 457.673 127.75 457.793C127.504 457.907 127.24 457.994 126.958 458.054C126.676 458.114 126.364 458.144 126.022 458.144C125.662 458.144 125.323 458.096 125.005 458C124.693 457.898 124.42 457.745 124.186 457.541C123.952 457.337 123.766 457.082 123.628 456.776C123.496 456.47 123.43 456.113 123.43 455.705C123.43 455.345 123.526 455 123.718 454.67C123.916 454.334 124.234 454.034 124.672 453.77C125.116 453.506 125.692 453.29 126.4 453.122C127.114 452.954 127.99 452.858 129.028 452.834V452.168C129.028 451.478 128.881 450.962 128.587 450.62C128.293 450.278 127.861 450.107 127.291 450.107C126.907 450.107 126.583 450.155 126.319 450.251C126.061 450.347 125.836 450.455 125.644 450.575C125.458 450.689 125.293 450.794 125.149 450.89C125.011 450.986 124.867 451.034 124.717 451.034C124.597 451.034 124.492 451.001 124.402 450.935C124.318 450.869 124.249 450.791 124.195 450.701L123.88 450.134ZM134.752 450.611C135.046 450.011 135.4 449.54 135.814 449.198C136.228 448.856 136.726 448.685 137.308 448.685C137.506 448.685 137.692 448.709 137.866 448.757C138.046 448.799 138.202 448.865 138.334 448.955L138.217 450.278C138.175 450.44 138.076 450.521 137.92 450.521C137.836 450.521 137.71 450.506 137.542 450.476C137.374 450.44 137.194 450.422 137.002 450.422C136.72 450.422 136.471 450.464 136.255 450.548C136.039 450.626 135.844 450.746 135.67 450.908C135.502 451.064 135.352 451.259 135.22 451.493C135.088 451.721 134.965 451.982 134.851 452.276V458H133.096V448.856H134.104C134.296 448.856 134.425 448.892 134.491 448.964C134.563 449.03 134.614 449.15 134.644 449.324L134.752 450.611ZM145.411 452.411C145.411 452.063 145.36 451.742 145.258 451.448C145.162 451.154 145.018 450.899 144.826 450.683C144.634 450.467 144.4 450.299 144.124 450.179C143.848 450.059 143.53 449.999 143.17 449.999C142.432 449.999 141.85 450.212 141.424 450.638C141.004 451.064 140.737 451.655 140.623 452.411H145.411ZM146.86 456.695C146.644 456.947 146.395 457.166 146.113 457.352C145.831 457.532 145.531 457.679 145.213 457.793C144.895 457.907 144.565 457.991 144.223 458.045C143.887 458.099 143.554 458.126 143.224 458.126C142.594 458.126 142.009 458.021 141.469 457.811C140.935 457.595 140.47 457.283 140.074 456.875C139.684 456.461 139.378 455.951 139.156 455.345C138.94 454.733 138.832 454.031 138.832 453.239C138.832 452.603 138.931 452.012 139.129 451.466C139.327 450.914 139.609 450.434 139.975 450.026C140.347 449.618 140.8 449.297 141.334 449.063C141.868 448.829 142.468 448.712 143.134 448.712C143.692 448.712 144.205 448.805 144.673 448.991C145.147 449.171 145.555 449.435 145.897 449.783C146.239 450.131 146.506 450.56 146.698 451.07C146.896 451.58 146.995 452.162 146.995 452.816C146.995 453.086 146.965 453.269 146.905 453.365C146.845 453.455 146.734 453.5 146.572 453.5H140.578C140.596 454.046 140.674 454.523 140.812 454.931C140.95 455.333 141.139 455.669 141.379 455.939C141.625 456.209 141.916 456.41 142.252 456.542C142.588 456.674 142.963 456.74 143.377 456.74C143.767 456.74 144.103 456.695 144.385 456.605C144.673 456.515 144.919 456.419 145.123 456.317C145.333 456.209 145.507 456.11 145.645 456.02C145.789 455.93 145.915 455.885 146.023 455.885C146.167 455.885 146.278 455.939 146.356 456.047L146.86 456.695ZM160.969 448.856L155.893 460.655C155.839 460.787 155.767 460.889 155.677 460.961C155.587 461.033 155.455 461.069 155.281 461.069H153.976L155.65 457.424L151.897 448.856H153.427C153.577 448.856 153.694 448.892 153.778 448.964C153.862 449.036 153.922 449.117 153.958 449.207L156.28 454.697C156.328 454.835 156.373 454.976 156.415 455.12C156.463 455.258 156.502 455.396 156.532 455.534C156.574 455.39 156.619 455.249 156.667 455.111C156.715 454.967 156.766 454.826 156.82 454.688L159.061 449.207C159.103 449.105 159.169 449.021 159.259 448.955C159.349 448.889 159.451 448.856 159.565 448.856H160.969ZM165.944 448.712C166.616 448.712 167.222 448.823 167.762 449.045C168.308 449.261 168.77 449.576 169.148 449.99C169.532 450.398 169.826 450.893 170.03 451.475C170.234 452.051 170.336 452.699 170.336 453.419C170.336 454.139 170.234 454.79 170.03 455.372C169.826 455.954 169.532 456.449 169.148 456.857C168.77 457.265 168.308 457.58 167.762 457.802C167.222 458.018 166.616 458.126 165.944 458.126C165.266 458.126 164.654 458.018 164.108 457.802C163.568 457.58 163.106 457.265 162.722 456.857C162.338 456.449 162.041 455.954 161.831 455.372C161.627 454.79 161.525 454.139 161.525 453.419C161.525 452.699 161.627 452.051 161.831 451.475C162.041 450.893 162.338 450.398 162.722 449.99C163.106 449.576 163.568 449.261 164.108 449.045C164.654 448.823 165.266 448.712 165.944 448.712ZM165.944 456.758C166.808 456.758 167.453 456.467 167.879 455.885C168.305 455.303 168.518 454.484 168.518 453.428C168.518 452.372 168.305 451.553 167.879 450.971C167.453 450.383 166.808 450.089 165.944 450.089C165.068 450.089 164.414 450.383 163.982 450.971C163.556 451.553 163.343 452.372 163.343 453.428C163.343 454.484 163.556 455.303 163.982 455.885C164.414 456.467 165.068 456.758 165.944 456.758ZM179.901 448.856V458H178.848C178.608 458 178.452 457.883 178.38 457.649L178.254 456.731C178.056 456.941 177.849 457.133 177.633 457.307C177.417 457.481 177.186 457.631 176.94 457.757C176.694 457.877 176.433 457.97 176.157 458.036C175.881 458.108 175.584 458.144 175.266 458.144C174.762 458.144 174.318 458.06 173.934 457.892C173.556 457.724 173.238 457.49 172.98 457.19C172.722 456.884 172.527 456.518 172.395 456.092C172.263 455.666 172.197 455.195 172.197 454.679V448.856H173.961V454.679C173.961 455.333 174.111 455.843 174.411 456.209C174.711 456.569 175.17 456.749 175.788 456.749C176.238 456.749 176.658 456.644 177.048 456.434C177.438 456.218 177.804 455.924 178.146 455.552V448.856H179.901ZM184.006 450.611C184.3 450.011 184.654 449.54 185.068 449.198C185.482 448.856 185.98 448.685 186.562 448.685C186.76 448.685 186.946 448.709 187.12 448.757C187.3 448.799 187.456 448.865 187.588 448.955L187.471 450.278C187.429 450.44 187.33 450.521 187.174 450.521C187.09 450.521 186.964 450.506 186.796 450.476C186.628 450.44 186.448 450.422 186.256 450.422C185.974 450.422 185.725 450.464 185.509 450.548C185.293 450.626 185.098 450.746 184.924 450.908C184.756 451.064 184.606 451.259 184.474 451.493C184.342 451.721 184.219 451.982 184.105 452.276V458H182.35V448.856H183.358C183.55 448.856 183.679 448.892 183.745 448.964C183.817 449.03 183.868 449.15 183.898 449.324L184.006 450.611ZM195.97 458.144C195.232 458.144 194.662 457.937 194.26 457.523C193.864 457.109 193.666 456.518 193.666 455.75V450.278H192.604C192.502 450.278 192.415 450.248 192.343 450.188C192.277 450.122 192.244 450.026 192.244 449.9V449.189L193.729 448.982L194.125 446.255C194.149 446.153 194.194 446.075 194.26 446.021C194.332 445.961 194.422 445.931 194.53 445.931H195.421V449H198.013V450.278H195.421V455.633C195.421 455.993 195.508 456.263 195.682 456.443C195.862 456.617 196.09 456.704 196.366 456.704C196.528 456.704 196.666 456.683 196.78 456.641C196.9 456.599 197.002 456.554 197.086 456.506C197.17 456.452 197.242 456.404 197.302 456.362C197.362 456.32 197.416 456.299 197.464 456.299C197.524 456.299 197.569 456.314 197.599 456.344C197.635 456.368 197.671 456.41 197.707 456.47L198.229 457.316C197.941 457.58 197.599 457.784 197.203 457.928C196.807 458.072 196.396 458.144 195.97 458.144ZM201.384 450.017C201.768 449.627 202.191 449.312 202.653 449.072C203.121 448.832 203.658 448.712 204.264 448.712C204.768 448.712 205.209 448.796 205.587 448.964C205.971 449.132 206.292 449.369 206.55 449.675C206.808 449.975 207.003 450.338 207.135 450.764C207.267 451.19 207.333 451.661 207.333 452.177V458H205.569V452.177C205.569 451.523 205.419 451.016 205.119 450.656C204.819 450.29 204.36 450.107 203.742 450.107C203.292 450.107 202.869 450.215 202.473 450.431C202.083 450.641 201.72 450.929 201.384 451.295V458H199.629V444.716H201.384V450.017ZM213.599 448.712C214.271 448.712 214.877 448.823 215.417 449.045C215.963 449.261 216.425 449.576 216.803 449.99C217.187 450.398 217.481 450.893 217.685 451.475C217.889 452.051 217.991 452.699 217.991 453.419C217.991 454.139 217.889 454.79 217.685 455.372C217.481 455.954 217.187 456.449 216.803 456.857C216.425 457.265 215.963 457.58 215.417 457.802C214.877 458.018 214.271 458.126 213.599 458.126C212.921 458.126 212.309 458.018 211.763 457.802C211.223 457.58 210.761 457.265 210.377 456.857C209.993 456.449 209.696 455.954 209.486 455.372C209.282 454.79 209.18 454.139 209.18 453.419C209.18 452.699 209.282 452.051 209.486 451.475C209.696 450.893 209.993 450.398 210.377 449.99C210.761 449.576 211.223 449.261 211.763 449.045C212.309 448.823 212.921 448.712 213.599 448.712ZM213.599 456.758C214.463 456.758 215.108 456.467 215.534 455.885C215.96 455.303 216.173 454.484 216.173 453.428C216.173 452.372 215.96 451.553 215.534 450.971C215.108 450.383 214.463 450.089 213.599 450.089C212.723 450.089 212.069 450.383 211.637 450.971C211.211 451.553 210.998 452.372 210.998 453.428C210.998 454.484 211.211 455.303 211.637 455.885C212.069 456.467 212.723 456.758 213.599 456.758ZM227.555 448.856V458H226.502C226.262 458 226.106 457.883 226.034 457.649L225.908 456.731C225.71 456.941 225.503 457.133 225.287 457.307C225.071 457.481 224.84 457.631 224.594 457.757C224.348 457.877 224.087 457.97 223.811 458.036C223.535 458.108 223.238 458.144 222.92 458.144C222.416 458.144 221.972 458.06 221.588 457.892C221.21 457.724 220.892 457.49 220.634 457.19C220.376 456.884 220.181 456.518 220.049 456.092C219.917 455.666 219.851 455.195 219.851 454.679V448.856H221.615V454.679C221.615 455.333 221.765 455.843 222.065 456.209C222.365 456.569 222.824 456.749 223.442 456.749C223.892 456.749 224.312 456.644 224.702 456.434C225.092 456.218 225.458 455.924 225.8 455.552V448.856H227.555ZM233.217 453.437C233.529 453.437 233.802 453.395 234.036 453.311C234.276 453.227 234.474 453.11 234.63 452.96C234.792 452.804 234.912 452.618 234.99 452.402C235.074 452.186 235.116 451.949 235.116 451.691C235.116 451.163 234.954 450.743 234.63 450.431C234.312 450.113 233.841 449.954 233.217 449.954C232.599 449.954 232.128 450.113 231.804 450.431C231.486 450.743 231.327 451.163 231.327 451.691C231.327 451.949 231.366 452.186 231.444 452.402C231.528 452.612 231.648 452.795 231.804 452.951C231.966 453.101 232.164 453.221 232.398 453.311C232.638 453.395 232.911 453.437 233.217 453.437ZM236.016 458.477C236.016 458.261 235.956 458.09 235.836 457.964C235.716 457.832 235.551 457.73 235.341 457.658C235.137 457.58 234.897 457.526 234.621 457.496C234.345 457.46 234.054 457.433 233.748 457.415C233.448 457.397 233.139 457.382 232.821 457.37C232.503 457.352 232.197 457.322 231.903 457.28C231.591 457.436 231.333 457.625 231.129 457.847C230.931 458.069 230.832 458.33 230.832 458.63C230.832 458.822 230.88 459.002 230.976 459.17C231.078 459.338 231.231 459.482 231.435 459.602C231.645 459.728 231.906 459.824 232.218 459.89C232.536 459.962 232.914 459.998 233.352 459.998C233.784 459.998 234.165 459.959 234.495 459.881C234.825 459.809 235.101 459.704 235.323 459.566C235.551 459.434 235.722 459.275 235.836 459.089C235.956 458.903 236.016 458.699 236.016 458.477ZM237.798 449.198V449.855C237.798 450.071 237.663 450.206 237.393 450.26L236.412 450.404C236.496 450.59 236.562 450.788 236.61 450.998C236.658 451.202 236.682 451.418 236.682 451.646C236.682 452.096 236.595 452.504 236.421 452.87C236.247 453.23 236.007 453.539 235.701 453.797C235.395 454.055 235.029 454.253 234.603 454.391C234.183 454.529 233.721 454.598 233.217 454.598C232.803 454.598 232.416 454.553 232.056 454.463C231.876 454.571 231.738 454.691 231.642 454.823C231.552 454.949 231.507 455.075 231.507 455.201C231.507 455.411 231.594 455.567 231.768 455.669C231.948 455.771 232.179 455.846 232.461 455.894C232.749 455.936 233.076 455.963 233.442 455.975C233.814 455.987 234.189 456.008 234.567 456.038C234.951 456.062 235.326 456.11 235.692 456.182C236.064 456.248 236.391 456.359 236.673 456.515C236.961 456.665 237.192 456.875 237.366 457.145C237.546 457.409 237.636 457.754 237.636 458.18C237.636 458.576 237.537 458.96 237.339 459.332C237.147 459.704 236.865 460.034 236.493 460.322C236.121 460.61 235.668 460.841 235.134 461.015C234.6 461.189 233.994 461.276 233.316 461.276C232.638 461.276 232.047 461.21 231.543 461.078C231.045 460.946 230.628 460.769 230.292 460.547C229.962 460.325 229.713 460.067 229.545 459.773C229.383 459.479 229.302 459.173 229.302 458.855C229.302 458.411 229.44 458.036 229.716 457.73C229.992 457.418 230.373 457.175 230.859 457.001C230.595 456.881 230.385 456.719 230.229 456.515C230.073 456.305 229.995 456.029 229.995 455.687C229.995 455.555 230.019 455.42 230.067 455.282C230.115 455.138 230.187 454.997 230.283 454.859C230.385 454.715 230.508 454.58 230.652 454.454C230.802 454.328 230.973 454.214 231.165 454.112C230.715 453.86 230.361 453.527 230.103 453.113C229.845 452.693 229.716 452.204 229.716 451.646C229.716 451.196 229.803 450.791 229.977 450.431C230.151 450.071 230.391 449.762 230.697 449.504C231.009 449.246 231.378 449.048 231.804 448.91C232.236 448.772 232.707 448.703 233.217 448.703C234.009 448.703 234.69 448.868 235.26 449.198H237.798ZM241.164 450.017C241.548 449.627 241.971 449.312 242.433 449.072C242.901 448.832 243.438 448.712 244.044 448.712C244.548 448.712 244.989 448.796 245.367 448.964C245.751 449.132 246.072 449.369 246.33 449.675C246.588 449.975 246.783 450.338 246.915 450.764C247.047 451.19 247.113 451.661 247.113 452.177V458H245.349V452.177C245.349 451.523 245.199 451.016 244.899 450.656C244.599 450.29 244.14 450.107 243.522 450.107C243.072 450.107 242.649 450.215 242.253 450.431C241.863 450.641 241.5 450.929 241.164 451.295V458H239.409V444.716H241.164V450.017ZM252.22 458.144C251.482 458.144 250.912 457.937 250.51 457.523C250.114 457.109 249.916 456.518 249.916 455.75V450.278H248.854C248.752 450.278 248.665 450.248 248.593 450.188C248.527 450.122 248.494 450.026 248.494 449.9V449.189L249.979 448.982L250.375 446.255C250.399 446.153 250.444 446.075 250.51 446.021C250.582 445.961 250.672 445.931 250.78 445.931H251.671V449H254.263V450.278H251.671V455.633C251.671 455.993 251.758 456.263 251.932 456.443C252.112 456.617 252.34 456.704 252.616 456.704C252.778 456.704 252.916 456.683 253.03 456.641C253.15 456.599 253.252 456.554 253.336 456.506C253.42 456.452 253.492 456.404 253.552 456.362C253.612 456.32 253.666 456.299 253.714 456.299C253.774 456.299 253.819 456.314 253.849 456.344C253.885 456.368 253.921 456.41 253.957 456.47L254.479 457.316C254.191 457.58 253.849 457.784 253.453 457.928C253.057 458.072 252.646 458.144 252.22 458.144ZM261.27 450.431C261.222 450.509 261.171 450.566 261.117 450.602C261.063 450.632 260.994 450.647 260.91 450.647C260.814 450.647 260.706 450.614 260.586 450.548C260.472 450.482 260.331 450.41 260.163 450.332C260.001 450.254 259.809 450.182 259.587 450.116C259.365 450.05 259.101 450.017 258.795 450.017C258.543 450.017 258.312 450.05 258.102 450.116C257.898 450.176 257.724 450.263 257.58 450.377C257.436 450.485 257.325 450.617 257.247 450.773C257.169 450.923 257.13 451.085 257.13 451.259C257.13 451.487 257.196 451.676 257.328 451.826C257.466 451.976 257.643 452.105 257.859 452.213C258.081 452.321 258.33 452.42 258.606 452.51C258.888 452.594 259.173 452.684 259.461 452.78C259.755 452.876 260.04 452.987 260.316 453.113C260.598 453.233 260.847 453.386 261.063 453.572C261.285 453.752 261.462 453.971 261.594 454.229C261.732 454.487 261.801 454.802 261.801 455.174C261.801 455.6 261.723 455.996 261.567 456.362C261.417 456.722 261.192 457.034 260.892 457.298C260.598 457.562 260.232 457.769 259.794 457.919C259.356 458.069 258.855 458.144 258.291 458.144C257.661 458.144 257.079 458.039 256.545 457.829C256.011 457.619 255.564 457.352 255.204 457.028L255.618 456.353C255.666 456.269 255.726 456.206 255.798 456.164C255.87 456.116 255.966 456.092 256.086 456.092C256.2 456.092 256.317 456.134 256.437 456.218C256.557 456.302 256.701 456.395 256.869 456.497C257.037 456.593 257.241 456.683 257.481 456.767C257.721 456.845 258.021 456.884 258.381 456.884C258.681 456.884 258.942 456.848 259.164 456.776C259.386 456.698 259.569 456.596 259.713 456.47C259.863 456.338 259.974 456.188 260.046 456.02C260.118 455.852 260.154 455.675 260.154 455.489C260.154 455.249 260.085 455.051 259.947 454.895C259.815 454.733 259.638 454.595 259.416 454.481C259.2 454.367 258.951 454.268 258.669 454.184C258.387 454.1 258.099 454.01 257.805 453.914C257.511 453.818 257.223 453.707 256.941 453.581C256.659 453.455 256.407 453.296 256.185 453.104C255.969 452.912 255.792 452.678 255.654 452.402C255.522 452.126 255.456 451.79 255.456 451.394C255.456 451.04 255.528 450.701 255.672 450.377C255.822 450.053 256.035 449.768 256.311 449.522C256.593 449.276 256.938 449.081 257.346 448.937C257.76 448.787 258.231 448.712 258.759 448.712C259.365 448.712 259.911 448.808 260.397 449C260.889 449.192 261.309 449.456 261.657 449.792L261.27 450.431ZM271.116 458.144C270.378 458.144 269.808 457.937 269.406 457.523C269.01 457.109 268.812 456.518 268.812 455.75V450.278H267.75C267.648 450.278 267.561 450.248 267.489 450.188C267.423 450.122 267.39 450.026 267.39 449.9V449.189L268.875 448.982L269.271 446.255C269.295 446.153 269.34 446.075 269.406 446.021C269.478 445.961 269.568 445.931 269.676 445.931H270.567V449H273.159V450.278H270.567V455.633C270.567 455.993 270.654 456.263 270.828 456.443C271.008 456.617 271.236 456.704 271.512 456.704C271.674 456.704 271.812 456.683 271.926 456.641C272.046 456.599 272.148 456.554 272.232 456.506C272.316 456.452 272.388 456.404 272.448 456.362C272.508 456.32 272.562 456.299 272.61 456.299C272.67 456.299 272.715 456.314 272.745 456.344C272.781 456.368 272.817 456.41 272.853 456.47L273.375 457.316C273.087 457.58 272.745 457.784 272.349 457.928C271.953 458.072 271.542 458.144 271.116 458.144ZM278.62 448.712C279.292 448.712 279.898 448.823 280.438 449.045C280.984 449.261 281.446 449.576 281.824 449.99C282.208 450.398 282.502 450.893 282.706 451.475C282.91 452.051 283.012 452.699 283.012 453.419C283.012 454.139 282.91 454.79 282.706 455.372C282.502 455.954 282.208 456.449 281.824 456.857C281.446 457.265 280.984 457.58 280.438 457.802C279.898 458.018 279.292 458.126 278.62 458.126C277.942 458.126 277.33 458.018 276.784 457.802C276.244 457.58 275.782 457.265 275.398 456.857C275.014 456.449 274.717 455.954 274.507 455.372C274.303 454.79 274.201 454.139 274.201 453.419C274.201 452.699 274.303 452.051 274.507 451.475C274.717 450.893 275.014 450.398 275.398 449.99C275.782 449.576 276.244 449.261 276.784 449.045C277.33 448.823 277.942 448.712 278.62 448.712ZM278.62 456.758C279.484 456.758 280.129 456.467 280.555 455.885C280.981 455.303 281.194 454.484 281.194 453.428C281.194 452.372 280.981 451.553 280.555 450.971C280.129 450.383 279.484 450.089 278.62 450.089C277.744 450.089 277.09 450.383 276.658 450.971C276.232 451.553 276.019 452.372 276.019 453.428C276.019 454.484 276.232 455.303 276.658 455.885C277.09 456.467 277.744 456.758 278.62 456.758ZM291.279 450.017C291.663 449.627 292.086 449.312 292.548 449.072C293.016 448.832 293.553 448.712 294.159 448.712C294.663 448.712 295.104 448.796 295.482 448.964C295.866 449.132 296.187 449.369 296.445 449.675C296.703 449.975 296.898 450.338 297.03 450.764C297.162 451.19 297.228 451.661 297.228 452.177V458H295.464V452.177C295.464 451.523 295.314 451.016 295.014 450.656C294.714 450.29 294.255 450.107 293.637 450.107C293.187 450.107 292.764 450.215 292.368 450.431C291.978 450.641 291.615 450.929 291.279 451.295V458H289.524V444.716H291.279V450.017ZM305.653 452.411C305.653 452.063 305.602 451.742 305.5 451.448C305.404 451.154 305.26 450.899 305.068 450.683C304.876 450.467 304.642 450.299 304.366 450.179C304.09 450.059 303.772 449.999 303.412 449.999C302.674 449.999 302.092 450.212 301.666 450.638C301.246 451.064 300.979 451.655 300.865 452.411H305.653ZM307.102 456.695C306.886 456.947 306.637 457.166 306.355 457.352C306.073 457.532 305.773 457.679 305.455 457.793C305.137 457.907 304.807 457.991 304.465 458.045C304.129 458.099 303.796 458.126 303.466 458.126C302.836 458.126 302.251 458.021 301.711 457.811C301.177 457.595 300.712 457.283 300.316 456.875C299.926 456.461 299.62 455.951 299.398 455.345C299.182 454.733 299.074 454.031 299.074 453.239C299.074 452.603 299.173 452.012 299.371 451.466C299.569 450.914 299.851 450.434 300.217 450.026C300.589 449.618 301.042 449.297 301.576 449.063C302.11 448.829 302.71 448.712 303.376 448.712C303.934 448.712 304.447 448.805 304.915 448.991C305.389 449.171 305.797 449.435 306.139 449.783C306.481 450.131 306.748 450.56 306.94 451.07C307.138 451.58 307.237 452.162 307.237 452.816C307.237 453.086 307.207 453.269 307.147 453.365C307.087 453.455 306.976 453.5 306.814 453.5H300.82C300.838 454.046 300.916 454.523 301.054 454.931C301.192 455.333 301.381 455.669 301.621 455.939C301.867 456.209 302.158 456.41 302.494 456.542C302.83 456.674 303.205 456.74 303.619 456.74C304.009 456.74 304.345 456.695 304.627 456.605C304.915 456.515 305.161 456.419 305.365 456.317C305.575 456.209 305.749 456.11 305.887 456.02C306.031 455.93 306.157 455.885 306.265 455.885C306.409 455.885 306.52 455.939 306.598 456.047L307.102 456.695ZM310.924 444.716V458H309.16V444.716H310.924ZM315.185 455.75C315.473 456.128 315.782 456.392 316.112 456.542C316.448 456.692 316.823 456.767 317.237 456.767C318.041 456.767 318.662 456.479 319.1 455.903C319.544 455.321 319.766 454.475 319.766 453.365C319.766 452.783 319.715 452.288 319.613 451.88C319.517 451.466 319.373 451.13 319.181 450.872C318.995 450.608 318.764 450.416 318.488 450.296C318.212 450.17 317.9 450.107 317.552 450.107C317.042 450.107 316.598 450.221 316.22 450.449C315.848 450.677 315.503 451.001 315.185 451.421V455.75ZM315.095 450.224C315.287 449.996 315.491 449.789 315.707 449.603C315.929 449.411 316.166 449.249 316.418 449.117C316.67 448.979 316.937 448.874 317.219 448.802C317.507 448.724 317.813 448.685 318.137 448.685C318.659 448.685 319.13 448.787 319.55 448.991C319.976 449.195 320.339 449.495 320.639 449.891C320.939 450.287 321.17 450.776 321.332 451.358C321.5 451.94 321.584 452.609 321.584 453.365C321.584 454.043 321.491 454.673 321.305 455.255C321.125 455.831 320.864 456.332 320.522 456.758C320.186 457.184 319.772 457.52 319.28 457.766C318.794 458.006 318.245 458.126 317.633 458.126C317.087 458.126 316.619 458.036 316.229 457.856C315.839 457.676 315.491 457.424 315.185 457.1V461.069H313.43V448.856H314.483C314.729 448.856 314.882 448.973 314.942 449.207L315.095 450.224ZM335.713 448.856V458H334.66C334.42 458 334.264 457.883 334.192 457.649L334.066 456.731C333.868 456.941 333.661 457.133 333.445 457.307C333.229 457.481 332.998 457.631 332.752 457.757C332.506 457.877 332.245 457.97 331.969 458.036C331.693 458.108 331.396 458.144 331.078 458.144C330.574 458.144 330.13 458.06 329.746 457.892C329.368 457.724 329.05 457.49 328.792 457.19C328.534 456.884 328.339 456.518 328.207 456.092C328.075 455.666 328.009 455.195 328.009 454.679V448.856H329.773V454.679C329.773 455.333 329.923 455.843 330.223 456.209C330.523 456.569 330.982 456.749 331.6 456.749C332.05 456.749 332.47 456.644 332.86 456.434C333.25 456.218 333.616 455.924 333.958 455.552V448.856H335.713ZM343.554 450.431C343.506 450.509 343.455 450.566 343.401 450.602C343.347 450.632 343.278 450.647 343.194 450.647C343.098 450.647 342.99 450.614 342.87 450.548C342.756 450.482 342.615 450.41 342.447 450.332C342.285 450.254 342.093 450.182 341.871 450.116C341.649 450.05 341.385 450.017 341.079 450.017C340.827 450.017 340.596 450.05 340.386 450.116C340.182 450.176 340.008 450.263 339.864 450.377C339.72 450.485 339.609 450.617 339.531 450.773C339.453 450.923 339.414 451.085 339.414 451.259C339.414 451.487 339.48 451.676 339.612 451.826C339.75 451.976 339.927 452.105 340.143 452.213C340.365 452.321 340.614 452.42 340.89 452.51C341.172 452.594 341.457 452.684 341.745 452.78C342.039 452.876 342.324 452.987 342.6 453.113C342.882 453.233 343.131 453.386 343.347 453.572C343.569 453.752 343.746 453.971 343.878 454.229C344.016 454.487 344.085 454.802 344.085 455.174C344.085 455.6 344.007 455.996 343.851 456.362C343.701 456.722 343.476 457.034 343.176 457.298C342.882 457.562 342.516 457.769 342.078 457.919C341.64 458.069 341.139 458.144 340.575 458.144C339.945 458.144 339.363 458.039 338.829 457.829C338.295 457.619 337.848 457.352 337.488 457.028L337.902 456.353C337.95 456.269 338.01 456.206 338.082 456.164C338.154 456.116 338.25 456.092 338.37 456.092C338.484 456.092 338.601 456.134 338.721 456.218C338.841 456.302 338.985 456.395 339.153 456.497C339.321 456.593 339.525 456.683 339.765 456.767C340.005 456.845 340.305 456.884 340.665 456.884C340.965 456.884 341.226 456.848 341.448 456.776C341.67 456.698 341.853 456.596 341.997 456.47C342.147 456.338 342.258 456.188 342.33 456.02C342.402 455.852 342.438 455.675 342.438 455.489C342.438 455.249 342.369 455.051 342.231 454.895C342.099 454.733 341.922 454.595 341.7 454.481C341.484 454.367 341.235 454.268 340.953 454.184C340.671 454.1 340.383 454.01 340.089 453.914C339.795 453.818 339.507 453.707 339.225 453.581C338.943 453.455 338.691 453.296 338.469 453.104C338.253 452.912 338.076 452.678 337.938 452.402C337.806 452.126 337.74 451.79 337.74 451.394C337.74 451.04 337.812 450.701 337.956 450.377C338.106 450.053 338.319 449.768 338.595 449.522C338.877 449.276 339.222 449.081 339.63 448.937C340.044 448.787 340.515 448.712 341.043 448.712C341.649 448.712 342.195 448.808 342.681 449C343.173 449.192 343.593 449.456 343.941 449.792L343.554 450.431ZM352.374 448.856V458H350.619V448.856H352.374ZM352.707 446.03C352.707 446.192 352.674 446.348 352.608 446.498C352.542 446.642 352.452 446.771 352.338 446.885C352.23 446.993 352.101 447.08 351.951 447.146C351.801 447.206 351.645 447.236 351.483 447.236C351.321 447.236 351.168 447.206 351.024 447.146C350.88 447.08 350.751 446.993 350.637 446.885C350.529 446.771 350.442 446.642 350.376 446.498C350.316 446.348 350.286 446.192 350.286 446.03C350.286 445.862 350.316 445.706 350.376 445.562C350.442 445.412 350.529 445.283 350.637 445.175C350.751 445.061 350.88 444.974 351.024 444.914C351.168 444.848 351.321 444.815 351.483 444.815C351.645 444.815 351.801 444.848 351.951 444.914C352.101 444.974 352.23 445.061 352.338 445.175C352.452 445.283 352.542 445.412 352.608 445.562C352.674 445.706 352.707 445.862 352.707 446.03ZM354.915 458V448.856H355.968C356.214 448.856 356.367 448.973 356.427 449.207L356.553 450.08C356.889 449.678 357.261 449.351 357.669 449.099C358.083 448.841 358.566 448.712 359.118 448.712C359.724 448.712 360.216 448.88 360.594 449.216C360.972 449.546 361.248 449.996 361.422 450.566C361.554 450.242 361.725 449.963 361.935 449.729C362.145 449.495 362.379 449.303 362.637 449.153C362.895 449.003 363.168 448.892 363.456 448.82C363.75 448.748 364.047 448.712 364.347 448.712C364.833 448.712 365.265 448.79 365.643 448.946C366.027 449.096 366.351 449.318 366.615 449.612C366.879 449.906 367.08 450.269 367.218 450.701C367.356 451.133 367.425 451.625 367.425 452.177V458H365.661V452.177C365.661 451.493 365.511 450.977 365.211 450.629C364.917 450.281 364.485 450.107 363.915 450.107C363.663 450.107 363.423 450.152 363.195 450.242C362.967 450.326 362.766 450.455 362.592 450.629C362.424 450.803 362.289 451.019 362.187 451.277C362.091 451.535 362.043 451.835 362.043 452.177V458H360.279V452.177C360.279 451.469 360.138 450.947 359.856 450.611C359.574 450.275 359.16 450.107 358.614 450.107C358.236 450.107 357.885 450.206 357.561 450.404C357.237 450.602 356.94 450.872 356.67 451.214V458H354.915ZM371.541 455.75C371.829 456.128 372.138 456.392 372.468 456.542C372.804 456.692 373.179 456.767 373.593 456.767C374.397 456.767 375.018 456.479 375.456 455.903C375.9 455.321 376.122 454.475 376.122 453.365C376.122 452.783 376.071 452.288 375.969 451.88C375.873 451.466 375.729 451.13 375.537 450.872C375.351 450.608 375.12 450.416 374.844 450.296C374.568 450.17 374.256 450.107 373.908 450.107C373.398 450.107 372.954 450.221 372.576 450.449C372.204 450.677 371.859 451.001 371.541 451.421V455.75ZM371.451 450.224C371.643 449.996 371.847 449.789 372.063 449.603C372.285 449.411 372.522 449.249 372.774 449.117C373.026 448.979 373.293 448.874 373.575 448.802C373.863 448.724 374.169 448.685 374.493 448.685C375.015 448.685 375.486 448.787 375.906 448.991C376.332 449.195 376.695 449.495 376.995 449.891C377.295 450.287 377.526 450.776 377.688 451.358C377.856 451.94 377.94 452.609 377.94 453.365C377.94 454.043 377.847 454.673 377.661 455.255C377.481 455.831 377.22 456.332 376.878 456.758C376.542 457.184 376.128 457.52 375.636 457.766C375.15 458.006 374.601 458.126 373.989 458.126C373.443 458.126 372.975 458.036 372.585 457.856C372.195 457.676 371.847 457.424 371.541 457.1V461.069H369.786V448.856H370.839C371.085 448.856 371.238 448.973 371.298 449.207L371.451 450.224ZM381.567 450.611C381.861 450.011 382.215 449.54 382.629 449.198C383.043 448.856 383.541 448.685 384.123 448.685C384.321 448.685 384.507 448.709 384.681 448.757C384.861 448.799 385.017 448.865 385.149 448.955L385.032 450.278C384.99 450.44 384.891 450.521 384.735 450.521C384.651 450.521 384.525 450.506 384.357 450.476C384.189 450.44 384.009 450.422 383.817 450.422C383.535 450.422 383.286 450.464 383.07 450.548C382.854 450.626 382.659 450.746 382.485 450.908C382.317 451.064 382.167 451.259 382.035 451.493C381.903 451.721 381.78 451.982 381.666 452.276V458H379.911V448.856H380.919C381.111 448.856 381.24 448.892 381.306 448.964C381.378 449.03 381.429 449.15 381.459 449.324L381.567 450.611ZM390.066 448.712C390.738 448.712 391.344 448.823 391.884 449.045C392.43 449.261 392.892 449.576 393.27 449.99C393.654 450.398 393.948 450.893 394.152 451.475C394.356 452.051 394.458 452.699 394.458 453.419C394.458 454.139 394.356 454.79 394.152 455.372C393.948 455.954 393.654 456.449 393.27 456.857C392.892 457.265 392.43 457.58 391.884 457.802C391.344 458.018 390.738 458.126 390.066 458.126C389.388 458.126 388.776 458.018 388.23 457.802C387.69 457.58 387.228 457.265 386.844 456.857C386.46 456.449 386.163 455.954 385.953 455.372C385.749 454.79 385.647 454.139 385.647 453.419C385.647 452.699 385.749 452.051 385.953 451.475C386.163 450.893 386.46 450.398 386.844 449.99C387.228 449.576 387.69 449.261 388.23 449.045C388.776 448.823 389.388 448.712 390.066 448.712ZM390.066 456.758C390.93 456.758 391.575 456.467 392.001 455.885C392.427 455.303 392.64 454.484 392.64 453.428C392.64 452.372 392.427 451.553 392.001 450.971C391.575 450.383 390.93 450.089 390.066 450.089C389.19 450.089 388.536 450.383 388.104 450.971C387.678 451.553 387.465 452.372 387.465 453.428C387.465 454.484 387.678 455.303 388.104 455.885C388.536 456.467 389.19 456.758 390.066 456.758ZM404.091 448.856L400.383 458H398.799L395.091 448.856H396.54C396.678 448.856 396.792 448.889 396.882 448.955C396.972 449.021 397.032 449.105 397.062 449.207L399.249 454.823C399.327 455.057 399.393 455.291 399.447 455.525C399.507 455.753 399.561 455.981 399.609 456.209C399.657 455.981 399.711 455.753 399.771 455.525C399.831 455.297 399.903 455.063 399.987 454.823L402.201 449.207C402.237 449.105 402.3 449.021 402.39 448.955C402.48 448.889 402.588 448.856 402.714 448.856H404.091ZM411.28 452.411C411.28 452.063 411.229 451.742 411.127 451.448C411.031 451.154 410.887 450.899 410.695 450.683C410.503 450.467 410.269 450.299 409.993 450.179C409.717 450.059 409.399 449.999 409.039 449.999C408.301 449.999 407.719 450.212 407.293 450.638C406.873 451.064 406.606 451.655 406.492 452.411H411.28ZM412.729 456.695C412.513 456.947 412.264 457.166 411.982 457.352C411.7 457.532 411.4 457.679 411.082 457.793C410.764 457.907 410.434 457.991 410.092 458.045C409.756 458.099 409.423 458.126 409.093 458.126C408.463 458.126 407.878 458.021 407.338 457.811C406.804 457.595 406.339 457.283 405.943 456.875C405.553 456.461 405.247 455.951 405.025 455.345C404.809 454.733 404.701 454.031 404.701 453.239C404.701 452.603 404.8 452.012 404.998 451.466C405.196 450.914 405.478 450.434 405.844 450.026C406.216 449.618 406.669 449.297 407.203 449.063C407.737 448.829 408.337 448.712 409.003 448.712C409.561 448.712 410.074 448.805 410.542 448.991C411.016 449.171 411.424 449.435 411.766 449.783C412.108 450.131 412.375 450.56 412.567 451.07C412.765 451.58 412.864 452.162 412.864 452.816C412.864 453.086 412.834 453.269 412.774 453.365C412.714 453.455 412.603 453.5 412.441 453.5H406.447C406.465 454.046 406.543 454.523 406.681 454.931C406.819 455.333 407.008 455.669 407.248 455.939C407.494 456.209 407.785 456.41 408.121 456.542C408.457 456.674 408.832 456.74 409.246 456.74C409.636 456.74 409.972 456.695 410.254 456.605C410.542 456.515 410.788 456.419 410.992 456.317C411.202 456.209 411.376 456.11 411.514 456.02C411.658 455.93 411.784 455.885 411.892 455.885C412.036 455.885 412.147 455.939 412.225 456.047L412.729 456.695ZM423.2 448.712C423.872 448.712 424.478 448.823 425.018 449.045C425.564 449.261 426.026 449.576 426.404 449.99C426.788 450.398 427.082 450.893 427.286 451.475C427.49 452.051 427.592 452.699 427.592 453.419C427.592 454.139 427.49 454.79 427.286 455.372C427.082 455.954 426.788 456.449 426.404 456.857C426.026 457.265 425.564 457.58 425.018 457.802C424.478 458.018 423.872 458.126 423.2 458.126C422.522 458.126 421.91 458.018 421.364 457.802C420.824 457.58 420.362 457.265 419.978 456.857C419.594 456.449 419.297 455.954 419.087 455.372C418.883 454.79 418.781 454.139 418.781 453.419C418.781 452.699 418.883 452.051 419.087 451.475C419.297 450.893 419.594 450.398 419.978 449.99C420.362 449.576 420.824 449.261 421.364 449.045C421.91 448.823 422.522 448.712 423.2 448.712ZM423.2 456.758C424.064 456.758 424.709 456.467 425.135 455.885C425.561 455.303 425.774 454.484 425.774 453.428C425.774 452.372 425.561 451.553 425.135 450.971C424.709 450.383 424.064 450.089 423.2 450.089C422.324 450.089 421.67 450.383 421.238 450.971C420.812 451.553 420.599 452.372 420.599 453.428C420.599 454.484 420.812 455.303 421.238 455.885C421.67 456.467 422.324 456.758 423.2 456.758ZM437.156 448.856V458H436.103C435.863 458 435.707 457.883 435.635 457.649L435.509 456.731C435.311 456.941 435.104 457.133 434.888 457.307C434.672 457.481 434.441 457.631 434.195 457.757C433.949 457.877 433.688 457.97 433.412 458.036C433.136 458.108 432.839 458.144 432.521 458.144C432.017 458.144 431.573 458.06 431.189 457.892C430.811 457.724 430.493 457.49 430.235 457.19C429.977 456.884 429.782 456.518 429.65 456.092C429.518 455.666 429.452 455.195 429.452 454.679V448.856H431.216V454.679C431.216 455.333 431.366 455.843 431.666 456.209C431.966 456.569 432.425 456.749 433.043 456.749C433.493 456.749 433.913 456.644 434.303 456.434C434.693 456.218 435.059 455.924 435.401 455.552V448.856H437.156ZM441.262 450.611C441.556 450.011 441.91 449.54 442.324 449.198C442.738 448.856 443.236 448.685 443.818 448.685C444.016 448.685 444.202 448.709 444.376 448.757C444.556 448.799 444.712 448.865 444.844 448.955L444.727 450.278C444.685 450.44 444.586 450.521 444.43 450.521C444.346 450.521 444.22 450.506 444.052 450.476C443.884 450.44 443.704 450.422 443.512 450.422C443.23 450.422 442.981 450.464 442.765 450.548C442.549 450.626 442.354 450.746 442.18 450.908C442.012 451.064 441.862 451.259 441.73 451.493C441.598 451.721 441.475 451.982 441.361 452.276V458H439.606V448.856H440.614C440.806 448.856 440.935 448.892 441.001 448.964C441.073 449.03 441.124 449.15 441.154 449.324L441.262 450.611ZM219.769 472.431C219.721 472.509 219.67 472.566 219.616 472.602C219.562 472.632 219.493 472.647 219.409 472.647C219.313 472.647 219.205 472.614 219.085 472.548C218.971 472.482 218.83 472.41 218.662 472.332C218.5 472.254 218.308 472.182 218.086 472.116C217.864 472.05 217.6 472.017 217.294 472.017C217.042 472.017 216.811 472.05 216.601 472.116C216.397 472.176 216.223 472.263 216.079 472.377C215.935 472.485 215.824 472.617 215.746 472.773C215.668 472.923 215.629 473.085 215.629 473.259C215.629 473.487 215.695 473.676 215.827 473.826C215.965 473.976 216.142 474.105 216.358 474.213C216.58 474.321 216.829 474.42 217.105 474.51C217.387 474.594 217.672 474.684 217.96 474.78C218.254 474.876 218.539 474.987 218.815 475.113C219.097 475.233 219.346 475.386 219.562 475.572C219.784 475.752 219.961 475.971 220.093 476.229C220.231 476.487 220.3 476.802 220.3 477.174C220.3 477.6 220.222 477.996 220.066 478.362C219.916 478.722 219.691 479.034 219.391 479.298C219.097 479.562 218.731 479.769 218.293 479.919C217.855 480.069 217.354 480.144 216.79 480.144C216.16 480.144 215.578 480.039 215.044 479.829C214.51 479.619 214.063 479.352 213.703 479.028L214.117 478.353C214.165 478.269 214.225 478.206 214.297 478.164C214.369 478.116 214.465 478.092 214.585 478.092C214.699 478.092 214.816 478.134 214.936 478.218C215.056 478.302 215.2 478.395 215.368 478.497C215.536 478.593 215.74 478.683 215.98 478.767C216.22 478.845 216.52 478.884 216.88 478.884C217.18 478.884 217.441 478.848 217.663 478.776C217.885 478.698 218.068 478.596 218.212 478.47C218.362 478.338 218.473 478.188 218.545 478.02C218.617 477.852 218.653 477.675 218.653 477.489C218.653 477.249 218.584 477.051 218.446 476.895C218.314 476.733 218.137 476.595 217.915 476.481C217.699 476.367 217.45 476.268 217.168 476.184C216.886 476.1 216.598 476.01 216.304 475.914C216.01 475.818 215.722 475.707 215.44 475.581C215.158 475.455 214.906 475.296 214.684 475.104C214.468 474.912 214.291 474.678 214.153 474.402C214.021 474.126 213.955 473.79 213.955 473.394C213.955 473.04 214.027 472.701 214.171 472.377C214.321 472.053 214.534 471.768 214.81 471.522C215.092 471.276 215.437 471.081 215.845 470.937C216.259 470.787 216.73 470.712 217.258 470.712C217.864 470.712 218.41 470.808 218.896 471C219.388 471.192 219.808 471.456 220.156 471.792L219.769 472.431ZM228.257 474.411C228.257 474.063 228.206 473.742 228.104 473.448C228.008 473.154 227.864 472.899 227.672 472.683C227.48 472.467 227.246 472.299 226.97 472.179C226.694 472.059 226.376 471.999 226.016 471.999C225.278 471.999 224.696 472.212 224.27 472.638C223.85 473.064 223.583 473.655 223.469 474.411H228.257ZM229.706 478.695C229.49 478.947 229.241 479.166 228.959 479.352C228.677 479.532 228.377 479.679 228.059 479.793C227.741 479.907 227.411 479.991 227.069 480.045C226.733 480.099 226.4 480.126 226.07 480.126C225.44 480.126 224.855 480.021 224.315 479.811C223.781 479.595 223.316 479.283 222.92 478.875C222.53 478.461 222.224 477.951 222.002 477.345C221.786 476.733 221.678 476.031 221.678 475.239C221.678 474.603 221.777 474.012 221.975 473.466C222.173 472.914 222.455 472.434 222.821 472.026C223.193 471.618 223.646 471.297 224.18 471.063C224.714 470.829 225.314 470.712 225.98 470.712C226.538 470.712 227.051 470.805 227.519 470.991C227.993 471.171 228.401 471.435 228.743 471.783C229.085 472.131 229.352 472.56 229.544 473.07C229.742 473.58 229.841 474.162 229.841 474.816C229.841 475.086 229.811 475.269 229.751 475.365C229.691 475.455 229.58 475.5 229.418 475.5H223.424C223.442 476.046 223.52 476.523 223.658 476.931C223.796 477.333 223.985 477.669 224.225 477.939C224.471 478.209 224.762 478.41 225.098 478.542C225.434 478.674 225.809 478.74 226.223 478.74C226.613 478.74 226.949 478.695 227.231 478.605C227.519 478.515 227.765 478.419 227.969 478.317C228.179 478.209 228.353 478.11 228.491 478.02C228.635 477.93 228.761 477.885 228.869 477.885C229.013 477.885 229.124 477.939 229.202 478.047L229.706 478.695ZM233.383 472.611C233.677 472.011 234.031 471.54 234.445 471.198C234.859 470.856 235.357 470.685 235.939 470.685C236.137 470.685 236.323 470.709 236.497 470.757C236.677 470.799 236.833 470.865 236.965 470.955L236.848 472.278C236.806 472.44 236.707 472.521 236.551 472.521C236.467 472.521 236.341 472.506 236.173 472.476C236.005 472.44 235.825 472.422 235.633 472.422C235.351 472.422 235.102 472.464 234.886 472.548C234.67 472.626 234.475 472.746 234.301 472.908C234.133 473.064 233.983 473.259 233.851 473.493C233.719 473.721 233.596 473.982 233.482 474.276V480H231.727V470.856H232.735C232.927 470.856 233.056 470.892 233.122 470.964C233.194 471.03 233.245 471.15 233.275 471.324L233.383 472.611ZM246.257 470.856L242.549 480H240.965L237.257 470.856H238.706C238.844 470.856 238.958 470.889 239.048 470.955C239.138 471.021 239.198 471.105 239.228 471.207L241.415 476.823C241.493 477.057 241.559 477.291 241.613 477.525C241.673 477.753 241.727 477.981 241.775 478.209C241.823 477.981 241.877 477.753 241.937 477.525C241.997 477.297 242.069 477.063 242.153 476.823L244.367 471.207C244.403 471.105 244.466 471.021 244.556 470.955C244.646 470.889 244.754 470.856 244.88 470.856H246.257ZM249.489 470.856V480H247.734V470.856H249.489ZM249.822 468.03C249.822 468.192 249.789 468.348 249.723 468.498C249.657 468.642 249.567 468.771 249.453 468.885C249.345 468.993 249.216 469.08 249.066 469.146C248.916 469.206 248.76 469.236 248.598 469.236C248.436 469.236 248.283 469.206 248.139 469.146C247.995 469.08 247.866 468.993 247.752 468.885C247.644 468.771 247.557 468.642 247.491 468.498C247.431 468.348 247.401 468.192 247.401 468.03C247.401 467.862 247.431 467.706 247.491 467.562C247.557 467.412 247.644 467.283 247.752 467.175C247.866 467.061 247.995 466.974 248.139 466.914C248.283 466.848 248.436 466.815 248.598 466.815C248.76 466.815 248.916 466.848 249.066 466.914C249.216 466.974 249.345 467.061 249.453 467.175C249.567 467.283 249.657 467.412 249.723 467.562C249.789 467.706 249.822 467.862 249.822 468.03ZM258.438 472.566C258.384 472.632 258.33 472.686 258.276 472.728C258.228 472.764 258.156 472.782 258.06 472.782C257.964 472.782 257.862 472.746 257.754 472.674C257.652 472.596 257.52 472.515 257.358 472.431C257.202 472.341 257.01 472.26 256.782 472.188C256.56 472.11 256.284 472.071 255.954 472.071C255.522 472.071 255.141 472.149 254.811 472.305C254.481 472.461 254.205 472.683 253.983 472.971C253.767 473.259 253.602 473.61 253.488 474.024C253.374 474.438 253.317 474.903 253.317 475.419C253.317 475.953 253.377 476.43 253.497 476.85C253.617 477.264 253.788 477.615 254.01 477.903C254.232 478.185 254.502 478.401 254.82 478.551C255.138 478.695 255.492 478.767 255.882 478.767C256.26 478.767 256.572 478.722 256.818 478.632C257.064 478.536 257.268 478.434 257.43 478.326C257.592 478.218 257.727 478.119 257.835 478.029C257.943 477.933 258.054 477.885 258.168 477.885C258.312 477.885 258.423 477.939 258.501 478.047L259.005 478.695C258.795 478.953 258.558 479.172 258.294 479.352C258.036 479.532 257.76 479.679 257.466 479.793C257.172 479.907 256.863 479.991 256.539 480.045C256.221 480.099 255.897 480.126 255.567 480.126C254.997 480.126 254.463 480.021 253.965 479.811C253.473 479.601 253.044 479.295 252.678 478.893C252.318 478.491 252.033 477.999 251.823 477.417C251.613 476.829 251.508 476.163 251.508 475.419C251.508 474.741 251.601 474.114 251.787 473.538C251.979 472.962 252.258 472.467 252.624 472.053C252.996 471.633 253.452 471.306 253.992 471.072C254.532 470.832 255.15 470.712 255.846 470.712C256.5 470.712 257.076 470.817 257.574 471.027C258.072 471.237 258.516 471.534 258.906 471.918L258.438 472.566ZM266.542 474.411C266.542 474.063 266.491 473.742 266.389 473.448C266.293 473.154 266.149 472.899 265.957 472.683C265.765 472.467 265.531 472.299 265.255 472.179C264.979 472.059 264.661 471.999 264.301 471.999C263.563 471.999 262.981 472.212 262.555 472.638C262.135 473.064 261.868 473.655 261.754 474.411H266.542ZM267.991 478.695C267.775 478.947 267.526 479.166 267.244 479.352C266.962 479.532 266.662 479.679 266.344 479.793C266.026 479.907 265.696 479.991 265.354 480.045C265.018 480.099 264.685 480.126 264.355 480.126C263.725 480.126 263.14 480.021 262.6 479.811C262.066 479.595 261.601 479.283 261.205 478.875C260.815 478.461 260.509 477.951 260.287 477.345C260.071 476.733 259.963 476.031 259.963 475.239C259.963 474.603 260.062 474.012 260.26 473.466C260.458 472.914 260.74 472.434 261.106 472.026C261.478 471.618 261.931 471.297 262.465 471.063C262.999 470.829 263.599 470.712 264.265 470.712C264.823 470.712 265.336 470.805 265.804 470.991C266.278 471.171 266.686 471.435 267.028 471.783C267.37 472.131 267.637 472.56 267.829 473.07C268.027 473.58 268.126 474.162 268.126 474.816C268.126 475.086 268.096 475.269 268.036 475.365C267.976 475.455 267.865 475.5 267.703 475.5H261.709C261.727 476.046 261.805 476.523 261.943 476.931C262.081 477.333 262.27 477.669 262.51 477.939C262.756 478.209 263.047 478.41 263.383 478.542C263.719 478.674 264.094 478.74 264.508 478.74C264.898 478.74 265.234 478.695 265.516 478.605C265.804 478.515 266.05 478.419 266.254 478.317C266.464 478.209 266.638 478.11 266.776 478.02C266.92 477.93 267.046 477.885 267.154 477.885C267.298 477.885 267.409 477.939 267.487 478.047L267.991 478.695ZM275.403 472.431C275.355 472.509 275.304 472.566 275.25 472.602C275.196 472.632 275.127 472.647 275.043 472.647C274.947 472.647 274.839 472.614 274.719 472.548C274.605 472.482 274.464 472.41 274.296 472.332C274.134 472.254 273.942 472.182 273.72 472.116C273.498 472.05 273.234 472.017 272.928 472.017C272.676 472.017 272.445 472.05 272.235 472.116C272.031 472.176 271.857 472.263 271.713 472.377C271.569 472.485 271.458 472.617 271.38 472.773C271.302 472.923 271.263 473.085 271.263 473.259C271.263 473.487 271.329 473.676 271.461 473.826C271.599 473.976 271.776 474.105 271.992 474.213C272.214 474.321 272.463 474.42 272.739 474.51C273.021 474.594 273.306 474.684 273.594 474.78C273.888 474.876 274.173 474.987 274.449 475.113C274.731 475.233 274.98 475.386 275.196 475.572C275.418 475.752 275.595 475.971 275.727 476.229C275.865 476.487 275.934 476.802 275.934 477.174C275.934 477.6 275.856 477.996 275.7 478.362C275.55 478.722 275.325 479.034 275.025 479.298C274.731 479.562 274.365 479.769 273.927 479.919C273.489 480.069 272.988 480.144 272.424 480.144C271.794 480.144 271.212 480.039 270.678 479.829C270.144 479.619 269.697 479.352 269.337 479.028L269.751 478.353C269.799 478.269 269.859 478.206 269.931 478.164C270.003 478.116 270.099 478.092 270.219 478.092C270.333 478.092 270.45 478.134 270.57 478.218C270.69 478.302 270.834 478.395 271.002 478.497C271.17 478.593 271.374 478.683 271.614 478.767C271.854 478.845 272.154 478.884 272.514 478.884C272.814 478.884 273.075 478.848 273.297 478.776C273.519 478.698 273.702 478.596 273.846 478.47C273.996 478.338 274.107 478.188 274.179 478.02C274.251 477.852 274.287 477.675 274.287 477.489C274.287 477.249 274.218 477.051 274.08 476.895C273.948 476.733 273.771 476.595 273.549 476.481C273.333 476.367 273.084 476.268 272.802 476.184C272.52 476.1 272.232 476.01 271.938 475.914C271.644 475.818 271.356 475.707 271.074 475.581C270.792 475.455 270.54 475.296 270.318 475.104C270.102 474.912 269.925 474.678 269.787 474.402C269.655 474.126 269.589 473.79 269.589 473.394C269.589 473.04 269.661 472.701 269.805 472.377C269.955 472.053 270.168 471.768 270.444 471.522C270.726 471.276 271.071 471.081 271.479 470.937C271.893 470.787 272.364 470.712 272.892 470.712C273.498 470.712 274.044 470.808 274.53 471C275.022 471.192 275.442 471.456 275.79 471.792L275.403 472.431ZM277.547 478.947C277.547 478.785 277.577 478.632 277.637 478.488C277.697 478.344 277.778 478.218 277.88 478.11C277.988 478.002 278.114 477.918 278.258 477.858C278.402 477.792 278.558 477.759 278.726 477.759C278.888 477.759 279.041 477.792 279.185 477.858C279.329 477.918 279.455 478.002 279.563 478.11C279.671 478.218 279.755 478.344 279.815 478.488C279.881 478.632 279.914 478.785 279.914 478.947C279.914 479.115 279.881 479.271 279.815 479.415C279.755 479.559 279.671 479.685 279.563 479.793C279.455 479.901 279.329 479.985 279.185 480.045C279.041 480.105 278.888 480.135 278.726 480.135C278.558 480.135 278.402 480.105 278.258 480.045C278.114 479.985 277.988 479.901 277.88 479.793C277.778 479.685 277.697 479.559 277.637 479.415C277.577 479.271 277.547 479.115 277.547 478.947Z" fill="white" fill-opacity="0.83"/>
<path d="M75.244 299.72C74.7398 276.099 74.741 257.836 75.0137 242.58C82.5709 236.562 110.522 207.735 198.475 233.252C223.187 231.656 182.996 176.098 78.488 124.682C78.3586 111.688 78.0113 96.6518 77.3597 78.7076C81.4531 82.1208 89.2548 84.993 103.27 87.8335C112.443 99.0039 91.3057 102.511 80.3947 101.415C112.852 133.015 131.901 152.907 255.839 157.473C253.421 109.404 228.08 65.8884 198.248 71.0435C238.652 48.4397 219.524 -0.314452 212.147 -39.1002C167.053 -39.8639 110.649 -8.13971 76.6418 60.6494C75.4462 32.8128 73.6005 -1.26367 70.868 -43.9566L73.5885 67.0584C73.3865 68.484 73.2964 69.8229 73.3799 71.0876L71.8545 100.557L71.9977 121.534L72.7932 238.077C72.455 241.73 72.4155 243.352 73.0128 243.601L75.244 299.72Z" fill="#212020"/>
<path d="M75.4936 299.741C75.4965 299.878 75.3886 299.979 75.2517 299.969C75.1148 299.958 75.0001 299.84 74.9946 299.703L74.9945 299.698L72.7692 243.73C72.6076 243.601 72.5059 243.407 72.441 243.196C72.3552 242.917 72.3141 242.548 72.3027 242.095C72.2798 241.187 72.3753 239.858 72.5435 238.04L71.7481 121.509L71.6049 100.532C71.6048 100.527 71.605 100.522 71.6052 100.517L73.1299 71.0626C73.0469 69.7854 73.1378 68.44 73.3384 67.0175L70.6189 -43.9674L70.6185 -43.9772C70.6151 -44.113 70.7212 -44.2148 70.857 -44.2062C70.9928 -44.1976 71.1084 -44.0819 71.1171 -43.9458C73.8166 -1.76893 75.6506 31.9996 76.8475 59.6509C110.926 -8.59217 167.111 -40.1126 212.125 -39.3503C212.253 -39.3481 212.368 -39.2491 212.393 -39.1211C213.502 -33.2901 214.875 -27.241 216.272 -21.0842C217.199 -17.0035 218.136 -12.8756 219.014 -8.7325C221.214 1.64994 223.037 12.1046 223.365 22.0585C224.008 41.5901 218.887 59.2106 199.559 70.5925C214.091 68.7928 227.453 78.3914 237.53 94.1813C247.928 110.474 254.877 133.418 256.088 157.488C256.095 157.624 255.992 157.728 255.856 157.723C193.881 155.44 158.099 149.325 133.743 139.814C109.931 130.515 97.0572 117.975 81.3414 102.666C80.9728 102.307 80.6028 101.947 80.2309 101.585C80.1526 101.509 80.1246 101.396 80.1606 101.303C80.1967 101.21 80.2892 101.155 80.393 101.166C85.8198 101.711 93.7926 101.109 99.2527 98.9895C101.988 97.9274 104.045 96.5025 104.871 94.6985C105.675 92.9439 105.341 90.7625 103.148 88.0587C96.1816 86.6437 90.7449 85.2189 86.5337 83.7201C82.5775 82.3121 79.6893 80.8341 77.6273 79.227C78.2645 96.8744 78.6064 111.701 78.7359 124.538C130.925 150.231 167.077 176.959 187.108 197.484C197.127 207.751 203.141 216.492 205.087 222.795C206.061 225.949 206.027 228.532 204.918 230.382C203.807 232.237 201.65 233.299 198.517 233.501C198.488 233.503 198.458 233.5 198.43 233.491C154.487 220.743 125.557 221.576 106.681 226.333C89.7804 230.592 80.9227 237.998 76.5394 241.663C76.0618 242.062 75.6373 242.417 75.2613 242.718C74.9907 257.949 74.9906 276.179 75.4936 299.741Z" stroke="url(#paint0_linear_5_702)" stroke-opacity="0.2" stroke-width="0.5" stroke-linejoin="round"/>
<path d="M51.0799 -42.3985C51.5737 -24.3773 52.0086 -8.26471 52.3968 6.52809C46.6635 3.98615 24.7701 9.7398 -50.4368 -10.0431C-73.5622 -7.45952 -45.4432 84.0268 55.156 130.465C55.2788 137.547 55.3998 144.828 55.5211 152.414L54.4347 178.509C53.9101 171.278 48.8389 165.133 28.2923 161.622C19.7935 151.138 37.7154 149.778 47.7387 150.409C17.7236 121.009 0.0991295 102.447 -113.7 102.943C-111.144 149.533 -87.5785 190.79 -60.2308 184.596C-97.1609 208.157 -79.2618 254.748 -72.2192 292.125C-29.555 291.041 23.8933 255.967 54.2266 183.506L57.5001 291.221C56.6732 230.664 56.0926 188.147 55.5211 152.414L55.584 150.903L55.3059 130.534L53.7607 17.3737C54.2431 11.3431 54.7295 8.50732 53.3008 7.11909L51.0799 -42.3985Z" fill="#212020"/>
<path d="M50.8297 -42.4108C50.8259 -42.5476 50.9336 -42.6533 51.0709 -42.6478C51.2082 -42.6422 51.3239 -42.5274 51.33 -42.3905L51.3302 -42.3861L53.5463 7.02593C54.2851 7.80342 54.5009 8.93807 54.4977 10.5251C54.4953 11.7306 54.3643 13.2496 54.2001 15.1525C54.14 15.8493 54.0755 16.5977 54.0112 17.401L55.5562 130.549L55.8344 150.918L55.8347 150.918L55.8342 150.932L55.7715 152.437C56.343 188.168 56.9236 230.684 57.7504 291.236L57.7505 291.237C57.7523 291.373 57.643 291.477 57.5056 291.47C57.3682 291.462 57.2541 291.346 57.2499 291.209L57.2498 291.205L54.0123 184.677C23.5802 256.475 -29.6181 291.292 -72.1937 292.375C-72.323 292.378 -72.4409 292.282 -72.4651 292.153C-73.5239 286.534 -74.8267 280.713 -76.1527 274.789C-77.0315 270.862 -77.9205 266.89 -78.7553 262.901C-80.8476 252.905 -82.5947 242.824 -82.9649 233.17C-83.6909 214.24 -79.1215 196.929 -61.4778 185.103C-74.8052 187.399 -87.1259 178.595 -96.4719 163.684C-106.131 148.273 -112.67 126.265 -113.95 102.937C-113.957 102.802 -113.855 102.694 -113.72 102.693C-56.814 102.445 -23.9199 106.961 -1.49094 115.231C20.438 123.318 32.3468 134.988 46.8786 149.23C47.2199 149.565 47.5627 149.9 47.907 150.238C47.9831 150.312 48.0092 150.422 47.9728 150.515C47.9364 150.608 47.8449 150.664 47.7421 150.658C42.7392 150.343 35.7918 150.528 31.1658 152.085C28.8457 152.865 27.1722 153.97 26.5692 155.467C25.9823 156.923 26.3761 158.846 28.4169 161.394C38.6446 163.15 45.0697 165.566 49.0105 168.474C52.0564 170.721 53.6093 173.256 54.2888 175.975L55.2707 152.392C55.1503 144.868 55.0304 137.645 54.9086 130.617C4.64545 107.374 -27.5276 72.894 -44.2519 43.8769C-52.6211 29.3561 -57.1291 16.1902 -58.0899 6.47635C-58.5701 1.62104 -58.1661 -2.39245 -56.8959 -5.283C-55.6214 -8.18319 -53.4704 -9.95737 -50.4834 -10.2911C-50.4527 -10.2945 -50.4213 -10.2921 -50.3906 -10.2841C-12.7997 -0.395921 11.4607 3.10852 27.0352 4.45929C34.2309 5.08337 39.5742 5.24791 43.5274 5.36964C43.8526 5.37966 44.1684 5.38938 44.475 5.39905C46.4904 5.46258 48.118 5.52379 49.4218 5.6493C50.5329 5.75625 51.4277 5.91129 52.1373 6.16379C51.7514 -8.5325 51.3196 -24.5324 50.8297 -42.4108Z" stroke="url(#paint1_linear_5_702)" stroke-opacity="0.2" stroke-width="0.5" stroke-linejoin="round"/>
<path d="M454.244 937.72C453.74 914.1 453.741 895.837 454.014 880.581C461.571 874.563 489.522 845.735 577.475 871.252C602.187 869.657 561.996 814.098 457.488 762.683C457.359 749.689 457.011 734.653 456.36 716.708C460.453 720.122 468.255 722.994 482.27 725.834C491.443 737.005 470.306 740.512 459.395 739.415C491.852 771.016 510.901 790.908 634.839 795.474C632.421 747.405 607.08 703.889 577.248 709.044C617.652 686.44 598.524 637.686 591.147 598.901C546.053 598.137 489.649 629.861 455.642 698.65C454.446 670.814 452.601 636.737 449.868 594.044L452.588 705.059C452.386 706.485 452.296 707.824 452.38 709.088L450.854 738.557L450.998 759.535L451.793 876.078C451.455 879.731 451.415 881.352 452.013 881.602L454.244 937.72Z" fill="#212020"/>
<path d="M454.494 937.742C454.497 937.878 454.389 937.98 454.252 937.97C454.115 937.959 454 937.84 453.995 937.703L453.994 937.699L451.769 881.731C451.608 881.602 451.506 881.408 451.441 881.197C451.355 880.917 451.314 880.549 451.303 880.096C451.28 879.188 451.375 877.859 451.544 876.041L450.748 759.51L450.605 738.532C450.605 738.527 450.605 738.523 450.605 738.518L452.13 709.063C452.047 707.786 452.138 706.441 452.338 705.018L449.619 594.033L449.618 594.023C449.615 593.888 449.721 593.786 449.857 593.795C449.993 593.803 450.108 593.919 450.117 594.055C452.817 636.232 454.651 670 455.847 697.652C489.926 629.409 546.111 597.888 591.125 598.65C591.253 598.653 591.368 598.752 591.393 598.88C592.502 604.711 593.875 610.76 595.272 616.917C596.199 620.997 597.136 625.125 598.014 629.268C600.214 639.651 602.037 650.105 602.365 660.059C603.008 679.591 597.887 697.211 578.559 708.593C593.091 706.794 606.453 716.392 616.53 732.182C626.928 748.474 633.877 771.419 635.088 795.488C635.095 795.624 634.992 795.729 634.856 795.724C572.881 793.441 537.099 787.325 512.743 777.814C488.931 768.516 476.057 755.975 460.341 740.667C459.973 740.308 459.603 739.948 459.231 739.586C459.153 739.509 459.125 739.397 459.161 739.304C459.197 739.211 459.289 739.156 459.393 739.167C464.82 739.712 472.793 739.11 478.253 736.99C480.988 735.928 483.045 734.503 483.871 732.699C484.675 730.945 484.341 728.763 482.148 726.059C475.182 724.644 469.745 723.22 465.534 721.721C461.578 720.313 458.689 718.835 456.627 717.228C457.264 734.875 457.606 749.702 457.736 762.538C509.925 788.232 546.077 814.96 566.108 835.485C576.127 845.751 582.141 854.493 584.087 860.796C585.061 863.95 585.027 866.532 583.918 868.383C582.807 870.238 580.65 871.3 577.517 871.502C577.488 871.504 577.458 871.501 577.43 871.492C533.487 858.743 504.557 859.577 485.681 864.334C468.78 868.593 459.923 875.998 455.539 879.663C455.062 880.063 454.637 880.418 454.261 880.719C453.991 895.95 453.991 914.18 454.494 937.742Z" stroke="url(#paint2_linear_5_702)" stroke-opacity="0.2" stroke-width="0.5" stroke-linejoin="round"/>
<path d="M430.08 595.602C430.574 613.623 431.009 629.736 431.397 644.529C425.663 641.987 403.77 647.741 328.563 627.958C305.438 630.541 333.557 722.028 434.156 768.465C434.279 775.548 434.4 782.829 434.521 790.415L433.435 816.509C432.91 809.279 427.839 803.133 407.292 799.623C398.794 789.139 416.715 787.779 426.739 788.41C396.724 759.009 379.099 740.447 265.3 740.943C267.856 787.534 291.421 828.79 318.769 822.597C281.839 846.158 299.738 892.749 306.781 930.126C349.445 929.041 402.893 893.968 433.227 821.507L436.5 929.222C435.673 868.665 435.093 826.148 434.521 790.415L434.584 788.903L434.306 768.534L432.761 655.374C433.243 649.344 433.729 646.508 432.301 645.12L430.08 595.602Z" fill="#212020"/>
<path d="M429.83 595.59C429.826 595.453 429.934 595.347 430.071 595.353C430.208 595.359 430.324 595.473 430.33 595.61L430.33 595.615L432.546 645.027C433.285 645.804 433.501 646.939 433.498 648.526C433.495 649.731 433.364 651.25 433.2 653.153C433.14 653.85 433.075 654.598 433.011 655.402L434.556 768.55L434.834 788.919L434.835 788.919L434.834 788.933L434.772 790.437C435.343 826.169 435.924 868.684 436.75 929.237L436.75 929.237C436.752 929.374 436.643 929.478 436.506 929.471C436.368 929.463 436.254 929.347 436.25 929.21L436.25 929.206L433.012 822.678C402.58 894.475 349.382 929.293 306.806 930.375C306.677 930.379 306.559 930.282 306.535 930.154C305.476 924.534 304.173 918.714 302.847 912.789C301.969 908.863 301.08 904.891 300.245 900.902C298.152 890.906 296.405 880.825 296.035 871.171C295.309 852.241 299.878 834.93 317.522 823.103C304.195 825.4 291.874 816.596 282.528 801.684C272.869 786.274 266.33 764.266 265.05 740.938C265.043 740.803 265.145 740.694 265.28 740.694C322.186 740.446 355.08 744.962 377.509 753.232C399.438 761.318 411.347 772.989 425.879 787.231C426.22 787.565 426.563 787.901 426.907 788.238C426.983 788.313 427.009 788.423 426.973 788.516C426.936 788.608 426.845 788.665 426.742 788.659C421.739 788.344 414.792 788.529 410.166 790.085C407.846 790.866 406.172 791.971 405.569 793.467C404.982 794.923 405.376 796.847 407.417 799.395C417.645 801.15 424.07 803.567 428.01 806.475C431.056 808.722 432.609 811.257 433.289 813.976L434.271 790.393C434.15 782.869 434.03 775.645 433.909 768.618C383.645 745.375 351.472 710.895 334.748 681.878C326.379 667.357 321.871 654.191 320.91 644.477C320.43 639.622 320.834 635.608 322.104 632.718C323.379 629.818 325.53 628.043 328.517 627.71C328.547 627.706 328.579 627.709 328.609 627.717C366.2 637.605 390.461 641.109 406.035 642.46C413.231 643.084 418.574 643.249 422.527 643.37C422.853 643.38 423.168 643.39 423.475 643.4C425.49 643.463 427.118 643.525 428.422 643.65C429.533 643.757 430.428 643.912 431.137 644.165C430.751 629.468 430.32 613.468 429.83 595.59Z" stroke="url(#paint3_linear_5_702)" stroke-opacity="0.2" stroke-width="0.5" stroke-linejoin="round"/>
</g>
<defs>
<linearGradient id="paint0_linear_5_702" x1="164.938" y1="308.731" x2="99.5878" y2="-13.6839" gradientUnits="userSpaceOnUse">
<stop offset="0.0570477" stop-color="#F6592F"/>
<stop offset="0.507359" stop-color="#E61D41"/>
<stop offset="1" stop-color="#F68F2F"/>
</linearGradient>
<linearGradient id="paint1_linear_5_702" x1="-31.1493" y1="-47.5718" x2="47.7416" y2="258.721" gradientUnits="userSpaceOnUse">
<stop offset="0.0570477" stop-color="#F6592F"/>
<stop offset="0.507359" stop-color="#E61D41"/>
<stop offset="1" stop-color="#F68F2F"/>
</linearGradient>
<linearGradient id="paint2_linear_5_702" x1="543.938" y1="946.732" x2="478.588" y2="624.317" gradientUnits="userSpaceOnUse">
<stop offset="0.0570477" stop-color="#F6592F"/>
<stop offset="0.507359" stop-color="#E61D41"/>
<stop offset="1" stop-color="#F68F2F"/>
</linearGradient>
<linearGradient id="paint3_linear_5_702" x1="347.851" y1="590.429" x2="426.742" y2="896.721" gradientUnits="userSpaceOnUse">
<stop offset="0.0570477" stop-color="#F6592F"/>
<stop offset="0.507359" stop-color="#E61D41"/>
<stop offset="1" stop-color="#F68F2F"/>
</linearGradient>
<clipPath id="clip0_5_702">
<path d="M0 0H474C485.046 0 494 8.95431 494 20V839C494 850.046 485.046 859 474 859H0V0Z" fill="white"/>
</clipPath>
</defs>
</svg>
