<svg width="41" height="40" viewBox="0 0 41 40" fill="none" xmlns="http://www.w3.org/2000/svg">
<rect x="1" y="0.499512" width="39" height="39" rx="7.5" stroke="white"/>
<path d="M20.5 23.9995C21.5609 23.9995 22.5783 23.5781 23.3284 22.8279C24.0786 22.0778 24.5 21.0604 24.5 19.9995C24.5 18.9386 24.0786 17.9212 23.3284 17.1711C22.5783 16.4209 21.5609 15.9995 20.5 15.9995C19.4391 15.9995 18.4217 16.4209 17.6716 17.1711C16.9214 17.9212 16.5 18.9386 16.5 19.9995C16.5 21.0604 16.9214 22.0778 17.6716 22.8279C18.4217 23.5781 19.4391 23.9995 20.5 23.9995V23.9995Z" stroke="white" stroke-width="1.5" stroke-linecap="round" stroke-linejoin="round"/>
<path d="M11.5 23.9995V15.9995C11.5 14.6734 12.0268 13.4017 12.9645 12.464C13.9021 11.5263 15.1739 10.9995 16.5 10.9995H24.5C25.8261 10.9995 27.0979 11.5263 28.0355 12.464C28.9732 13.4017 29.5 14.6734 29.5 15.9995V23.9995C29.5 25.3256 28.9732 26.5974 28.0355 27.535C27.0979 28.4727 25.8261 28.9995 24.5 28.9995H16.5C15.1739 28.9995 13.9021 28.4727 12.9645 27.535C12.0268 26.5974 11.5 25.3256 11.5 23.9995Z" stroke="white" stroke-width="1.5"/>
<path d="M26 14.5105L26.01 14.4995" stroke="white" stroke-width="1.5" stroke-linecap="round" stroke-linejoin="round"/>
</svg>
