<svg width="40" height="40" viewBox="0 0 40 40" fill="none" xmlns="http://www.w3.org/2000/svg">
<rect x="1" y="0.499512" width="38.5" height="38.5" rx="7.5" stroke="white"/>
<path d="M20 17.0495C20.917 16.1125 22.111 15.4995 23.5 15.4995C24.9587 15.4995 26.3576 16.079 27.3891 17.1104C28.4205 18.1419 29 19.5408 29 20.9995V28.4995H27V20.9995C27 20.0713 26.6313 19.181 25.9749 18.5246C25.3185 17.8683 24.4283 17.4995 23.5 17.4995C22.5717 17.4995 21.6815 17.8683 21.0251 18.5246C20.3687 19.181 20 20.0713 20 20.9995V28.4995H18V15.9995H20V17.0495ZM13 13.9995C12.6022 13.9995 12.2206 13.8415 11.9393 13.5602C11.658 13.2789 11.5 12.8973 11.5 12.4995C11.5 12.1017 11.658 11.7202 11.9393 11.4389C12.2206 11.1575 12.6022 10.9995 13 10.9995C13.3978 10.9995 13.7794 11.1575 14.0607 11.4389C14.342 11.7202 14.5 12.1017 14.5 12.4995C14.5 12.8973 14.342 13.2789 14.0607 13.5602C13.7794 13.8415 13.3978 13.9995 13 13.9995ZM12 15.9995H14V28.4995H12V15.9995Z" fill="white"/>
</svg>
