<svg width="200" height="60" viewBox="0 0 200 60" fill="none" xmlns="http://www.w3.org/2000/svg">
<path d="M192.593 59.2593H7.40741C3.25926 59.2593 0 56 0 51.8518V7.40741C0 3.25926 3.25926 0 7.40741 0H192.593C196.741 0 200 3.25926 200 7.40741V51.8518C200 56 196.741 59.2593 192.593 59.2593Z" fill="black"/>
<path d="M192.593 1.18519C196 1.18519 198.815 4 198.815 7.40741V51.8518C198.815 55.2593 196 58.0741 192.593 58.0741H7.40741C4 58.0741 1.18519 55.2593 1.18519 51.8518V7.40741C1.18519 4 4 1.18519 7.40741 1.18519H192.593ZM192.593 0H7.40741C3.25926 0 0 3.40741 0 7.40741V51.8518C0 56 3.25926 59.2593 7.40741 59.2593H192.593C196.741 59.2593 200 56 200 51.8518V7.40741C200 3.40741 196.741 0 192.593 0Z" fill="#A6A6A6"/>
<path d="M70.2219 15.1111C70.2219 16.2962 69.9256 17.3333 69.1849 18.074C68.296 18.9629 67.2589 19.4074 65.9256 19.4074C64.5923 19.4074 63.5552 18.9629 62.6663 18.074C61.7774 17.1851 61.333 16.1481 61.333 14.8148C61.333 13.4814 61.7774 12.4444 62.6663 11.5555C63.5552 10.6666 64.5923 10.2222 65.9256 10.2222C66.5182 10.2222 67.1108 10.3703 67.7034 10.6666C68.296 10.9629 68.7404 11.2592 69.0367 11.7036L68.296 12.4444C67.7034 11.7036 66.9626 11.4074 65.9256 11.4074C65.0367 11.4074 64.1478 11.7036 63.5552 12.4444C62.8145 13.037 62.5182 13.9259 62.5182 14.9629C62.5182 15.9999 62.8145 16.8888 63.5552 17.4814C64.296 18.074 65.0367 18.5185 65.9256 18.5185C66.9626 18.5185 67.7034 18.2222 68.4441 17.4814C68.8886 17.037 69.1849 16.4444 69.1849 15.7036H65.9256V14.5185H70.2219V15.1111ZM77.0367 11.4074H73.0367V14.2222H76.7404V15.2592H73.0367V18.074H77.0367V19.2592H71.8515V10.3703H77.0367V11.4074ZM81.9256 19.2592H80.7404V11.4074H78.2219V10.3703H84.4441V11.4074H81.9256V19.2592ZM88.7404 19.2592V10.3703H89.9256V19.2592H88.7404ZM95.406 19.2592H93.7774V11.4074H91.2589V10.3703H97.333V11.4074H94.8145V19.2592H95.406ZM109.037 18.074C108.148 18.9629 107.111 19.4074 105.777 19.4074C104.444 19.4074 103.407 18.9629 102.518 18.074C101.629 17.1851 101.185 16.1481 101.185 14.8148C101.185 13.4814 101.629 12.4444 102.518 11.5555C103.407 10.6666 104.444 10.2222 105.777 10.2222C107.111 10.2222 108.148 10.6666 109.037 11.5555C109.926 12.4444 110.37 13.4814 110.37 14.8148C110.37 16.1481 109.926 17.1851 109.037 18.074ZM103.407 17.3333C104 17.9259 104.889 18.3703 105.777 18.3703C106.666 18.3703 107.555 18.074 108.148 17.3333C108.74 16.7407 109.185 15.8518 109.185 14.8148C109.185 13.7777 108.889 12.8888 108.148 12.2962C107.555 11.7036 106.666 11.2592 105.777 11.2592C104.889 11.2592 104 11.5555 103.407 12.2962C102.814 12.8888 102.37 13.7777 102.37 14.8148C102.37 15.8518 102.666 16.7407 103.407 17.3333ZM112 19.2592V10.3703H113.333L117.629 17.3333V10.3703H118.814V19.2592H117.629L113.037 11.9999V19.2592H112Z" fill="white" stroke="white" stroke-width="1.18519" stroke-miterlimit="10"/>
<path d="M100.889 32.296C97.3331 32.296 94.5183 34.9626 94.5183 38.6663C94.5183 42.2219 97.3331 45.0367 100.889 45.0367C104.444 45.0367 107.259 42.37 107.259 38.6663C107.259 34.8145 104.444 32.296 100.889 32.296ZM100.889 42.37C98.9627 42.37 97.3331 40.7404 97.3331 38.5182C97.3331 36.296 98.9627 34.6663 100.889 34.6663C102.815 34.6663 104.444 36.1478 104.444 38.5182C104.444 40.7404 102.815 42.37 100.889 42.37ZM87.1109 32.296C83.5553 32.296 80.7405 34.9626 80.7405 38.6663C80.7405 42.2219 83.5553 45.0367 87.1109 45.0367C90.6665 45.0367 93.4813 42.37 93.4813 38.6663C93.4813 34.8145 90.6665 32.296 87.1109 32.296ZM87.1109 42.37C85.185 42.37 83.5553 40.7404 83.5553 38.5182C83.5553 36.296 85.185 34.6663 87.1109 34.6663C89.0368 34.6663 90.6665 36.1478 90.6665 38.5182C90.6665 40.7404 89.0368 42.37 87.1109 42.37ZM70.6665 34.2219V36.8886H77.0368C76.8887 38.37 76.2961 39.5552 75.5553 40.296C74.6665 41.1849 73.185 42.2219 70.6665 42.2219C66.6665 42.2219 63.7035 39.1108 63.7035 35.1108C63.7035 31.1108 66.8146 27.9997 70.6665 27.9997C72.7405 27.9997 74.3702 28.8886 75.5553 29.9256L77.4813 27.9997C75.8516 26.5182 73.7776 25.333 70.8146 25.333C65.4813 25.333 60.8887 29.7775 60.8887 35.1108C60.8887 40.4441 65.4813 44.8886 70.8146 44.8886C73.7776 44.8886 75.8516 43.9997 77.6294 42.0737C79.4072 40.296 79.9998 37.7775 79.9998 35.8515C79.9998 35.2589 79.9998 34.6663 79.8516 34.2219H70.6665ZM137.926 36.296C137.333 34.8145 135.852 32.296 132.592 32.296C129.333 32.296 126.666 34.8145 126.666 38.6663C126.666 42.2219 129.333 45.0367 132.889 45.0367C135.703 45.0367 137.481 43.2589 138.074 42.2219L136 40.7404C135.259 41.7775 134.37 42.5182 132.889 42.5182C131.407 42.5182 130.518 41.9256 129.778 40.5923L138.222 37.0367L137.926 36.296ZM129.333 38.37C129.333 35.9997 131.259 34.6663 132.592 34.6663C133.629 34.6663 134.666 35.2589 134.963 35.9997L129.333 38.37ZM122.37 44.4441H125.185V25.9256H122.37V44.4441ZM117.926 33.6293C117.185 32.8886 116 32.1478 114.518 32.1478C111.407 32.1478 108.444 34.9626 108.444 38.5182C108.444 42.0737 111.259 44.7404 114.518 44.7404C116 44.7404 117.185 43.9997 117.778 43.2589H117.926V44.1478C117.926 46.5182 116.592 47.8515 114.518 47.8515C112.889 47.8515 111.703 46.6663 111.407 45.6293L109.037 46.6663C109.778 48.296 111.555 50.37 114.666 50.37C117.926 50.37 120.592 48.4441 120.592 43.8515V32.5923H117.926V33.6293ZM114.666 42.37C112.741 42.37 111.111 40.7404 111.111 38.5182C111.111 36.296 112.741 34.6663 114.666 34.6663C116.592 34.6663 118.074 36.296 118.074 38.5182C118.074 40.7404 116.592 42.37 114.666 42.37ZM150.815 25.9256H144.148V44.4441H146.963V37.4812H150.815C153.926 37.4812 156.889 35.2589 156.889 31.7034C156.889 28.1478 153.926 25.9256 150.815 25.9256ZM150.963 34.8145H146.963V28.4441H150.963C153.037 28.4441 154.222 30.2219 154.222 31.5552C154.074 33.1849 152.889 34.8145 150.963 34.8145ZM168 32.1478C165.926 32.1478 163.852 33.0367 163.111 34.9626L165.629 35.9997C166.222 34.9626 167.111 34.6663 168.148 34.6663C169.629 34.6663 170.963 35.5552 171.111 37.0367V37.1849C170.666 36.8886 169.481 36.4441 168.296 36.4441C165.629 36.4441 162.963 37.9256 162.963 40.5923C162.963 43.1108 165.185 44.7404 167.555 44.7404C169.481 44.7404 170.37 43.8515 171.111 42.9626H171.259V44.4441H173.926V37.333C173.629 34.0737 171.111 32.1478 168 32.1478ZM167.703 42.37C166.815 42.37 165.481 41.9256 165.481 40.7404C165.481 39.2589 167.111 38.8145 168.444 38.8145C169.629 38.8145 170.222 39.1108 170.963 39.4071C170.666 41.1849 169.185 42.37 167.703 42.37ZM183.259 32.5923L180.148 40.5923H180L176.741 32.5923H173.778L178.666 43.8515L175.852 50.0737H178.666L186.222 32.5923H183.259ZM158.37 44.4441H161.185V25.9256H158.37V44.4441Z" fill="white"/>
<path d="M15.407 11.1108C14.9626 11.5553 14.8145 12.296 14.8145 13.1849V45.9257C14.8145 46.8145 15.1107 47.5553 15.5552 47.9997L15.7033 48.1479L34.0737 29.7775V29.4812L15.407 11.1108Z" fill="url(#paint0_linear_807_3157)"/>
<path d="M39.9999 35.9998L33.9258 29.9257V29.4813L39.9999 23.4072L40.148 23.5554L47.4073 27.7035C49.4813 28.8887 49.4813 30.8146 47.4073 31.9998L39.9999 35.9998Z" fill="url(#paint1_linear_807_3157)"/>
<path d="M40.148 35.8516L33.9257 29.6294L15.4072 48.1479C16.148 48.8887 17.185 48.8887 18.5183 48.2961L40.148 35.8516Z" fill="url(#paint2_linear_807_3157)"/>
<path d="M40.148 23.4073L18.5183 11.111C17.185 10.3703 16.148 10.5184 15.4072 11.2592L33.9257 29.6295L40.148 23.4073Z" fill="url(#paint3_linear_807_3157)"/>
<path opacity="0.2" d="M39.9998 35.7036L18.5183 47.8518C17.3332 48.5925 16.2961 48.4444 15.5554 47.8518L15.4072 47.9999L15.5554 48.1481C16.2961 48.7406 17.3332 48.8888 18.5183 48.1481L39.9998 35.7036Z" fill="black"/>
<path opacity="0.12" d="M15.407 47.8516C14.9626 47.4072 14.8145 46.6664 14.8145 45.7775V45.9257C14.8145 46.8146 15.1107 47.5553 15.5552 47.9998V47.8516H15.407ZM47.407 31.5553L39.9996 35.7035L40.1478 35.8516L47.407 31.7035C48.4441 31.1109 48.8885 30.3701 48.8885 29.6294C48.8885 30.3701 48.2959 30.9627 47.407 31.5553Z" fill="black"/>
<path opacity="0.25" d="M18.5182 11.2592L47.407 27.7037C48.2959 28.2962 48.8885 28.8888 48.8885 29.6296C48.8885 28.8888 48.4441 28.1481 47.407 27.5555L18.5182 11.1111C16.4441 9.92587 14.8145 10.8148 14.8145 13.1851V13.3333C14.8145 11.1111 16.4441 10.074 18.5182 11.2592Z" fill="white"/>
<defs>
<linearGradient id="paint0_linear_807_3157" x1="32.2959" y1="12.9034" x2="7.43223" y2="37.7657" gradientUnits="userSpaceOnUse">
<stop stop-color="#00A0FF"/>
<stop offset="0.007" stop-color="#00A1FF"/>
<stop offset="0.26" stop-color="#00BEFF"/>
<stop offset="0.512" stop-color="#00D2FF"/>
<stop offset="0.76" stop-color="#00DFFF"/>
<stop offset="1" stop-color="#00E3FF"/>
</linearGradient>
<linearGradient id="paint1_linear_807_3157" x1="50.1243" y1="29.6309" x2="14.2769" y2="29.6309" gradientUnits="userSpaceOnUse">
<stop stop-color="#FFE000"/>
<stop offset="0.409" stop-color="#FFBD00"/>
<stop offset="0.775" stop-color="#FFA500"/>
<stop offset="1" stop-color="#FF9C00"/>
</linearGradient>
<linearGradient id="paint2_linear_807_3157" x1="36.7806" y1="33.0309" x2="3.06501" y2="66.7464" gradientUnits="userSpaceOnUse">
<stop stop-color="#FF3A44"/>
<stop offset="1" stop-color="#C31162"/>
</linearGradient>
<linearGradient id="paint3_linear_807_3157" x1="10.8102" y1="0.260654" x2="25.8665" y2="15.317" gradientUnits="userSpaceOnUse">
<stop stop-color="#32A071"/>
<stop offset="0.069" stop-color="#2DA771"/>
<stop offset="0.476" stop-color="#15CF74"/>
<stop offset="0.801" stop-color="#06E775"/>
<stop offset="1" stop-color="#00F076"/>
</linearGradient>
</defs>
</svg>
