<svg width="41" height="40" viewBox="0 0 41 40" fill="none" xmlns="http://www.w3.org/2000/svg">
<rect x="0.75" y="0.5" width="39" height="39" rx="7.5" stroke="black"/>
<path d="M20.25 24C21.3109 24 22.3283 23.5786 23.0784 22.8284C23.8286 22.0783 24.25 21.0609 24.25 20C24.25 18.9391 23.8286 17.9217 23.0784 17.1716C22.3283 16.4214 21.3109 16 20.25 16C19.1891 16 18.1717 16.4214 17.4216 17.1716C16.6714 17.9217 16.25 18.9391 16.25 20C16.25 21.0609 16.6714 22.0783 17.4216 22.8284C18.1717 23.5786 19.1891 24 20.25 24V24Z" stroke="black" stroke-width="1.5" stroke-linecap="round" stroke-linejoin="round"/>
<path d="M11.25 24V16C11.25 14.6739 11.7768 13.4021 12.7145 12.4645C13.6521 11.5268 14.9239 11 16.25 11H24.25C25.5761 11 26.8479 11.5268 27.7855 12.4645C28.7232 13.4021 29.25 14.6739 29.25 16V24C29.25 25.3261 28.7232 26.5979 27.7855 27.5355C26.8479 28.4732 25.5761 29 24.25 29H16.25C14.9239 29 13.6521 28.4732 12.7145 27.5355C11.7768 26.5979 11.25 25.3261 11.25 24Z" stroke="black" stroke-width="1.5"/>
<path d="M25.75 14.511L25.76 14.5" stroke="black" stroke-width="1.5" stroke-linecap="round" stroke-linejoin="round"/>
</svg>
