<svg width="41" height="40" viewBox="0 0 41 40" fill="none" xmlns="http://www.w3.org/2000/svg">
<rect x="0.75" y="0.5" width="39" height="39" rx="7.5" stroke="black"/>
<path d="M22.25 20L18.75 22V18L22.25 20Z" fill="black" stroke="black" stroke-width="1.5" stroke-linecap="round" stroke-linejoin="round"/>
<path d="M10.25 20.7054V19.2904C10.25 16.3954 10.25 14.9474 11.155 14.0164C12.061 13.0844 13.487 13.0444 16.338 12.9634C17.688 12.9254 19.068 12.8984 20.25 12.8984C21.431 12.8984 22.811 12.9254 24.162 12.9634C27.013 13.0444 28.439 13.0844 29.344 14.0164C30.25 14.9474 30.25 16.3964 30.25 19.2904V20.7054C30.25 23.6014 30.25 25.0484 29.345 25.9804C28.439 26.9114 27.014 26.9524 24.162 27.0324C22.812 27.0714 21.432 27.0984 20.25 27.0984C18.9458 27.0945 17.6416 27.0725 16.338 27.0324C13.487 26.9524 12.061 26.9124 11.155 25.9804C10.25 25.0484 10.25 23.6004 10.25 20.7064V20.7054Z" stroke="black" stroke-width="1.5"/>
</svg>
