<svg width="40" height="40" viewBox="0 0 40 40" fill="none" xmlns="http://www.w3.org/2000/svg">
<rect x="0.75" y="0.5" width="38.5" height="38.5" rx="7.5" stroke="black"/>
<path d="M19.75 17.05C20.667 16.113 21.861 15.5 23.25 15.5C24.7087 15.5 26.1076 16.0795 27.1391 17.1109C28.1705 18.1424 28.75 19.5413 28.75 21V28.5H26.75V21C26.75 20.0717 26.3813 19.1815 25.7249 18.5251C25.0685 17.8687 24.1783 17.5 23.25 17.5C22.3217 17.5 21.4315 17.8687 20.7751 18.5251C20.1187 19.1815 19.75 20.0717 19.75 21V28.5H17.75V16H19.75V17.05ZM12.75 14C12.3522 14 11.9706 13.842 11.6893 13.5607C11.408 13.2794 11.25 12.8978 11.25 12.5C11.25 12.1022 11.408 11.7206 11.6893 11.4393C11.9706 11.158 12.3522 11 12.75 11C13.1478 11 13.5294 11.158 13.8107 11.4393C14.092 11.7206 14.25 12.1022 14.25 12.5C14.25 12.8978 14.092 13.2794 13.8107 13.5607C13.5294 13.842 13.1478 14 12.75 14ZM11.75 16H13.75V28.5H11.75V16Z" fill="#1C1B1F"/>
</svg>
