<svg width="285" height="89" viewBox="0 0 285 89" fill="none" xmlns="http://www.w3.org/2000/svg">
<path d="M17.8594 71.155H17.3906L17.0625 70.0535C17.0469 69.991 17.0234 69.9128 16.9922 69.8191C16.5078 68.3035 15.7031 67.5457 14.5781 67.5457H10.8281V73.405H15.6562V74.0847H10.8281V80.3894H14.5781C14.8438 80.3894 15.0938 80.3503 15.3281 80.2722C16.0938 80.0066 16.6719 79.2097 17.0625 77.8816L17.3906 76.78H17.8594L17.7422 80.9988H6.9375V80.3894H8.8125V67.5457H6.9375V66.9363H17.7422L17.8594 71.155ZM24.3047 80.4128C24.3828 80.4128 24.4609 80.4207 24.5391 80.4363C24.7734 80.4832 24.8906 80.6707 24.8906 80.9988H19.7344V80.4128C20.2656 80.4128 20.6484 80.3738 20.8828 80.2957C21.2891 80.155 21.4922 79.7253 21.4922 79.0066V71.6238H19.7344V71.0378H23.1328L23.2266 73.3816C23.3828 72.9597 23.5938 72.5769 23.8594 72.2332C24.5938 71.28 25.5234 70.8035 26.6484 70.8035C26.9453 70.8035 27.2344 70.8582 27.5156 70.9675C28.4688 71.3269 29.0859 72.1238 29.3672 73.3582C29.4922 73.0457 29.6484 72.7488 29.8359 72.4675C30.5547 71.3582 31.5078 70.8035 32.6953 70.8035C33.2422 70.8035 33.75 70.9441 34.2188 71.2253C35.2656 71.866 35.7891 72.991 35.7891 74.6003V80.4128H36.9844C37.0781 80.4128 37.1562 80.4207 37.2188 80.4363C37.4531 80.4675 37.5703 80.655 37.5703 80.9988H32.3906V80.4128C32.9219 80.4128 33.2969 80.3738 33.5156 80.2957C33.8594 80.155 34.0312 79.7253 34.0312 79.0066V74.366C34.0312 73.866 33.9531 73.4207 33.7969 73.03C33.4688 72.2019 32.9062 71.7878 32.1094 71.7878C31.8125 71.7878 31.5 71.866 31.1719 72.0222C30.3125 72.4753 29.7578 73.2722 29.5078 74.4128V74.6003V80.4128H30.5625C30.6562 80.4128 30.7344 80.4207 30.7969 80.4363C31.0312 80.4675 31.1484 80.655 31.1484 80.9988H26.1094V80.4128C26.6406 80.4128 27.0156 80.3738 27.2344 80.2957C27.5781 80.155 27.75 79.7253 27.75 79.0066V74.366C27.75 73.8972 27.6875 73.4753 27.5625 73.1003C27.2656 72.241 26.7266 71.8113 25.9453 71.8113C25.5234 71.8113 25.1016 71.9675 24.6797 72.28C23.7734 72.9519 23.2969 73.9753 23.25 75.3503V80.4128H24.3047ZM45.3281 81.2332C45.2188 81.2332 45.1016 81.2253 44.9766 81.2097C43.6172 81.116 42.6016 80.53 41.9297 79.4519L41.7188 80.9988H38.7656V80.4128C39.2969 80.4128 39.6797 80.3738 39.9141 80.2957C40.3203 80.155 40.5234 79.7253 40.5234 79.0066V66.3503H38.7656V65.7644H42.2812V73.5222C42.3281 73.3816 42.3906 73.241 42.4688 73.1003C43.1875 71.5691 44.3984 70.8035 46.1016 70.8035C47.1328 70.8035 48 71.155 48.7031 71.8582C49.6406 72.8269 50.1094 74.1707 50.1094 75.8894C50.1094 77.4207 49.6719 78.6863 48.7969 79.6863C47.8594 80.7175 46.7031 81.2332 45.3281 81.2332ZM45.375 71.741C44.7344 71.741 44.1641 71.9597 43.6641 72.3972C42.7266 73.241 42.2578 74.6082 42.2578 76.4988C42.2578 77.3582 42.375 78.116 42.6094 78.7722C43.0938 80.0222 43.9219 80.6472 45.0938 80.6472C45.5469 80.6472 45.9609 80.5457 46.3359 80.3425C47.5234 79.6863 48.1172 78.2566 48.1172 76.0535C48.1172 75.3191 48.0391 74.6628 47.8828 74.0847C47.4922 72.5222 46.6562 71.741 45.375 71.741ZM57 80.4128C57.0938 80.4128 57.1719 80.4207 57.2344 80.4363C57.4688 80.4675 57.5859 80.655 57.5859 80.9988H51.7969V80.4128C52.3281 80.4128 52.7109 80.3738 52.9453 80.2957C53.3516 80.155 53.5547 79.7253 53.5547 79.0066V71.6238H51.7969V71.0378H55.1953L55.2891 73.3582C55.4922 72.8894 55.7656 72.4675 56.1094 72.0925C56.8438 71.2957 57.6797 70.8972 58.6172 70.8972C58.7578 70.8972 58.9062 70.9128 59.0625 70.9441C59.7812 71.1003 60.1406 71.53 60.1406 72.2332C60.1406 72.3269 60.125 72.4207 60.0938 72.5144C59.9688 72.9675 59.6719 73.1941 59.2031 73.1941C59.1094 73.1941 59.0156 73.1785 58.9219 73.1472C58.7031 73.0847 58.4688 72.8347 58.2188 72.3972C58 72.0066 57.7578 71.8113 57.4922 71.8113C57.2578 71.8269 56.9688 71.9988 56.625 72.3269C55.75 73.1863 55.3125 74.3269 55.3125 75.7488V80.4128H57ZM69.4219 81.2332C68.3281 81.2175 67.6875 80.5144 67.5 79.1238C67.3594 79.4519 67.1484 79.7644 66.8672 80.0613C66.0859 80.8425 65.125 81.2332 63.9844 81.2332C63.5156 81.2332 63.0703 81.1472 62.6484 80.9753C61.6016 80.5378 61.0781 79.7253 61.0781 78.5378C61.0781 78.1941 61.125 77.8738 61.2188 77.5769C61.75 76.0457 63.8516 75.28 67.5234 75.28V73.8035C67.4766 72.2878 66.7188 71.4832 65.25 71.3894C64.625 71.3894 64.1641 71.5847 63.8672 71.9753C63.7891 72.0847 63.6406 72.4285 63.4219 73.0066C63.25 73.4597 62.9844 73.6863 62.625 73.6863C62.5469 73.6863 62.4688 73.6785 62.3906 73.6628C61.9375 73.5847 61.7109 73.3035 61.7109 72.8191C61.7109 72.5535 61.8047 72.2878 61.9922 72.0222C62.5859 71.2097 63.7578 70.8035 65.5078 70.8035C65.6484 70.8035 65.7891 70.8035 65.9297 70.8035C68.1641 70.9285 69.2812 72.1082 69.2812 74.3425V79.2878C69.2969 80.0691 69.5078 80.4753 69.9141 80.5066C70.4141 80.491 70.7188 79.9128 70.8281 78.7722L71.4375 78.7957C71.4375 78.8738 71.4297 78.9597 71.4141 79.0535C71.2891 80.5066 70.625 81.2332 69.4219 81.2332ZM64.7578 80.2957C65.1016 80.2957 65.4531 80.2175 65.8125 80.0613C66.7188 79.6238 67.2891 78.866 67.5234 77.7878V75.9128C66.3047 75.9285 65.375 76.0066 64.7344 76.1472C63.5312 76.4285 62.9297 77.0925 62.9297 78.1394C62.9297 78.405 62.9531 78.6472 63 78.866C63.2188 79.8191 63.8047 80.2957 64.7578 80.2957ZM72.4922 76.1238C72.4922 75.0925 72.6875 74.1707 73.0781 73.3582C73.9062 71.655 75.3672 70.8035 77.4609 70.8035C78.3047 70.8035 79.0859 70.9832 79.8047 71.3425C80.8203 71.8582 81.3281 72.5144 81.3281 73.3113C81.3281 73.405 81.3125 73.5066 81.2812 73.616C81.1406 74.0847 80.8047 74.3035 80.2734 74.2722C80.0859 74.2566 79.9141 74.2097 79.7578 74.1316C79.5078 73.9753 79.3359 73.5847 79.2422 72.9597C79.1953 72.6941 79.1562 72.4988 79.125 72.3738C78.9531 71.7175 78.4453 71.3894 77.6016 71.3894C77.0547 71.3894 76.5547 71.53 76.1016 71.8113C75.0234 72.4988 74.4844 73.866 74.4844 75.9128C74.4844 77.0691 74.7188 78.0691 75.1875 78.9128C75.8125 80.0222 76.6797 80.5769 77.7891 80.5769C77.9141 80.5769 78.0391 80.5691 78.1641 80.5535C79.4922 80.4285 80.4453 79.7488 81.0234 78.5144L81.6328 78.7253C81.5234 78.991 81.375 79.2566 81.1875 79.5222C80.3594 80.6628 79.1328 81.2332 77.5078 81.2332C76.4141 81.2332 75.4375 80.9441 74.5781 80.366C73.1875 79.4285 72.4922 78.0144 72.4922 76.1238ZM87.5859 71.3894C87.1797 71.3894 86.7969 71.4832 86.4375 71.6707C85.3438 72.2175 84.7578 73.3894 84.6797 75.1863L87.1641 75.2566C87.8828 75.2722 88.4375 75.241 88.8281 75.1628C89.5781 74.991 89.9531 74.5144 89.9531 73.7332C89.9531 73.3894 89.8906 73.0691 89.7656 72.7722C89.4062 71.8503 88.6797 71.3894 87.5859 71.3894ZM91.6641 78.7488C91.5703 78.9675 91.4609 79.1863 91.3359 79.405C90.5391 80.6238 89.2969 81.2332 87.6094 81.2332C86.5469 81.2332 85.6016 80.9597 84.7734 80.4128C83.3828 79.4753 82.6875 78.0378 82.6875 76.1003C82.6875 75.0378 82.9062 74.0847 83.3438 73.241C84.1875 71.616 85.5859 70.8035 87.5391 70.8035C88.5391 70.8035 89.4219 71.03 90.1875 71.4832C91.2656 72.1082 91.8047 72.9519 91.8047 74.0144C91.8047 74.5925 91.5938 75.0378 91.1719 75.3503C90.625 75.741 89.3984 75.9207 87.4922 75.8894L84.6797 75.8425C84.6953 76.4988 84.7656 77.1003 84.8906 77.6472C85.3125 79.6003 86.3438 80.5769 87.9844 80.5769C88.125 80.5769 88.2734 80.5691 88.4297 80.5535C89.6484 80.3972 90.5312 79.7253 91.0781 78.5378L91.6641 78.7488ZM99.6094 84.7253C99.8281 84.7253 100.047 84.6785 100.266 84.5847C101.031 84.2566 101.852 83.0613 102.727 80.9988L98.5078 71.6472H97.3594V71.0378H101.93V71.6472H100.359L103.57 79.1472L106.57 71.6472H104.859V71.0378H108.422C108.422 71.1785 108.406 71.2957 108.375 71.3894C108.328 71.5613 108.148 71.6472 107.836 71.6472C107.695 71.6472 107.57 71.6628 107.461 71.6941C107.273 71.7566 107.102 72.0066 106.945 72.4441L103.477 80.9988C103.133 81.8425 102.773 82.5691 102.398 83.1785C101.492 84.6941 100.422 85.4519 99.1875 85.4519C98.8438 85.4519 98.5156 85.3894 98.2031 85.2644C97.5156 84.9988 97.1719 84.5691 97.1719 83.9753C97.1719 83.9285 97.1797 83.8738 97.1953 83.8113C97.2734 83.3738 97.5625 83.155 98.0625 83.155C98.25 83.155 98.4141 83.2019 98.5547 83.2957C98.7109 83.405 98.875 83.6941 99.0469 84.1628C99.1719 84.5378 99.3594 84.7253 99.6094 84.7253ZM111.469 76.0066C111.469 76.6785 111.523 77.2878 111.633 77.8347C112.039 79.7097 113.031 80.6472 114.609 80.6472C114.906 80.6472 115.195 80.6082 115.477 80.53C116.914 80.0769 117.633 78.5378 117.633 75.9128C117.633 75.4597 117.609 75.0457 117.562 74.6707C117.281 72.4832 116.273 71.3894 114.539 71.3894C114.164 71.3894 113.805 71.4519 113.461 71.5769C112.133 72.1082 111.469 73.5847 111.469 76.0066ZM114.609 70.8035C115.641 70.8035 116.586 71.0769 117.445 71.6238C118.898 72.5769 119.625 74.0378 119.625 76.0066C119.625 77.4597 119.172 78.6707 118.266 79.6394C117.281 80.7019 116.039 81.2332 114.539 81.2332C113.477 81.2332 112.508 80.9363 111.633 80.3425C110.195 79.3582 109.477 77.8816 109.477 75.9128C109.477 74.491 109.938 73.3035 110.859 72.3503C111.859 71.3191 113.109 70.8035 114.609 70.8035ZM132.633 80.4128C132.727 80.4128 132.805 80.4207 132.867 80.4363C133.102 80.4675 133.219 80.655 133.219 80.9988H129.914L129.75 78.6082C129.578 79.0457 129.352 79.4441 129.07 79.8035C128.32 80.7566 127.359 81.2332 126.188 81.2332C123.969 81.2175 122.852 79.8738 122.836 77.2019V71.6238H121.031V71.0378H124.594V77.5535C124.594 77.8035 124.609 78.0378 124.641 78.2566C124.844 79.5691 125.586 80.2253 126.867 80.2253C127.336 80.2253 127.789 80.0769 128.227 79.78C129.211 79.1238 129.703 78.0925 129.703 76.6863V71.6238H127.781V71.0378H131.461V80.4128H132.633ZM139.805 80.4128C139.898 80.4128 139.977 80.4207 140.039 80.4363C140.273 80.4675 140.391 80.655 140.391 80.9988H134.602V80.4128C135.133 80.4128 135.516 80.3738 135.75 80.2957C136.156 80.155 136.359 79.7253 136.359 79.0066V71.6238H134.602V71.0378H138L138.094 73.3582C138.297 72.8894 138.57 72.4675 138.914 72.0925C139.648 71.2957 140.484 70.8972 141.422 70.8972C141.562 70.8972 141.711 70.9128 141.867 70.9441C142.586 71.1003 142.945 71.53 142.945 72.2332C142.945 72.3269 142.93 72.4207 142.898 72.5144C142.773 72.9675 142.477 73.1941 142.008 73.1941C141.914 73.1941 141.82 73.1785 141.727 73.1472C141.508 73.0847 141.273 72.8347 141.023 72.3972C140.805 72.0066 140.562 71.8113 140.297 71.8113C140.062 71.8269 139.773 71.9988 139.43 72.3269C138.555 73.1863 138.117 74.3269 138.117 75.7488V80.4128H139.805ZM154.312 80.9988H148.57V80.3894H150.445V67.5457H148.57V66.9363H154.312V67.5457H152.461V80.3894H153.703C153.781 80.3894 153.859 80.3972 153.938 80.4128C154.188 80.4597 154.312 80.655 154.312 80.9988ZM160.523 80.4128C160.602 80.4128 160.68 80.4207 160.758 80.4363C160.992 80.4832 161.109 80.6707 161.109 80.9988H155.953V80.4128C156.484 80.4128 156.867 80.3738 157.102 80.2957C157.508 80.155 157.711 79.7253 157.711 79.0066V71.6238H155.953V71.0378H159.352L159.445 73.3816C159.602 72.9597 159.812 72.5769 160.078 72.2332C160.812 71.28 161.742 70.8035 162.867 70.8035C163.164 70.8035 163.453 70.8582 163.734 70.9675C164.688 71.3269 165.305 72.1238 165.586 73.3582C165.711 73.0457 165.867 72.7488 166.055 72.4675C166.773 71.3582 167.727 70.8035 168.914 70.8035C169.461 70.8035 169.969 70.9441 170.438 71.2253C171.484 71.866 172.008 72.991 172.008 74.6003V80.4128H173.203C173.297 80.4128 173.375 80.4207 173.438 80.4363C173.672 80.4675 173.789 80.655 173.789 80.9988H168.609V80.4128C169.141 80.4128 169.516 80.3738 169.734 80.2957C170.078 80.155 170.25 79.7253 170.25 79.0066V74.366C170.25 73.866 170.172 73.4207 170.016 73.03C169.688 72.2019 169.125 71.7878 168.328 71.7878C168.031 71.7878 167.719 71.866 167.391 72.0222C166.531 72.4753 165.977 73.2722 165.727 74.4128V74.6003V80.4128H166.781C166.875 80.4128 166.953 80.4207 167.016 80.4363C167.25 80.4675 167.367 80.655 167.367 80.9988H162.328V80.4128C162.859 80.4128 163.234 80.3738 163.453 80.2957C163.797 80.155 163.969 79.7253 163.969 79.0066V74.366C163.969 73.8972 163.906 73.4753 163.781 73.1003C163.484 72.241 162.945 71.8113 162.164 71.8113C161.742 71.8113 161.32 71.9675 160.898 72.28C159.992 72.9519 159.516 73.9753 159.469 75.3503V80.4128H160.523ZM178.5 84.866H180.141C180.234 84.866 180.312 84.8738 180.375 84.8894C180.609 84.9207 180.727 85.1082 180.727 85.4519H174.984V84.866C175.516 84.866 175.898 84.8269 176.133 84.7488C176.539 84.6082 176.742 84.1785 176.742 83.4597V71.6238H174.984V71.0378H178.359L178.477 73.5925C178.602 73.2488 178.758 72.9207 178.945 72.6082C179.695 71.405 180.828 70.8035 182.344 70.8035C183.328 70.8035 184.164 71.116 184.852 71.741C185.836 72.6628 186.328 74.0144 186.328 75.7957C186.328 77.3582 185.875 78.6472 184.969 79.6628C184.031 80.7097 182.867 81.2332 181.477 81.2332C180.352 81.1707 179.359 80.7644 178.5 80.0144V84.866ZM181.594 71.741C181.031 71.741 180.516 71.9128 180.047 72.2566C179 73.0378 178.477 74.4441 178.477 76.4753C178.477 77.3503 178.594 78.1082 178.828 78.7488C179.281 80.0144 180.109 80.6472 181.312 80.6472C181.734 80.6472 182.125 80.5613 182.484 80.3894C183.719 79.78 184.336 78.3269 184.336 76.03C184.336 75.3894 184.281 74.8113 184.172 74.2957C183.812 72.5925 182.953 71.741 181.594 71.741ZM193.102 71.3894C192.695 71.3894 192.312 71.4832 191.953 71.6707C190.859 72.2175 190.273 73.3894 190.195 75.1863L192.68 75.2566C193.398 75.2722 193.953 75.241 194.344 75.1628C195.094 74.991 195.469 74.5144 195.469 73.7332C195.469 73.3894 195.406 73.0691 195.281 72.7722C194.922 71.8503 194.195 71.3894 193.102 71.3894ZM197.18 78.7488C197.086 78.9675 196.977 79.1863 196.852 79.405C196.055 80.6238 194.812 81.2332 193.125 81.2332C192.062 81.2332 191.117 80.9597 190.289 80.4128C188.898 79.4753 188.203 78.0378 188.203 76.1003C188.203 75.0378 188.422 74.0847 188.859 73.241C189.703 71.616 191.102 70.8035 193.055 70.8035C194.055 70.8035 194.938 71.03 195.703 71.4832C196.781 72.1082 197.32 72.9519 197.32 74.0144C197.32 74.5925 197.109 75.0378 196.688 75.3503C196.141 75.741 194.914 75.9207 193.008 75.8894L190.195 75.8425C190.211 76.4988 190.281 77.1003 190.406 77.6472C190.828 79.6003 191.859 80.5769 193.5 80.5769C193.641 80.5769 193.789 80.5691 193.945 80.5535C195.164 80.3972 196.047 79.7253 196.594 78.5378L197.18 78.7488ZM204.094 80.4128C204.188 80.4128 204.266 80.4207 204.328 80.4363C204.562 80.4675 204.68 80.655 204.68 80.9988H198.891V80.4128C199.422 80.4128 199.805 80.3738 200.039 80.2957C200.445 80.155 200.648 79.7253 200.648 79.0066V71.6238H198.891V71.0378H202.289L202.383 73.3582C202.586 72.8894 202.859 72.4675 203.203 72.0925C203.938 71.2957 204.773 70.8972 205.711 70.8972C205.852 70.8972 206 70.9128 206.156 70.9441C206.875 71.1003 207.234 71.53 207.234 72.2332C207.234 72.3269 207.219 72.4207 207.188 72.5144C207.062 72.9675 206.766 73.1941 206.297 73.1941C206.203 73.1941 206.109 73.1785 206.016 73.1472C205.797 73.0847 205.562 72.8347 205.312 72.3972C205.094 72.0066 204.852 71.8113 204.586 71.8113C204.352 71.8269 204.062 71.9988 203.719 72.3269C202.844 73.1863 202.406 74.3269 202.406 75.7488V80.4128H204.094ZM213.234 80.4128C213.328 80.4128 213.406 80.4207 213.469 80.4363C213.703 80.4675 213.82 80.655 213.82 80.9988H208.078V80.4128C208.609 80.4128 208.992 80.3738 209.227 80.2957C209.633 80.155 209.836 79.7253 209.836 79.0066V71.6238H208.195V71.0378H209.836V70.6628C209.836 69.3816 210.078 68.3191 210.562 67.4753C211.281 66.2566 212.375 65.6472 213.844 65.6472C214.406 65.6472 214.914 65.7332 215.367 65.905C216.148 66.2332 216.539 66.6863 216.539 67.2644C216.539 67.3269 216.531 67.3972 216.516 67.4753C216.422 67.9128 216.117 68.1316 215.602 68.1316C215.445 68.1316 215.305 68.0847 215.18 67.991C215.055 67.8972 214.852 67.6003 214.57 67.1003C214.242 66.5222 213.836 66.2332 213.352 66.2332C213.148 66.2332 212.961 66.2722 212.789 66.3503C211.992 66.7097 211.594 68.2253 211.594 70.8972V71.0378H214.289V71.6238H211.594V80.4128H213.234ZM220.312 71.3894C219.906 71.3894 219.523 71.4832 219.164 71.6707C218.07 72.2175 217.484 73.3894 217.406 75.1863L219.891 75.2566C220.609 75.2722 221.164 75.241 221.555 75.1628C222.305 74.991 222.68 74.5144 222.68 73.7332C222.68 73.3894 222.617 73.0691 222.492 72.7722C222.133 71.8503 221.406 71.3894 220.312 71.3894ZM224.391 78.7488C224.297 78.9675 224.188 79.1863 224.062 79.405C223.266 80.6238 222.023 81.2332 220.336 81.2332C219.273 81.2332 218.328 80.9597 217.5 80.4128C216.109 79.4753 215.414 78.0378 215.414 76.1003C215.414 75.0378 215.633 74.0847 216.07 73.241C216.914 71.616 218.312 70.8035 220.266 70.8035C221.266 70.8035 222.148 71.03 222.914 71.4832C223.992 72.1082 224.531 72.9519 224.531 74.0144C224.531 74.5925 224.32 75.0378 223.898 75.3503C223.352 75.741 222.125 75.9207 220.219 75.8894L217.406 75.8425C217.422 76.4988 217.492 77.1003 217.617 77.6472C218.039 79.6003 219.07 80.5769 220.711 80.5769C220.852 80.5769 221 80.5691 221.156 80.5535C222.375 80.3972 223.258 79.7253 223.805 78.5378L224.391 78.7488ZM226.289 76.1238C226.289 75.0925 226.484 74.1707 226.875 73.3582C227.703 71.655 229.164 70.8035 231.258 70.8035C232.102 70.8035 232.883 70.9832 233.602 71.3425C234.617 71.8582 235.125 72.5144 235.125 73.3113C235.125 73.405 235.109 73.5066 235.078 73.616C234.938 74.0847 234.602 74.3035 234.07 74.2722C233.883 74.2566 233.711 74.2097 233.555 74.1316C233.305 73.9753 233.133 73.5847 233.039 72.9597C232.992 72.6941 232.953 72.4988 232.922 72.3738C232.75 71.7175 232.242 71.3894 231.398 71.3894C230.852 71.3894 230.352 71.53 229.898 71.8113C228.82 72.4988 228.281 73.866 228.281 75.9128C228.281 77.0691 228.516 78.0691 228.984 78.9128C229.609 80.0222 230.477 80.5769 231.586 80.5769C231.711 80.5769 231.836 80.5691 231.961 80.5535C233.289 80.4285 234.242 79.7488 234.82 78.5144L235.43 78.7253C235.32 78.991 235.172 79.2566 234.984 79.5222C234.156 80.6628 232.93 81.2332 231.305 81.2332C230.211 81.2332 229.234 80.9441 228.375 80.366C226.984 79.4285 226.289 78.0144 226.289 76.1238ZM236.016 71.6238V71.0378H237.656V68.8113L239.414 68.3191V71.0378H243.047V71.6238H239.414V78.7488C239.43 79.9207 239.859 80.5222 240.703 80.5535C241.453 80.4441 242.023 79.741 242.414 78.4441L243.047 78.5613C243.047 78.5769 243.047 78.5925 243.047 78.6082C242.688 80.3738 241.789 81.2566 240.352 81.2566C238.664 81.1941 237.766 80.1863 237.656 78.2332V71.6238H236.016ZM248.672 80.4128C248.75 80.4128 248.828 80.4207 248.906 80.4363C249.141 80.4675 249.258 80.655 249.258 80.9988H243.867V80.4128C244.398 80.4128 244.781 80.3816 245.016 80.3191C245.5 80.1628 245.742 79.7253 245.742 79.0066V71.6238H243.867V71.0378H247.5V80.4128H248.672ZM247.781 67.616C247.781 67.8035 247.742 67.9832 247.664 68.155C247.445 68.655 247.062 68.905 246.516 68.905C246.344 68.905 246.172 68.8738 246 68.8113C245.484 68.5925 245.227 68.1941 245.227 67.616C245.227 67.4285 245.266 67.2488 245.344 67.0769C245.578 66.5769 245.969 66.3269 246.516 66.3269C246.688 66.3269 246.867 66.366 247.055 66.4441C247.539 66.6785 247.781 67.0691 247.781 67.616ZM252.891 76.0066C252.891 76.6785 252.945 77.2878 253.055 77.8347C253.461 79.7097 254.453 80.6472 256.031 80.6472C256.328 80.6472 256.617 80.6082 256.898 80.53C258.336 80.0769 259.055 78.5378 259.055 75.9128C259.055 75.4597 259.031 75.0457 258.984 74.6707C258.703 72.4832 257.695 71.3894 255.961 71.3894C255.586 71.3894 255.227 71.4519 254.883 71.5769C253.555 72.1082 252.891 73.5847 252.891 76.0066ZM256.031 70.8035C257.062 70.8035 258.008 71.0769 258.867 71.6238C260.32 72.5769 261.047 74.0378 261.047 76.0066C261.047 77.4597 260.594 78.6707 259.688 79.6394C258.703 80.7019 257.461 81.2332 255.961 81.2332C254.898 81.2332 253.93 80.9363 253.055 80.3425C251.617 79.3582 250.898 77.8816 250.898 75.9128C250.898 74.491 251.359 73.3035 252.281 72.3503C253.281 71.3191 254.531 70.8035 256.031 70.8035ZM267.258 80.4128C267.352 80.4128 267.43 80.4207 267.492 80.4363C267.727 80.4675 267.844 80.655 267.844 80.9988H262.688V80.4128C263.219 80.4128 263.602 80.3738 263.836 80.2957C264.242 80.155 264.445 79.7253 264.445 79.0066V71.6238H262.688V71.0378H266.086L266.18 73.3816C266.352 72.9441 266.578 72.5457 266.859 72.1863C267.609 71.2644 268.562 70.8035 269.719 70.8035C270.297 70.8035 270.836 70.9519 271.336 71.2488C272.414 71.9207 272.953 73.0378 272.953 74.6003V80.4128H274.125C274.219 80.4128 274.297 80.4207 274.359 80.4363C274.594 80.4675 274.711 80.655 274.711 80.9988H269.438V80.4128C269.969 80.4128 270.352 80.3738 270.586 80.2957C270.992 80.155 271.195 79.7253 271.195 79.0066V74.366C271.195 73.9128 271.125 73.5066 270.984 73.1472C270.641 72.2566 269.992 71.8113 269.039 71.8113C268.602 71.8113 268.172 71.9441 267.75 72.2097C266.766 72.8503 266.25 73.8972 266.203 75.3503V80.4128H267.258ZM279.75 80.6003C280.828 80.6003 281.555 80.2722 281.93 79.616C282.07 79.3816 282.141 79.1238 282.141 78.8425C282.141 78.1863 281.664 77.6238 280.711 77.155C280.508 77.0457 280.172 76.8894 279.703 76.6863C278.422 76.155 277.57 75.655 277.148 75.1863C276.695 74.6707 276.469 74.0691 276.469 73.3816C276.469 72.3035 277.062 71.5457 278.25 71.1082C278.797 70.905 279.391 70.8035 280.031 70.8035C281.062 70.8035 281.953 71.0222 282.703 71.4597C282.703 71.0066 282.812 70.7488 283.031 70.6863C283.125 70.6707 283.227 70.6628 283.336 70.6628V73.5925H282.727C282.695 72.155 281.898 71.4285 280.336 71.4128C279.164 71.4128 278.438 71.7566 278.156 72.4441C278.078 72.6316 278.039 72.8269 278.039 73.03C278.039 73.7019 278.523 74.2722 279.492 74.741C279.711 74.8503 280.055 74.9988 280.523 75.1863C281.789 75.7019 282.633 76.1941 283.055 76.6628C283.508 77.1628 283.734 77.7566 283.734 78.4441C283.734 79.7097 283.062 80.5535 281.719 80.9753C281.203 81.1472 280.641 81.2332 280.031 81.2332C278.906 81.2175 277.93 80.9363 277.102 80.3894C277.102 80.7957 277 81.03 276.797 81.0925C276.703 81.1082 276.594 81.116 276.469 81.116V77.5535H277.125C277.156 79.5691 278.031 80.5847 279.75 80.6003Z" fill="white" fill-opacity="0.83"/>
<path d="M69.2 40.398C65.7067 40.398 62.8133 39.6514 60.52 38.158C58.2267 36.6647 57.08 34.9847 57.08 33.118C57.08 31.2247 58.04 30.278 59.96 30.278C60.7333 30.278 61.4133 30.5447 62 31.078C62.5867 31.5847 63.08 32.2114 63.48 32.958C63.88 33.678 64.3067 34.4114 64.76 35.158C65.2133 35.878 65.84 36.4914 66.64 36.998C67.44 37.5047 68.3867 37.758 69.48 37.758C70.6533 37.758 71.5733 37.4647 72.24 36.878C72.9333 36.2914 73.28 35.478 73.28 34.438C73.28 33.398 72.9867 32.5314 72.4 31.838C71.84 31.118 71.0933 30.5714 70.16 30.198C69.2533 29.798 68.24 29.4514 67.12 29.158C66 28.838 64.88 28.478 63.76 28.078C62.64 27.6514 61.6133 27.1447 60.68 26.558C59.7733 25.9447 59.0267 25.078 58.44 23.958C57.8533 22.8114 57.56 21.4514 57.56 19.878C57.56 17.318 58.5467 15.238 60.52 13.638C62.4933 12.038 65.12 11.238 68.4 11.238C71.6267 11.238 74.3467 11.9714 76.56 13.438C78.8 14.878 79.9067 16.5314 79.88 18.398C79.88 19.3047 79.6133 20.0247 79.08 20.558C78.5733 21.0647 77.8267 21.318 76.84 21.318C75.96 21.318 75.2133 21.0647 74.6 20.558C73.9867 20.0247 73.4933 19.398 73.12 18.678C72.7733 17.958 72.4133 17.238 72.04 16.518C71.6933 15.7714 71.2 15.1447 70.56 14.638C69.9467 14.1047 69.1867 13.838 68.28 13.838C67.08 13.838 66.16 14.1714 65.52 14.838C64.88 15.478 64.56 16.318 64.56 17.358C64.56 18.5047 64.84 19.478 65.4 20.278C65.9867 21.0514 66.7333 21.6514 67.64 22.078C68.5733 22.5047 69.6 22.8914 70.72 23.238C71.84 23.558 72.9467 23.918 74.04 24.318C75.16 24.718 76.1733 25.2114 77.08 25.798C78.0133 26.358 78.76 27.1714 79.32 28.238C79.9067 29.3047 80.2 30.598 80.2 32.118C80.2 34.6514 79.1333 36.6647 77 38.158C74.8933 39.6514 72.2933 40.398 69.2 40.398ZM100.595 20.558C101.769 20.398 102.355 20.678 102.355 21.398V37.478C102.355 40.8647 101.315 43.4647 99.2353 45.278C97.1553 47.0914 94.5553 47.998 91.4353 47.998C89.062 47.998 87.0086 47.478 85.2753 46.438C83.542 45.398 82.6753 44.0247 82.6753 42.318C82.6753 41.5714 82.9286 40.9447 83.4353 40.438C83.942 39.9314 84.6353 39.678 85.5153 39.678C86.262 39.678 86.8886 39.8914 87.3953 40.318C87.902 40.7714 88.2886 41.3047 88.5553 41.918C88.8486 42.5314 89.1153 43.1447 89.3553 43.758C89.622 44.398 89.982 44.9314 90.4353 45.358C90.9153 45.8114 91.502 46.0514 92.1953 46.078C94.302 46.1314 95.3553 43.638 95.3553 38.598V38.558C94.182 39.518 92.582 39.998 90.5553 39.998C88.582 39.998 86.8886 39.3047 85.4753 37.918C84.062 36.5314 83.3553 34.7314 83.3553 32.518V25.838C83.3553 25.1447 83.0886 24.478 82.5553 23.838C82.022 23.198 81.7553 22.7447 81.7553 22.478V22.318C81.7553 21.7847 82.062 21.478 82.6753 21.398L88.6353 20.598C89.8886 20.438 90.5153 20.7047 90.5153 21.398L90.3953 33.238C90.3686 35.9847 91.1286 37.358 92.6753 37.358C93.422 37.358 94.0486 37.0114 94.5553 36.318C95.0886 35.6247 95.3553 34.758 95.3553 33.718V25.838C95.3553 25.1447 95.0753 24.478 94.5153 23.838C93.982 23.198 93.7153 22.7447 93.7153 22.478V22.318C93.7153 21.7847 94.022 21.478 94.6353 21.398L100.595 20.558ZM138.927 35.638C138.98 36.3047 139.234 36.9714 139.687 37.638C140.14 38.3047 140.367 38.798 140.367 39.118V39.278C140.367 39.7847 140.047 40.038 139.407 40.038H131.407C130.767 40.038 130.447 39.7847 130.447 39.278V39.118C130.447 38.8247 130.7 38.3447 131.207 37.678C131.714 37.0114 131.94 36.3314 131.887 35.638L131.487 28.558C131.38 26.558 131.114 25.1447 130.687 24.318C130.26 23.4647 129.607 23.038 128.727 23.038C127.927 23.038 127.314 23.3847 126.887 24.078C126.46 24.7714 126.247 25.6914 126.247 26.838C126.327 27.398 126.367 27.958 126.367 28.518V35.638C126.367 36.3047 126.607 36.9714 127.087 37.638C127.567 38.3047 127.807 38.798 127.807 39.118V39.278C127.807 39.7847 127.487 40.038 126.847 40.038H118.887C118.247 40.038 117.927 39.7847 117.927 39.278V39.118C117.927 38.798 118.154 38.3047 118.607 37.638C119.087 36.9714 119.327 36.3047 119.327 35.638V28.038C119.327 24.7047 118.42 23.038 116.607 23.038C115.727 23.038 115.06 23.3847 114.607 24.078C114.154 24.7714 113.927 25.6914 113.927 26.838V35.638C113.927 36.3047 114.22 36.9714 114.807 37.638C115.394 38.3047 115.687 38.798 115.687 39.118V39.278C115.687 39.7847 115.367 40.038 114.727 40.038H106.087C105.447 40.038 105.127 39.7847 105.127 39.278V39.118C105.127 38.798 105.42 38.3047 106.007 37.638C106.594 36.9714 106.887 36.3047 106.887 35.638V27.758C106.887 27.2247 106.7 26.7714 106.327 26.398C105.98 25.998 105.634 25.6514 105.287 25.358C104.94 25.0647 104.767 24.758 104.767 24.438V24.318C104.767 23.9714 105.087 23.638 105.727 23.318L111.727 20.558C112.207 20.3447 112.58 20.3447 112.847 20.558C113.114 20.7714 113.247 21.0914 113.247 21.518V22.958C114.474 21.2514 116.247 20.398 118.567 20.398C121.527 20.398 123.714 21.4914 125.127 23.678C125.66 22.638 126.447 21.838 127.487 21.278C128.527 20.6914 129.714 20.398 131.047 20.398C132.994 20.398 134.647 21.0514 136.007 22.358C137.394 23.6647 138.194 25.8114 138.407 28.798L138.927 35.638ZM175.724 35.638C175.777 36.3047 176.03 36.9714 176.484 37.638C176.937 38.3047 177.164 38.798 177.164 39.118V39.278C177.164 39.7847 176.844 40.038 176.204 40.038H168.204C167.564 40.038 167.244 39.7847 167.244 39.278V39.118C167.244 38.8247 167.497 38.3447 168.004 37.678C168.51 37.0114 168.737 36.3314 168.684 35.638L168.284 28.558C168.177 26.558 167.91 25.1447 167.484 24.318C167.057 23.4647 166.404 23.038 165.524 23.038C164.724 23.038 164.11 23.3847 163.684 24.078C163.257 24.7714 163.044 25.6914 163.044 26.838C163.124 27.398 163.164 27.958 163.164 28.518V35.638C163.164 36.3047 163.404 36.9714 163.884 37.638C164.364 38.3047 164.604 38.798 164.604 39.118V39.278C164.604 39.7847 164.284 40.038 163.644 40.038H155.684C155.044 40.038 154.724 39.7847 154.724 39.278V39.118C154.724 38.798 154.95 38.3047 155.404 37.638C155.884 36.9714 156.124 36.3047 156.124 35.638V28.038C156.124 24.7047 155.217 23.038 153.404 23.038C152.524 23.038 151.857 23.3847 151.404 24.078C150.95 24.7714 150.724 25.6914 150.724 26.838V35.638C150.724 36.3047 151.017 36.9714 151.604 37.638C152.19 38.3047 152.484 38.798 152.484 39.118V39.278C152.484 39.7847 152.164 40.038 151.524 40.038H142.884C142.244 40.038 141.924 39.7847 141.924 39.278V39.118C141.924 38.798 142.217 38.3047 142.804 37.638C143.39 36.9714 143.684 36.3047 143.684 35.638V27.758C143.684 27.2247 143.497 26.7714 143.124 26.398C142.777 25.998 142.43 25.6514 142.084 25.358C141.737 25.0647 141.564 24.758 141.564 24.438V24.318C141.564 23.9714 141.884 23.638 142.524 23.318L148.524 20.558C149.004 20.3447 149.377 20.3447 149.644 20.558C149.91 20.7714 150.044 21.0914 150.044 21.518V22.958C151.27 21.2514 153.044 20.398 155.364 20.398C158.324 20.398 160.51 21.4914 161.924 23.678C162.457 22.638 163.244 21.838 164.284 21.278C165.324 20.6914 166.51 20.398 167.844 20.398C169.79 20.398 171.444 21.0514 172.804 22.358C174.19 23.6647 174.99 25.8114 175.204 28.798L175.724 35.638ZM200.641 22.678C200.641 22.8914 200.494 23.1447 200.201 23.438C199.907 23.7314 199.614 24.118 199.321 24.598C199.027 25.078 198.881 25.638 198.881 26.278V35.638C198.881 36.3047 199.147 36.9714 199.681 37.638C200.214 38.278 200.481 38.758 200.481 39.078V39.238C200.481 39.7447 200.187 39.998 199.601 39.998H193.881C193.587 39.998 193.334 39.9047 193.121 39.718C192.934 39.5314 192.841 39.2914 192.841 38.998V38.638C191.614 39.8114 189.987 40.398 187.961 40.398C185.374 40.398 183.147 39.518 181.281 37.758C179.441 35.9714 178.521 33.518 178.521 30.398C178.521 27.4914 179.454 25.1047 181.321 23.238C183.187 21.3447 185.414 20.398 188.001 20.398C189.974 20.398 191.587 20.958 192.841 22.078V21.838C192.841 21.4114 193.014 21.0914 193.361 20.878C193.707 20.6647 194.174 20.598 194.761 20.678L199.681 21.398C200.321 21.478 200.641 21.8514 200.641 22.518V22.678ZM189.561 38.438C190.281 38.4647 190.881 38.1714 191.361 37.558C191.867 36.9447 192.121 36.118 192.121 35.078V27.358C192.121 25.918 191.761 24.7314 191.041 23.798C190.321 22.838 189.481 22.358 188.521 22.358C186.547 22.358 185.494 23.998 185.361 27.278C185.307 28.5314 185.414 29.9847 185.681 31.638C185.974 33.2914 186.454 34.838 187.121 36.278C187.814 37.6914 188.627 38.4114 189.561 38.438ZM211.023 40.398C208.996 40.398 207.396 39.758 206.223 38.478C205.076 37.198 204.503 35.3714 204.503 32.998V23.518H202.983C202.716 23.518 202.49 23.438 202.303 23.278C202.143 23.0914 202.063 22.8647 202.063 22.598V21.718C202.063 21.1047 202.37 20.798 202.983 20.798H203.743C204.97 20.798 206.023 20.438 206.903 19.718C207.783 18.9714 208.356 17.9847 208.623 16.758C208.756 16.0647 209.116 15.718 209.703 15.718H210.623C211.343 15.718 211.703 16.0647 211.703 16.758V20.798H215.823C216.09 20.798 216.303 20.8914 216.463 21.078C216.65 21.238 216.743 21.4514 216.743 21.718V22.598C216.743 22.8647 216.65 23.0914 216.463 23.278C216.303 23.438 216.09 23.518 215.823 23.518H211.703V33.118C211.703 33.7847 211.876 34.318 212.223 34.718C212.57 35.0914 212.996 35.278 213.503 35.278C214.65 35.278 215.53 34.7847 216.143 33.798C216.33 33.558 216.543 33.4247 216.783 33.398C217.023 33.3447 217.223 33.3847 217.383 33.518C217.57 33.6514 217.663 33.838 217.663 34.078C217.663 35.758 217.063 37.238 215.863 38.518C214.69 39.7714 213.076 40.398 211.023 40.398ZM232.236 20.398C233.383 20.398 234.289 20.7714 234.956 21.518C235.649 22.2647 235.996 23.2114 235.996 24.358C235.996 26.8647 234.969 28.118 232.916 28.118C232.089 28.118 231.463 27.9314 231.036 27.558C230.609 27.158 230.356 26.718 230.276 26.238C230.223 25.758 230.089 25.3314 229.876 24.958C229.663 24.558 229.343 24.358 228.916 24.358C227.929 24.358 227.436 25.638 227.436 28.198V35.638C227.436 36.3047 227.783 36.9714 228.476 37.638C229.196 38.278 229.556 38.758 229.556 39.078V39.238C229.556 39.7447 229.236 39.998 228.596 39.998H219.996C219.356 39.998 219.036 39.7447 219.036 39.238V39.078C219.036 38.758 219.303 38.278 219.836 37.638C220.369 36.9714 220.636 36.3047 220.636 35.638V27.678C220.636 27.1447 220.476 26.6914 220.156 26.318C219.836 25.9447 219.516 25.6247 219.196 25.358C218.876 25.0914 218.716 24.798 218.716 24.478V24.358C218.716 23.9047 219.023 23.518 219.636 23.198L225.276 20.558C225.809 20.3714 226.183 20.358 226.396 20.518C226.609 20.678 226.716 20.9847 226.716 21.438V24.358C227.623 21.718 229.463 20.398 232.236 20.398ZM242.36 18.438C241 18.438 239.893 18.0647 239.04 17.318C238.187 16.5447 237.76 15.5847 237.76 14.438C237.76 13.2914 238.187 12.3447 239.04 11.598C239.893 10.8247 241 10.438 242.36 10.438C243.693 10.438 244.787 10.8247 245.64 11.598C246.493 12.3447 246.92 13.2914 246.92 14.438C246.92 15.5847 246.493 16.5447 245.64 17.318C244.787 18.0647 243.693 18.438 242.36 18.438ZM238.08 39.998C237.44 39.998 237.12 39.7447 237.12 39.238V39.078C237.12 38.758 237.387 38.2647 237.92 37.598C238.453 36.9314 238.72 36.2647 238.72 35.598V27.998C238.72 27.3047 238.453 26.638 237.92 25.998C237.387 25.3314 237.12 24.878 237.12 24.638V24.478C237.12 24.158 237.427 23.8514 238.04 23.558L244.08 20.598C244.64 20.358 245.08 20.3314 245.4 20.518C245.72 20.7047 245.88 21.0114 245.88 21.438V35.598C245.88 36.2647 246.173 36.9314 246.76 37.598C247.373 38.2647 247.68 38.758 247.68 39.078V39.238C247.68 39.7447 247.347 39.998 246.68 39.998H238.08ZM259.543 40.398C256.503 40.398 254.009 39.4114 252.063 37.438C250.116 35.438 249.143 33.078 249.143 30.358C249.143 27.3447 250.129 24.9447 252.103 23.158C254.076 21.3447 256.476 20.4247 259.303 20.398C261.676 20.3714 263.689 20.918 265.343 22.038C266.996 23.1314 267.823 24.558 267.823 26.318C267.823 26.9847 267.583 27.5447 267.103 27.998C266.649 28.4514 265.916 28.6647 264.903 28.638C263.996 28.5847 263.209 28.2247 262.543 27.558C261.903 26.8914 261.436 26.1714 261.143 25.398C260.849 24.6247 260.449 23.9314 259.943 23.318C259.436 22.678 258.863 22.358 258.223 22.358C257.396 22.3847 256.716 22.8247 256.183 23.678C255.676 24.5314 255.423 25.5847 255.423 26.838C255.423 29.4514 256.009 31.5447 257.183 33.118C258.383 34.6914 259.969 35.478 261.943 35.478C263.729 35.478 265.209 34.7047 266.383 33.158C266.649 32.838 266.969 32.7314 267.343 32.838C267.716 32.918 267.903 33.1714 267.903 33.598C267.849 35.4647 267.089 37.0647 265.623 38.398C264.156 39.7314 262.129 40.398 259.543 40.398Z" fill="#C4001C"/>
<g clip-path="url(#clip0_676_3073)">
<path d="M27.0515 46.5614C27.0008 43.9538 27.001 41.9376 27.0284 40.2533C27.7873 39.5889 30.5945 36.4064 39.4274 39.2234C41.9092 39.0473 37.8729 32.9137 27.3773 27.2375C27.3643 25.8029 27.3294 24.143 27.264 22.1619C27.6751 22.5387 28.4586 22.8558 29.8661 23.1694C30.7873 24.4026 28.6645 24.7898 27.5688 24.6688C30.8285 28.1574 32.7415 30.3535 45.1884 30.8576C44.9456 25.5508 42.4006 20.7467 39.4046 21.3158C43.4623 18.8204 41.5414 13.438 40.8005 9.15608C36.2717 9.07176 30.6071 12.5741 27.1919 20.1683C27.0718 17.0952 26.8864 13.3332 26.612 8.61994L26.8852 20.8759C26.8649 21.0333 26.8559 21.1811 26.8643 21.3207L26.7111 24.574L26.7255 26.89L26.8054 39.7562C26.7714 40.1594 26.7674 40.3385 26.8274 40.366L27.0515 46.5614Z" fill="url(#paint0_linear_676_3073)"/>
<path d="M24.7828 8.7928C24.8324 10.7823 24.8761 12.5611 24.9151 14.1942C24.3393 13.9136 22.1406 14.5488 14.5877 12.3648C12.2652 12.65 15.0892 22.75 25.1922 27.8767C25.2045 28.6586 25.2167 29.4624 25.2289 30.2999L25.1198 33.1807C25.0671 32.3824 24.5578 31.704 22.4943 31.3165C21.6408 30.159 23.4407 30.0089 24.4473 30.0785C21.4329 26.8328 19.6629 24.7836 8.23426 24.8383C8.49087 29.9819 10.8576 34.5365 13.6041 33.8527C9.89522 36.4539 11.6928 41.5975 12.4001 45.7239C16.6848 45.6041 22.0525 41.732 25.0989 33.7325L25.4276 45.624C25.3446 38.9386 25.2863 34.2448 25.2289 30.2999L25.2352 30.133L25.2073 27.8843L25.0521 15.3916C25.1005 14.7258 25.1494 14.4127 25.0059 14.2595L24.7828 8.7928Z" fill="url(#paint1_linear_676_3073)"/>
</g>
<defs>
<linearGradient id="paint0_linear_676_3073" x1="36.0594" y1="47.5563" x2="40.3065" y2="9.10152" gradientUnits="userSpaceOnUse">
<stop stop-color="#B40E1D"/>
<stop offset="1" stop-color="#280226"/>
</linearGradient>
<linearGradient id="paint1_linear_676_3073" x1="16.5247" y1="8.22167" x2="13.9238" y2="45.8292" gradientUnits="userSpaceOnUse">
<stop stop-color="#B40E1D"/>
<stop offset="1" stop-color="#280226"/>
</linearGradient>
<clipPath id="clip0_676_3073">
<rect width="53" height="53" fill="white" transform="translate(0 0.999756)"/>
</clipPath>
</defs>
</svg>
