<svg width="373" height="78" viewBox="0 0 373 78" fill="none" xmlns="http://www.w3.org/2000/svg">
<path d="M11.3906 66.3198C11.3906 67.2729 11.0547 68.0933 10.3828 68.7808C9.39844 69.7495 8.00781 70.2339 6.21094 70.2339C4.67969 70.2339 3.3125 69.8354 2.10938 69.0386C2.10938 69.3667 2.09375 69.5933 2.0625 69.7183C2 69.937 1.78125 70.0464 1.40625 70.0464V65.1948H2.10938C2.375 68.0854 3.70312 69.5464 6.09375 69.5776C6.70312 69.5776 7.25781 69.4683 7.75781 69.2495C8.82031 68.7651 9.35156 67.9761 9.35156 66.8823C9.35156 66.4604 9.25 66.0698 9.04688 65.7104C8.67188 65.0698 7.78125 64.437 6.375 63.812C4.85938 63.1558 3.96875 62.7573 3.70312 62.6167C2.23438 61.7886 1.5 60.7183 1.5 59.4058C1.5 58.5308 1.8125 57.7651 2.4375 57.1089C3.375 56.1714 4.6875 55.7026 6.375 55.7026C7.76562 55.7026 9.01562 56.0073 10.125 56.6167C10.125 56.4292 10.1406 56.2808 10.1719 56.1714C10.2344 55.937 10.4531 55.8198 10.8281 55.8198V59.9214H10.125C10.1406 59.0464 9.92188 58.3042 9.46875 57.6948C8.78125 56.8042 7.78125 56.3589 6.46875 56.3589C5.9375 56.3589 5.45312 56.4448 5.01562 56.6167C4 57.0229 3.49219 57.7495 3.49219 58.7964C3.49219 59.187 3.58594 59.5542 3.77344 59.8979C4.13281 60.5229 5.00781 61.1323 6.39844 61.7261C7.92969 62.3979 8.84375 62.812 9.14062 62.9683C10.6406 63.812 11.3906 64.9292 11.3906 66.3198ZM14.9766 73.7261C15.1953 73.7261 15.4141 73.6792 15.6328 73.5854C16.3984 73.2573 17.2188 72.062 18.0938 69.9995L13.875 60.6479H12.7266V60.0386H17.2969V60.6479H15.7266L18.9375 68.1479L21.9375 60.6479H20.2266V60.0386H23.7891C23.7891 60.1792 23.7734 60.2964 23.7422 60.3901C23.6953 60.562 23.5156 60.6479 23.2031 60.6479C23.0625 60.6479 22.9375 60.6636 22.8281 60.6948C22.6406 60.7573 22.4688 61.0073 22.3125 61.4448L18.8438 69.9995C18.5 70.8433 18.1406 71.5698 17.7656 72.1792C16.8594 73.6948 15.7891 74.4526 14.5547 74.4526C14.2109 74.4526 13.8828 74.3901 13.5703 74.2651C12.8828 73.9995 12.5391 73.5698 12.5391 72.9761C12.5391 72.9292 12.5469 72.8745 12.5625 72.812C12.6406 72.3745 12.9297 72.1558 13.4297 72.1558C13.6172 72.1558 13.7812 72.2026 13.9219 72.2964C14.0781 72.4058 14.2422 72.6948 14.4141 73.1636C14.5391 73.5386 14.7266 73.7261 14.9766 73.7261ZM29.1797 69.4136C29.2578 69.4136 29.3359 69.4214 29.4141 69.437C29.6484 69.4839 29.7656 69.6714 29.7656 69.9995H24.6094V69.4136C25.1406 69.4136 25.5234 69.3745 25.7578 69.2964C26.1641 69.1558 26.3672 68.7261 26.3672 68.0073V60.6245H24.6094V60.0386H28.0078L28.1016 62.3823C28.2578 61.9604 28.4688 61.5776 28.7344 61.2339C29.4688 60.2808 30.3984 59.8042 31.5234 59.8042C31.8203 59.8042 32.1094 59.8589 32.3906 59.9683C33.3438 60.3276 33.9609 61.1245 34.2422 62.3589C34.3672 62.0464 34.5234 61.7495 34.7109 61.4683C35.4297 60.3589 36.3828 59.8042 37.5703 59.8042C38.1172 59.8042 38.625 59.9448 39.0938 60.2261C40.1406 60.8667 40.6641 61.9917 40.6641 63.6011V69.4136H41.8594C41.9531 69.4136 42.0312 69.4214 42.0938 69.437C42.3281 69.4683 42.4453 69.6558 42.4453 69.9995H37.2656V69.4136C37.7969 69.4136 38.1719 69.3745 38.3906 69.2964C38.7344 69.1558 38.9062 68.7261 38.9062 68.0073V63.3667C38.9062 62.8667 38.8281 62.4214 38.6719 62.0308C38.3438 61.2026 37.7812 60.7886 36.9844 60.7886C36.6875 60.7886 36.375 60.8667 36.0469 61.0229C35.1875 61.4761 34.6328 62.2729 34.3828 63.4136V63.6011V69.4136H35.4375C35.5312 69.4136 35.6094 69.4214 35.6719 69.437C35.9062 69.4683 36.0234 69.6558 36.0234 69.9995H30.9844V69.4136C31.5156 69.4136 31.8906 69.3745 32.1094 69.2964C32.4531 69.1558 32.625 68.7261 32.625 68.0073V63.3667C32.625 62.8979 32.5625 62.4761 32.4375 62.1011C32.1406 61.2417 31.6016 60.812 30.8203 60.812C30.3984 60.812 29.9766 60.9683 29.5547 61.2808C28.6484 61.9526 28.1719 62.9761 28.125 64.3511V69.4136H29.1797ZM48.3047 69.4136C48.3828 69.4136 48.4609 69.4214 48.5391 69.437C48.7734 69.4839 48.8906 69.6714 48.8906 69.9995H43.7344V69.4136C44.2656 69.4136 44.6484 69.3745 44.8828 69.2964C45.2891 69.1558 45.4922 68.7261 45.4922 68.0073V60.6245H43.7344V60.0386H47.1328L47.2266 62.3823C47.3828 61.9604 47.5938 61.5776 47.8594 61.2339C48.5938 60.2808 49.5234 59.8042 50.6484 59.8042C50.9453 59.8042 51.2344 59.8589 51.5156 59.9683C52.4688 60.3276 53.0859 61.1245 53.3672 62.3589C53.4922 62.0464 53.6484 61.7495 53.8359 61.4683C54.5547 60.3589 55.5078 59.8042 56.6953 59.8042C57.2422 59.8042 57.75 59.9448 58.2188 60.2261C59.2656 60.8667 59.7891 61.9917 59.7891 63.6011V69.4136H60.9844C61.0781 69.4136 61.1562 69.4214 61.2188 69.437C61.4531 69.4683 61.5703 69.6558 61.5703 69.9995H56.3906V69.4136C56.9219 69.4136 57.2969 69.3745 57.5156 69.2964C57.8594 69.1558 58.0312 68.7261 58.0312 68.0073V63.3667C58.0312 62.8667 57.9531 62.4214 57.7969 62.0308C57.4688 61.2026 56.9062 60.7886 56.1094 60.7886C55.8125 60.7886 55.5 60.8667 55.1719 61.0229C54.3125 61.4761 53.7578 62.2729 53.5078 63.4136V63.6011V69.4136H54.5625C54.6562 69.4136 54.7344 69.4214 54.7969 69.437C55.0312 69.4683 55.1484 69.6558 55.1484 69.9995H50.1094V69.4136C50.6406 69.4136 51.0156 69.3745 51.2344 69.2964C51.5781 69.1558 51.75 68.7261 51.75 68.0073V63.3667C51.75 62.8979 51.6875 62.4761 51.5625 62.1011C51.2656 61.2417 50.7266 60.812 49.9453 60.812C49.5234 60.812 49.1016 60.9683 48.6797 61.2808C47.7734 61.9526 47.2969 62.9761 47.25 64.3511V69.4136H48.3047ZM67.9922 60.3901C67.5859 60.3901 67.2031 60.4839 66.8438 60.6714C65.75 61.2183 65.1641 62.3901 65.0859 64.187L67.5703 64.2573C68.2891 64.2729 68.8438 64.2417 69.2344 64.1636C69.9844 63.9917 70.3594 63.5151 70.3594 62.7339C70.3594 62.3901 70.2969 62.0698 70.1719 61.7729C69.8125 60.8511 69.0859 60.3901 67.9922 60.3901ZM72.0703 67.7495C71.9766 67.9683 71.8672 68.187 71.7422 68.4058C70.9453 69.6245 69.7031 70.2339 68.0156 70.2339C66.9531 70.2339 66.0078 69.9604 65.1797 69.4136C63.7891 68.4761 63.0938 67.0386 63.0938 65.1011C63.0938 64.0386 63.3125 63.0854 63.75 62.2417C64.5938 60.6167 65.9922 59.8042 67.9453 59.8042C68.9453 59.8042 69.8281 60.0308 70.5938 60.4839C71.6719 61.1089 72.2109 61.9526 72.2109 63.0151C72.2109 63.5933 72 64.0386 71.5781 64.3511C71.0312 64.7417 69.8047 64.9214 67.8984 64.8901L65.0859 64.8433C65.1016 65.4995 65.1719 66.1011 65.2969 66.6479C65.7188 68.6011 66.75 69.5776 68.3906 69.5776C68.5312 69.5776 68.6797 69.5698 68.8359 69.5542C70.0547 69.3979 70.9375 68.7261 71.4844 67.5386L72.0703 67.7495ZM73.5 60.6245V60.0386H75.1406V57.812L76.8984 57.3198V60.0386H80.5312V60.6245H76.8984V67.7495C76.9141 68.9214 77.3438 69.5229 78.1875 69.5542C78.9375 69.4448 79.5078 68.7417 79.8984 67.4448L80.5312 67.562C80.5312 67.5776 80.5312 67.5933 80.5312 67.6089C80.1719 69.3745 79.2734 70.2573 77.8359 70.2573C76.1484 70.1948 75.25 69.187 75.1406 67.2339V60.6245H73.5ZM86.6016 69.4136C86.6953 69.4136 86.7734 69.4214 86.8359 69.437C87.0703 69.4683 87.1875 69.6558 87.1875 69.9995H81.3984V69.4136C81.9297 69.4136 82.3125 69.3745 82.5469 69.2964C82.9531 69.1558 83.1562 68.7261 83.1562 68.0073V60.6245H81.3984V60.0386H84.7969L84.8906 62.3589C85.0938 61.8901 85.3672 61.4683 85.7109 61.0933C86.4453 60.2964 87.2812 59.8979 88.2188 59.8979C88.3594 59.8979 88.5078 59.9136 88.6641 59.9448C89.3828 60.1011 89.7422 60.5308 89.7422 61.2339C89.7422 61.3276 89.7266 61.4214 89.6953 61.5151C89.5703 61.9683 89.2734 62.1948 88.8047 62.1948C88.7109 62.1948 88.6172 62.1792 88.5234 62.1479C88.3047 62.0854 88.0703 61.8354 87.8203 61.3979C87.6016 61.0073 87.3594 60.812 87.0938 60.812C86.8594 60.8276 86.5703 60.9995 86.2266 61.3276C85.3516 62.187 84.9141 63.3276 84.9141 64.7495V69.4136H86.6016ZM95.3672 69.4136C95.4453 69.4136 95.5234 69.4214 95.6016 69.437C95.8359 69.4683 95.9531 69.6558 95.9531 69.9995H90.5625V69.4136C91.0938 69.4136 91.4766 69.3823 91.7109 69.3198C92.1953 69.1636 92.4375 68.7261 92.4375 68.0073V60.6245H90.5625V60.0386H94.1953V69.4136H95.3672ZM94.4766 56.6167C94.4766 56.8042 94.4375 56.9839 94.3594 57.1558C94.1406 57.6558 93.7578 57.9058 93.2109 57.9058C93.0391 57.9058 92.8672 57.8745 92.6953 57.812C92.1797 57.5933 91.9219 57.1948 91.9219 56.6167C91.9219 56.4292 91.9609 56.2495 92.0391 56.0776C92.2734 55.5776 92.6641 55.3276 93.2109 55.3276C93.3828 55.3276 93.5625 55.3667 93.75 55.4448C94.2344 55.6792 94.4766 56.0698 94.4766 56.6167ZM97.5938 65.1245C97.5938 64.0933 97.7891 63.1714 98.1797 62.3589C99.0078 60.6558 100.469 59.8042 102.562 59.8042C103.406 59.8042 104.188 59.9839 104.906 60.3433C105.922 60.8589 106.43 61.5151 106.43 62.312C106.43 62.4058 106.414 62.5073 106.383 62.6167C106.242 63.0854 105.906 63.3042 105.375 63.2729C105.188 63.2573 105.016 63.2104 104.859 63.1323C104.609 62.9761 104.438 62.5854 104.344 61.9604C104.297 61.6948 104.258 61.4995 104.227 61.3745C104.055 60.7183 103.547 60.3901 102.703 60.3901C102.156 60.3901 101.656 60.5308 101.203 60.812C100.125 61.4995 99.5859 62.8667 99.5859 64.9136C99.5859 66.0698 99.8203 67.0698 100.289 67.9136C100.914 69.0229 101.781 69.5776 102.891 69.5776C103.016 69.5776 103.141 69.5698 103.266 69.5542C104.594 69.4292 105.547 68.7495 106.125 67.5151L106.734 67.7261C106.625 67.9917 106.477 68.2573 106.289 68.5229C105.461 69.6636 104.234 70.2339 102.609 70.2339C101.516 70.2339 100.539 69.9448 99.6797 69.3667C98.2891 68.4292 97.5938 67.0151 97.5938 65.1245ZM121.359 64.937H117.445V69.1089H116.391V64.937H112.477V64.0933H116.391V59.9214H117.445V64.0933H121.359V64.937ZM141.352 69.9995H136.289V69.3901H137.812L136.055 64.8433H131.156L129.398 69.3901H130.547C130.625 69.3901 130.703 69.3979 130.781 69.4136C131.031 69.4604 131.156 69.6558 131.156 69.9995H126.984V69.3901H128.461L133.711 55.937H134.578L139.945 69.3901H140.742C140.82 69.3901 140.898 69.3979 140.977 69.4136C141.227 69.4604 141.352 69.6558 141.352 69.9995ZM135.797 64.1636L133.594 58.4917L131.414 64.1636H135.797ZM145.805 69.6011C146.883 69.6011 147.609 69.2729 147.984 68.6167C148.125 68.3823 148.195 68.1245 148.195 67.8433C148.195 67.187 147.719 66.6245 146.766 66.1558C146.562 66.0464 146.227 65.8901 145.758 65.687C144.477 65.1558 143.625 64.6558 143.203 64.187C142.75 63.6714 142.523 63.0698 142.523 62.3823C142.523 61.3042 143.117 60.5464 144.305 60.1089C144.852 59.9058 145.445 59.8042 146.086 59.8042C147.117 59.8042 148.008 60.0229 148.758 60.4604C148.758 60.0073 148.867 59.7495 149.086 59.687C149.18 59.6714 149.281 59.6636 149.391 59.6636V62.5933H148.781C148.75 61.1558 147.953 60.4292 146.391 60.4136C145.219 60.4136 144.492 60.7573 144.211 61.4448C144.133 61.6323 144.094 61.8276 144.094 62.0308C144.094 62.7026 144.578 63.2729 145.547 63.7417C145.766 63.8511 146.109 63.9995 146.578 64.187C147.844 64.7026 148.688 65.1948 149.109 65.6636C149.562 66.1636 149.789 66.7573 149.789 67.4448C149.789 68.7104 149.117 69.5542 147.773 69.9761C147.258 70.1479 146.695 70.2339 146.086 70.2339C144.961 70.2183 143.984 69.937 143.156 69.3901C143.156 69.7964 143.055 70.0308 142.852 70.0933C142.758 70.1089 142.648 70.1167 142.523 70.1167V66.5542H143.18C143.211 68.5698 144.086 69.5854 145.805 69.6011ZM153.141 73.7261C153.359 73.7261 153.578 73.6792 153.797 73.5854C154.562 73.2573 155.383 72.062 156.258 69.9995L152.039 60.6479H150.891V60.0386H155.461V60.6479H153.891L157.102 68.1479L160.102 60.6479H158.391V60.0386H161.953C161.953 60.1792 161.938 60.2964 161.906 60.3901C161.859 60.562 161.68 60.6479 161.367 60.6479C161.227 60.6479 161.102 60.6636 160.992 60.6948C160.805 60.7573 160.633 61.0073 160.477 61.4448L157.008 69.9995C156.664 70.8433 156.305 71.5698 155.93 72.1792C155.023 73.6948 153.953 74.4526 152.719 74.4526C152.375 74.4526 152.047 74.3901 151.734 74.2651C151.047 73.9995 150.703 73.5698 150.703 72.9761C150.703 72.9292 150.711 72.8745 150.727 72.812C150.805 72.3745 151.094 72.1558 151.594 72.1558C151.781 72.1558 151.945 72.2026 152.086 72.2964C152.242 72.4058 152.406 72.6948 152.578 73.1636C152.703 73.5386 152.891 73.7261 153.141 73.7261ZM167.344 69.4136C167.422 69.4136 167.5 69.4214 167.578 69.437C167.812 69.4839 167.93 69.6714 167.93 69.9995H162.773V69.4136C163.305 69.4136 163.688 69.3745 163.922 69.2964C164.328 69.1558 164.531 68.7261 164.531 68.0073V60.6245H162.773V60.0386H166.172L166.266 62.3823C166.422 61.9604 166.633 61.5776 166.898 61.2339C167.633 60.2808 168.562 59.8042 169.688 59.8042C169.984 59.8042 170.273 59.8589 170.555 59.9683C171.508 60.3276 172.125 61.1245 172.406 62.3589C172.531 62.0464 172.688 61.7495 172.875 61.4683C173.594 60.3589 174.547 59.8042 175.734 59.8042C176.281 59.8042 176.789 59.9448 177.258 60.2261C178.305 60.8667 178.828 61.9917 178.828 63.6011V69.4136H180.023C180.117 69.4136 180.195 69.4214 180.258 69.437C180.492 69.4683 180.609 69.6558 180.609 69.9995H175.43V69.4136C175.961 69.4136 176.336 69.3745 176.555 69.2964C176.898 69.1558 177.07 68.7261 177.07 68.0073V63.3667C177.07 62.8667 176.992 62.4214 176.836 62.0308C176.508 61.2026 175.945 60.7886 175.148 60.7886C174.852 60.7886 174.539 60.8667 174.211 61.0229C173.352 61.4761 172.797 62.2729 172.547 63.4136V63.6011V69.4136H173.602C173.695 69.4136 173.773 69.4214 173.836 69.437C174.07 69.4683 174.188 69.6558 174.188 69.9995H169.148V69.4136C169.68 69.4136 170.055 69.3745 170.273 69.2964C170.617 69.1558 170.789 68.7261 170.789 68.0073V63.3667C170.789 62.8979 170.727 62.4761 170.602 62.1011C170.305 61.2417 169.766 60.812 168.984 60.812C168.562 60.812 168.141 60.9683 167.719 61.2808C166.812 61.9526 166.336 62.9761 166.289 64.3511V69.4136H167.344ZM186.469 69.4136C186.547 69.4136 186.625 69.4214 186.703 69.437C186.938 69.4839 187.055 69.6714 187.055 69.9995H181.898V69.4136C182.43 69.4136 182.812 69.3745 183.047 69.2964C183.453 69.1558 183.656 68.7261 183.656 68.0073V60.6245H181.898V60.0386H185.297L185.391 62.3823C185.547 61.9604 185.758 61.5776 186.023 61.2339C186.758 60.2808 187.688 59.8042 188.812 59.8042C189.109 59.8042 189.398 59.8589 189.68 59.9683C190.633 60.3276 191.25 61.1245 191.531 62.3589C191.656 62.0464 191.812 61.7495 192 61.4683C192.719 60.3589 193.672 59.8042 194.859 59.8042C195.406 59.8042 195.914 59.9448 196.383 60.2261C197.43 60.8667 197.953 61.9917 197.953 63.6011V69.4136H199.148C199.242 69.4136 199.32 69.4214 199.383 69.437C199.617 69.4683 199.734 69.6558 199.734 69.9995H194.555V69.4136C195.086 69.4136 195.461 69.3745 195.68 69.2964C196.023 69.1558 196.195 68.7261 196.195 68.0073V63.3667C196.195 62.8667 196.117 62.4214 195.961 62.0308C195.633 61.2026 195.07 60.7886 194.273 60.7886C193.977 60.7886 193.664 60.8667 193.336 61.0229C192.477 61.4761 191.922 62.2729 191.672 63.4136V63.6011V69.4136H192.727C192.82 69.4136 192.898 69.4214 192.961 69.437C193.195 69.4683 193.312 69.6558 193.312 69.9995H188.273V69.4136C188.805 69.4136 189.18 69.3745 189.398 69.2964C189.742 69.1558 189.914 68.7261 189.914 68.0073V63.3667C189.914 62.8979 189.852 62.4761 189.727 62.1011C189.43 61.2417 188.891 60.812 188.109 60.812C187.688 60.812 187.266 60.9683 186.844 61.2808C185.938 61.9526 185.461 62.9761 185.414 64.3511V69.4136H186.469ZM206.156 60.3901C205.75 60.3901 205.367 60.4839 205.008 60.6714C203.914 61.2183 203.328 62.3901 203.25 64.187L205.734 64.2573C206.453 64.2729 207.008 64.2417 207.398 64.1636C208.148 63.9917 208.523 63.5151 208.523 62.7339C208.523 62.3901 208.461 62.0698 208.336 61.7729C207.977 60.8511 207.25 60.3901 206.156 60.3901ZM210.234 67.7495C210.141 67.9683 210.031 68.187 209.906 68.4058C209.109 69.6245 207.867 70.2339 206.18 70.2339C205.117 70.2339 204.172 69.9604 203.344 69.4136C201.953 68.4761 201.258 67.0386 201.258 65.1011C201.258 64.0386 201.477 63.0854 201.914 62.2417C202.758 60.6167 204.156 59.8042 206.109 59.8042C207.109 59.8042 207.992 60.0308 208.758 60.4839C209.836 61.1089 210.375 61.9526 210.375 63.0151C210.375 63.5933 210.164 64.0386 209.742 64.3511C209.195 64.7417 207.969 64.9214 206.062 64.8901L203.25 64.8433C203.266 65.4995 203.336 66.1011 203.461 66.6479C203.883 68.6011 204.914 69.5776 206.555 69.5776C206.695 69.5776 206.844 69.5698 207 69.5542C208.219 69.3979 209.102 68.7261 209.648 67.5386L210.234 67.7495ZM211.664 60.6245V60.0386H213.305V57.812L215.062 57.3198V60.0386H218.695V60.6245H215.062V67.7495C215.078 68.9214 215.508 69.5229 216.352 69.5542C217.102 69.4448 217.672 68.7417 218.062 67.4448L218.695 67.562C218.695 67.5776 218.695 67.5933 218.695 67.6089C218.336 69.3745 217.438 70.2573 216 70.2573C214.312 70.1948 213.414 69.187 213.305 67.2339V60.6245H211.664ZM224.766 69.4136C224.859 69.4136 224.938 69.4214 225 69.437C225.234 69.4683 225.352 69.6558 225.352 69.9995H219.562V69.4136C220.094 69.4136 220.477 69.3745 220.711 69.2964C221.117 69.1558 221.32 68.7261 221.32 68.0073V60.6245H219.562V60.0386H222.961L223.055 62.3589C223.258 61.8901 223.531 61.4683 223.875 61.0933C224.609 60.2964 225.445 59.8979 226.383 59.8979C226.523 59.8979 226.672 59.9136 226.828 59.9448C227.547 60.1011 227.906 60.5308 227.906 61.2339C227.906 61.3276 227.891 61.4214 227.859 61.5151C227.734 61.9683 227.438 62.1948 226.969 62.1948C226.875 62.1948 226.781 62.1792 226.688 62.1479C226.469 62.0854 226.234 61.8354 225.984 61.3979C225.766 61.0073 225.523 60.812 225.258 60.812C225.023 60.8276 224.734 60.9995 224.391 61.3276C223.516 62.187 223.078 63.3276 223.078 64.7495V69.4136H224.766ZM233.531 69.4136C233.609 69.4136 233.688 69.4214 233.766 69.437C234 69.4683 234.117 69.6558 234.117 69.9995H228.727V69.4136C229.258 69.4136 229.641 69.3823 229.875 69.3198C230.359 69.1636 230.602 68.7261 230.602 68.0073V60.6245H228.727V60.0386H232.359V69.4136H233.531ZM232.641 56.6167C232.641 56.8042 232.602 56.9839 232.523 57.1558C232.305 57.6558 231.922 57.9058 231.375 57.9058C231.203 57.9058 231.031 57.8745 230.859 57.812C230.344 57.5933 230.086 57.1948 230.086 56.6167C230.086 56.4292 230.125 56.2495 230.203 56.0776C230.438 55.5776 230.828 55.3276 231.375 55.3276C231.547 55.3276 231.727 55.3667 231.914 55.4448C232.398 55.6792 232.641 56.0698 232.641 56.6167ZM235.758 65.1245C235.758 64.0933 235.953 63.1714 236.344 62.3589C237.172 60.6558 238.633 59.8042 240.727 59.8042C241.57 59.8042 242.352 59.9839 243.07 60.3433C244.086 60.8589 244.594 61.5151 244.594 62.312C244.594 62.4058 244.578 62.5073 244.547 62.6167C244.406 63.0854 244.07 63.3042 243.539 63.2729C243.352 63.2573 243.18 63.2104 243.023 63.1323C242.773 62.9761 242.602 62.5854 242.508 61.9604C242.461 61.6948 242.422 61.4995 242.391 61.3745C242.219 60.7183 241.711 60.3901 240.867 60.3901C240.32 60.3901 239.82 60.5308 239.367 60.812C238.289 61.4995 237.75 62.8667 237.75 64.9136C237.75 66.0698 237.984 67.0698 238.453 67.9136C239.078 69.0229 239.945 69.5776 241.055 69.5776C241.18 69.5776 241.305 69.5698 241.43 69.5542C242.758 69.4292 243.711 68.7495 244.289 67.5151L244.898 67.7261C244.789 67.9917 244.641 68.2573 244.453 68.5229C243.625 69.6636 242.398 70.2339 240.773 70.2339C239.68 70.2339 238.703 69.9448 237.844 69.3667C236.453 68.4292 235.758 67.0151 235.758 65.1245ZM259.523 63.6479H250.641V62.8042H259.523V63.6479ZM259.523 66.2261H250.641V65.3823H259.523V66.2261ZM276.539 66.3198C276.539 67.2729 276.203 68.0933 275.531 68.7808C274.547 69.7495 273.156 70.2339 271.359 70.2339C269.828 70.2339 268.461 69.8354 267.258 69.0386C267.258 69.3667 267.242 69.5933 267.211 69.7183C267.148 69.937 266.93 70.0464 266.555 70.0464V65.1948H267.258C267.523 68.0854 268.852 69.5464 271.242 69.5776C271.852 69.5776 272.406 69.4683 272.906 69.2495C273.969 68.7651 274.5 67.9761 274.5 66.8823C274.5 66.4604 274.398 66.0698 274.195 65.7104C273.82 65.0698 272.93 64.437 271.523 63.812C270.008 63.1558 269.117 62.7573 268.852 62.6167C267.383 61.7886 266.648 60.7183 266.648 59.4058C266.648 58.5308 266.961 57.7651 267.586 57.1089C268.523 56.1714 269.836 55.7026 271.523 55.7026C272.914 55.7026 274.164 56.0073 275.273 56.6167C275.273 56.4292 275.289 56.2808 275.32 56.1714C275.383 55.937 275.602 55.8198 275.977 55.8198V59.9214H275.273C275.289 59.0464 275.07 58.3042 274.617 57.6948C273.93 56.8042 272.93 56.3589 271.617 56.3589C271.086 56.3589 270.602 56.4448 270.164 56.6167C269.148 57.0229 268.641 57.7495 268.641 58.7964C268.641 59.187 268.734 59.5542 268.922 59.8979C269.281 60.5229 270.156 61.1323 271.547 61.7261C273.078 62.3979 273.992 62.812 274.289 62.9683C275.789 63.812 276.539 64.9292 276.539 66.3198ZM280.125 73.7261C280.344 73.7261 280.562 73.6792 280.781 73.5854C281.547 73.2573 282.367 72.062 283.242 69.9995L279.023 60.6479H277.875V60.0386H282.445V60.6479H280.875L284.086 68.1479L287.086 60.6479H285.375V60.0386H288.938C288.938 60.1792 288.922 60.2964 288.891 60.3901C288.844 60.562 288.664 60.6479 288.352 60.6479C288.211 60.6479 288.086 60.6636 287.977 60.6948C287.789 60.7573 287.617 61.0073 287.461 61.4448L283.992 69.9995C283.648 70.8433 283.289 71.5698 282.914 72.1792C282.008 73.6948 280.938 74.4526 279.703 74.4526C279.359 74.4526 279.031 74.3901 278.719 74.2651C278.031 73.9995 277.688 73.5698 277.688 72.9761C277.688 72.9292 277.695 72.8745 277.711 72.812C277.789 72.3745 278.078 72.1558 278.578 72.1558C278.766 72.1558 278.93 72.2026 279.07 72.2964C279.227 72.4058 279.391 72.6948 279.562 73.1636C279.688 73.5386 279.875 73.7261 280.125 73.7261ZM294.328 69.4136C294.406 69.4136 294.484 69.4214 294.562 69.437C294.797 69.4839 294.914 69.6714 294.914 69.9995H289.758V69.4136C290.289 69.4136 290.672 69.3745 290.906 69.2964C291.312 69.1558 291.516 68.7261 291.516 68.0073V60.6245H289.758V60.0386H293.156L293.25 62.3823C293.406 61.9604 293.617 61.5776 293.883 61.2339C294.617 60.2808 295.547 59.8042 296.672 59.8042C296.969 59.8042 297.258 59.8589 297.539 59.9683C298.492 60.3276 299.109 61.1245 299.391 62.3589C299.516 62.0464 299.672 61.7495 299.859 61.4683C300.578 60.3589 301.531 59.8042 302.719 59.8042C303.266 59.8042 303.773 59.9448 304.242 60.2261C305.289 60.8667 305.812 61.9917 305.812 63.6011V69.4136H307.008C307.102 69.4136 307.18 69.4214 307.242 69.437C307.477 69.4683 307.594 69.6558 307.594 69.9995H302.414V69.4136C302.945 69.4136 303.32 69.3745 303.539 69.2964C303.883 69.1558 304.055 68.7261 304.055 68.0073V63.3667C304.055 62.8667 303.977 62.4214 303.82 62.0308C303.492 61.2026 302.93 60.7886 302.133 60.7886C301.836 60.7886 301.523 60.8667 301.195 61.0229C300.336 61.4761 299.781 62.2729 299.531 63.4136V63.6011V69.4136H300.586C300.68 69.4136 300.758 69.4214 300.82 69.437C301.055 69.4683 301.172 69.6558 301.172 69.9995H296.133V69.4136C296.664 69.4136 297.039 69.3745 297.258 69.2964C297.602 69.1558 297.773 68.7261 297.773 68.0073V63.3667C297.773 62.8979 297.711 62.4761 297.586 62.1011C297.289 61.2417 296.75 60.812 295.969 60.812C295.547 60.812 295.125 60.9683 294.703 61.2808C293.797 61.9526 293.32 62.9761 293.273 64.3511V69.4136H294.328ZM313.453 69.4136C313.531 69.4136 313.609 69.4214 313.688 69.437C313.922 69.4839 314.039 69.6714 314.039 69.9995H308.883V69.4136C309.414 69.4136 309.797 69.3745 310.031 69.2964C310.438 69.1558 310.641 68.7261 310.641 68.0073V60.6245H308.883V60.0386H312.281L312.375 62.3823C312.531 61.9604 312.742 61.5776 313.008 61.2339C313.742 60.2808 314.672 59.8042 315.797 59.8042C316.094 59.8042 316.383 59.8589 316.664 59.9683C317.617 60.3276 318.234 61.1245 318.516 62.3589C318.641 62.0464 318.797 61.7495 318.984 61.4683C319.703 60.3589 320.656 59.8042 321.844 59.8042C322.391 59.8042 322.898 59.9448 323.367 60.2261C324.414 60.8667 324.938 61.9917 324.938 63.6011V69.4136H326.133C326.227 69.4136 326.305 69.4214 326.367 69.437C326.602 69.4683 326.719 69.6558 326.719 69.9995H321.539V69.4136C322.07 69.4136 322.445 69.3745 322.664 69.2964C323.008 69.1558 323.18 68.7261 323.18 68.0073V63.3667C323.18 62.8667 323.102 62.4214 322.945 62.0308C322.617 61.2026 322.055 60.7886 321.258 60.7886C320.961 60.7886 320.648 60.8667 320.32 61.0229C319.461 61.4761 318.906 62.2729 318.656 63.4136V63.6011V69.4136H319.711C319.805 69.4136 319.883 69.4214 319.945 69.437C320.18 69.4683 320.297 69.6558 320.297 69.9995H315.258V69.4136C315.789 69.4136 316.164 69.3745 316.383 69.2964C316.727 69.1558 316.898 68.7261 316.898 68.0073V63.3667C316.898 62.8979 316.836 62.4761 316.711 62.1011C316.414 61.2417 315.875 60.812 315.094 60.812C314.672 60.812 314.25 60.9683 313.828 61.2808C312.922 61.9526 312.445 62.9761 312.398 64.3511V69.4136H313.453ZM336.469 70.2339C335.375 70.2183 334.734 69.5151 334.547 68.1245C334.406 68.4526 334.195 68.7651 333.914 69.062C333.133 69.8433 332.172 70.2339 331.031 70.2339C330.562 70.2339 330.117 70.1479 329.695 69.9761C328.648 69.5386 328.125 68.7261 328.125 67.5386C328.125 67.1948 328.172 66.8745 328.266 66.5776C328.797 65.0464 330.898 64.2808 334.57 64.2808V62.8042C334.523 61.2886 333.766 60.4839 332.297 60.3901C331.672 60.3901 331.211 60.5854 330.914 60.9761C330.836 61.0854 330.688 61.4292 330.469 62.0073C330.297 62.4604 330.031 62.687 329.672 62.687C329.594 62.687 329.516 62.6792 329.438 62.6636C328.984 62.5854 328.758 62.3042 328.758 61.8198C328.758 61.5542 328.852 61.2886 329.039 61.0229C329.633 60.2104 330.805 59.8042 332.555 59.8042C332.695 59.8042 332.836 59.8042 332.977 59.8042C335.211 59.9292 336.328 61.1089 336.328 63.3433V68.2886C336.344 69.0698 336.555 69.4761 336.961 69.5073C337.461 69.4917 337.766 68.9136 337.875 67.7729L338.484 67.7964C338.484 67.8745 338.477 67.9604 338.461 68.0542C338.336 69.5073 337.672 70.2339 336.469 70.2339ZM331.805 69.2964C332.148 69.2964 332.5 69.2183 332.859 69.062C333.766 68.6245 334.336 67.8667 334.57 66.7886V64.9136C333.352 64.9292 332.422 65.0073 331.781 65.1479C330.578 65.4292 329.977 66.0933 329.977 67.1401C329.977 67.4058 330 67.6479 330.047 67.8667C330.266 68.8198 330.852 69.2964 331.805 69.2964ZM339.07 60.6245V60.0386H340.711V57.812L342.469 57.3198V60.0386H346.102V60.6245H342.469V67.7495C342.484 68.9214 342.914 69.5229 343.758 69.5542C344.508 69.4448 345.078 68.7417 345.469 67.4448L346.102 67.562C346.102 67.5776 346.102 67.5933 346.102 67.6089C345.742 69.3745 344.844 70.2573 343.406 70.2573C341.719 70.1948 340.82 69.187 340.711 67.2339V60.6245H339.07ZM352.172 69.4136C352.266 69.4136 352.344 69.4214 352.406 69.437C352.641 69.4683 352.758 69.6558 352.758 69.9995H346.969V69.4136C347.5 69.4136 347.883 69.3745 348.117 69.2964C348.523 69.1558 348.727 68.7261 348.727 68.0073V60.6245H346.969V60.0386H350.367L350.461 62.3589C350.664 61.8901 350.938 61.4683 351.281 61.0933C352.016 60.2964 352.852 59.8979 353.789 59.8979C353.93 59.8979 354.078 59.9136 354.234 59.9448C354.953 60.1011 355.312 60.5308 355.312 61.2339C355.312 61.3276 355.297 61.4214 355.266 61.5151C355.141 61.9683 354.844 62.1948 354.375 62.1948C354.281 62.1948 354.188 62.1792 354.094 62.1479C353.875 62.0854 353.641 61.8354 353.391 61.3979C353.172 61.0073 352.93 60.812 352.664 60.812C352.43 60.8276 352.141 60.9995 351.797 61.3276C350.922 62.187 350.484 63.3276 350.484 64.7495V69.4136H352.172ZM360.938 69.4136C361.016 69.4136 361.094 69.4214 361.172 69.437C361.406 69.4683 361.523 69.6558 361.523 69.9995H356.133V69.4136C356.664 69.4136 357.047 69.3823 357.281 69.3198C357.766 69.1636 358.008 68.7261 358.008 68.0073V60.6245H356.133V60.0386H359.766V69.4136H360.938ZM360.047 56.6167C360.047 56.8042 360.008 56.9839 359.93 57.1558C359.711 57.6558 359.328 57.9058 358.781 57.9058C358.609 57.9058 358.438 57.8745 358.266 57.812C357.75 57.5933 357.492 57.1948 357.492 56.6167C357.492 56.4292 357.531 56.2495 357.609 56.0776C357.844 55.5776 358.234 55.3276 358.781 55.3276C358.953 55.3276 359.133 55.3667 359.32 55.4448C359.805 55.6792 360.047 56.0698 360.047 56.6167ZM363.164 65.1245C363.164 64.0933 363.359 63.1714 363.75 62.3589C364.578 60.6558 366.039 59.8042 368.133 59.8042C368.977 59.8042 369.758 59.9839 370.477 60.3433C371.492 60.8589 372 61.5151 372 62.312C372 62.4058 371.984 62.5073 371.953 62.6167C371.812 63.0854 371.477 63.3042 370.945 63.2729C370.758 63.2573 370.586 63.2104 370.43 63.1323C370.18 62.9761 370.008 62.5854 369.914 61.9604C369.867 61.6948 369.828 61.4995 369.797 61.3745C369.625 60.7183 369.117 60.3901 368.273 60.3901C367.727 60.3901 367.227 60.5308 366.773 60.812C365.695 61.4995 365.156 62.8667 365.156 64.9136C365.156 66.0698 365.391 67.0698 365.859 67.9136C366.484 69.0229 367.352 69.5776 368.461 69.5776C368.586 69.5776 368.711 69.5698 368.836 69.5542C370.164 69.4292 371.117 68.7495 371.695 67.5151L372.305 67.7261C372.195 67.9917 372.047 68.2573 371.859 68.5229C371.031 69.6636 369.805 70.2339 368.18 70.2339C367.086 70.2339 366.109 69.9448 365.25 69.3667C363.859 68.4292 363.164 67.0151 363.164 65.1245Z" fill="white" fill-opacity="0.83"/>
<path d="M131.52 36.3605C128.28 36.3605 125.736 35.6765 123.888 34.3085C122.04 32.9165 121.116 31.4645 121.116 29.9525C121.116 29.4245 121.272 28.9925 121.584 28.6565C121.896 28.2965 122.328 28.1285 122.88 28.1525C123.384 28.1765 123.828 28.3565 124.212 28.6925C124.596 29.0045 124.896 29.4005 125.112 29.8805C125.352 30.3605 125.64 30.8765 125.976 31.4285C126.336 31.9805 126.72 32.4965 127.128 32.9765C127.56 33.4565 128.16 33.8525 128.928 34.1645C129.72 34.4765 130.644 34.6325 131.7 34.6325C133.164 34.6325 134.352 34.2365 135.264 33.4445C136.176 32.6525 136.632 31.6085 136.632 30.3125C136.632 29.2085 136.356 28.2965 135.804 27.5765C135.252 26.8565 134.532 26.3285 133.644 25.9925C132.78 25.6565 131.808 25.3805 130.728 25.1645C129.672 24.9245 128.604 24.6605 127.524 24.3725C126.468 24.0605 125.496 23.6645 124.608 23.1845C123.744 22.7045 123.036 21.9725 122.484 20.9885C121.932 20.0045 121.656 18.7805 121.656 17.3165C121.656 15.2285 122.484 13.5125 124.14 12.1685C125.796 10.8005 128.064 10.1165 130.944 10.1165C133.824 10.1165 136.152 10.7525 137.928 12.0245C139.728 13.2725 140.616 14.6525 140.592 16.1645C140.592 17.3885 139.968 18.0005 138.72 18.0005C138.192 18.0005 137.736 17.8565 137.352 17.5685C136.992 17.2565 136.716 16.8725 136.524 16.4165C136.332 15.9605 136.08 15.4685 135.768 14.9405C135.48 14.3885 135.156 13.8845 134.796 13.4285C134.46 12.9725 133.944 12.6005 133.248 12.3125C132.576 12.0005 131.772 11.8445 130.836 11.8445C129.324 11.8445 128.148 12.2525 127.308 13.0685C126.468 13.8845 126.048 14.9045 126.048 16.1285C126.048 17.1845 126.324 18.0605 126.876 18.7565C127.428 19.4285 128.136 19.9325 129 20.2685C129.888 20.6045 130.86 20.9045 131.916 21.1685C132.996 21.4085 134.064 21.6965 135.12 22.0325C136.2 22.3445 137.172 22.7525 138.036 23.2565C138.924 23.7605 139.644 24.5045 140.196 25.4885C140.748 26.4725 141.024 27.6845 141.024 29.1245C141.024 31.3325 140.1 33.0965 138.252 34.4165C136.404 35.7125 134.16 36.3605 131.52 36.3605ZM158.784 18.4325C159.576 18.3365 159.972 18.5405 159.972 19.0445V34.2005C159.972 37.1045 159.156 39.3365 157.524 40.8965C155.916 42.4565 153.828 43.2365 151.26 43.2365C149.124 43.2365 147.336 42.7085 145.896 41.6525C144.48 40.5965 143.772 39.3965 143.772 38.0525C143.772 37.5725 143.928 37.1645 144.24 36.8285C144.576 36.5165 145.02 36.3605 145.572 36.3605C146.148 36.3605 146.628 36.6485 147.012 37.2245C147.42 37.8005 147.732 38.4245 147.948 39.0965C148.188 39.7925 148.632 40.4285 149.28 41.0045C149.928 41.6045 150.768 41.9045 151.8 41.9045C154.44 41.9045 155.76 39.5285 155.76 34.7765V33.8765C154.632 35.2925 152.976 36.0005 150.792 36.0005C148.896 36.0005 147.324 35.3165 146.076 33.9485C144.852 32.5565 144.24 30.7445 144.24 28.5125V22.2845C144.24 21.7325 144.012 21.2405 143.556 20.8085C143.1 20.3525 142.872 20.0405 142.872 19.8725V19.7645C142.872 19.4045 143.088 19.1885 143.52 19.1165L147.3 18.5045C148.116 18.3845 148.524 18.5645 148.524 19.0445L148.452 28.9085C148.452 30.6125 148.752 31.9325 149.352 32.8685C149.952 33.8045 150.804 34.2725 151.908 34.2725C153.012 34.2725 153.924 33.8405 154.644 32.9765C155.388 32.0885 155.76 30.9725 155.76 29.6285V22.2845C155.76 21.7325 155.52 21.2405 155.04 20.8085C154.584 20.3525 154.356 20.0405 154.356 19.8725V19.7645C154.356 19.4045 154.56 19.1885 154.968 19.1165L158.784 18.4325ZM192.577 32.9765C192.601 33.5045 192.817 33.9845 193.225 34.4165C193.657 34.8485 193.873 35.1725 193.873 35.3885V35.5325C193.873 35.8685 193.621 36.0365 193.117 36.0365H187.825C187.321 36.0365 187.069 35.8685 187.069 35.5325V35.3885C187.069 35.1725 187.285 34.8605 187.717 34.4525C188.149 34.0205 188.353 33.5405 188.329 33.0125L187.969 26.2085C187.873 24.0485 187.501 22.4885 186.853 21.5285C186.229 20.5685 185.329 20.0885 184.153 20.0885C183.169 20.0885 182.329 20.4965 181.633 21.3125C180.961 22.1045 180.601 23.1125 180.553 24.3365C180.649 24.8165 180.697 25.3925 180.697 26.0645V33.0125C180.697 33.5405 180.901 34.0205 181.309 34.4525C181.741 34.8605 181.957 35.1725 181.957 35.3885V35.5325C181.957 35.8685 181.705 36.0365 181.201 36.0365H175.981C175.453 36.0365 175.189 35.8685 175.189 35.5325V35.3885C175.189 35.1725 175.393 34.8605 175.801 34.4525C176.233 34.0205 176.449 33.5405 176.449 33.0125V25.8125C176.449 24.0125 176.089 22.6085 175.369 21.6005C174.673 20.5925 173.773 20.0885 172.669 20.0885C171.589 20.0885 170.701 20.4965 170.005 21.3125C169.309 22.1045 168.937 23.1245 168.889 24.3725L168.925 33.0125C168.925 33.5405 169.165 34.0205 169.645 34.4525C170.125 34.8605 170.365 35.1725 170.365 35.3885V35.5325C170.365 35.8685 170.113 36.0365 169.609 36.0365H164.029C163.501 36.0365 163.237 35.8685 163.237 35.5325V35.3885C163.237 35.1725 163.477 34.8605 163.957 34.4525C164.437 34.0205 164.677 33.5405 164.677 33.0125V23.3645C164.677 22.9325 164.545 22.5725 164.281 22.2845C164.017 21.9965 163.753 21.7565 163.489 21.5645C163.225 21.3725 163.093 21.1685 163.093 20.9525V20.8445C163.093 20.6045 163.309 20.3885 163.741 20.1965L167.413 18.5045C167.797 18.3365 168.085 18.3245 168.277 18.4685C168.469 18.5885 168.565 18.8165 168.565 19.1525V21.2765C169.093 20.3885 169.801 19.6805 170.689 19.1525C171.601 18.6245 172.609 18.3605 173.713 18.3605C175.033 18.3605 176.221 18.6725 177.277 19.2965C178.357 19.9205 179.197 20.7965 179.797 21.9245C180.253 20.7965 180.985 19.9205 181.993 19.2965C183.001 18.6725 184.141 18.3605 185.413 18.3605C187.285 18.3605 188.821 18.9965 190.021 20.2685C191.245 21.5165 191.953 23.5325 192.145 26.3165L192.577 32.9765ZM225.238 32.9765C225.262 33.5045 225.478 33.9845 225.886 34.4165C226.318 34.8485 226.534 35.1725 226.534 35.3885V35.5325C226.534 35.8685 226.282 36.0365 225.778 36.0365H220.486C219.982 36.0365 219.73 35.8685 219.73 35.5325V35.3885C219.73 35.1725 219.946 34.8605 220.378 34.4525C220.81 34.0205 221.014 33.5405 220.99 33.0125L220.63 26.2085C220.534 24.0485 220.162 22.4885 219.514 21.5285C218.89 20.5685 217.99 20.0885 216.814 20.0885C215.83 20.0885 214.99 20.4965 214.294 21.3125C213.622 22.1045 213.262 23.1125 213.214 24.3365C213.31 24.8165 213.358 25.3925 213.358 26.0645V33.0125C213.358 33.5405 213.562 34.0205 213.97 34.4525C214.402 34.8605 214.618 35.1725 214.618 35.3885V35.5325C214.618 35.8685 214.366 36.0365 213.862 36.0365H208.642C208.114 36.0365 207.85 35.8685 207.85 35.5325V35.3885C207.85 35.1725 208.054 34.8605 208.462 34.4525C208.894 34.0205 209.11 33.5405 209.11 33.0125V25.8125C209.11 24.0125 208.75 22.6085 208.03 21.6005C207.334 20.5925 206.434 20.0885 205.33 20.0885C204.25 20.0885 203.362 20.4965 202.666 21.3125C201.97 22.1045 201.598 23.1245 201.55 24.3725L201.586 33.0125C201.586 33.5405 201.826 34.0205 202.306 34.4525C202.786 34.8605 203.026 35.1725 203.026 35.3885V35.5325C203.026 35.8685 202.774 36.0365 202.27 36.0365H196.69C196.162 36.0365 195.898 35.8685 195.898 35.5325V35.3885C195.898 35.1725 196.138 34.8605 196.618 34.4525C197.098 34.0205 197.338 33.5405 197.338 33.0125V23.3645C197.338 22.9325 197.206 22.5725 196.942 22.2845C196.678 21.9965 196.414 21.7565 196.15 21.5645C195.886 21.3725 195.754 21.1685 195.754 20.9525V20.8445C195.754 20.6045 195.97 20.3885 196.402 20.1965L200.074 18.5045C200.458 18.3365 200.746 18.3245 200.938 18.4685C201.13 18.5885 201.226 18.8165 201.226 19.1525V21.2765C201.754 20.3885 202.462 19.6805 203.35 19.1525C204.262 18.6245 205.27 18.3605 206.374 18.3605C207.694 18.3605 208.882 18.6725 209.938 19.2965C211.018 19.9205 211.858 20.7965 212.458 21.9245C212.914 20.7965 213.646 19.9205 214.654 19.2965C215.662 18.6725 216.802 18.3605 218.074 18.3605C219.946 18.3605 221.482 18.9965 222.682 20.2685C223.906 21.5165 224.614 23.5325 224.806 26.3165L225.238 32.9765ZM247.026 20.0525C247.026 20.1965 246.906 20.3765 246.666 20.5925C246.426 20.7845 246.186 21.0485 245.946 21.3845C245.706 21.7205 245.586 22.1165 245.586 22.5725V33.0125C245.586 33.5405 245.814 34.0205 246.27 34.4525C246.726 34.8845 246.954 35.1965 246.954 35.3885V35.4965C246.954 35.8325 246.75 36.0005 246.342 36.0005H242.598C242.142 36.0005 241.914 35.7725 241.914 35.3165V33.8765C240.738 35.5325 239.01 36.3605 236.73 36.3605C234.426 36.3605 232.446 35.5325 230.79 33.8765C229.158 32.2205 228.342 30.0365 228.342 27.3245C228.342 24.7085 229.146 22.5605 230.754 20.8805C232.386 19.2005 234.402 18.3605 236.802 18.3605C238.89 18.3605 240.594 19.1165 241.914 20.6285V19.2965C241.914 18.9845 242.034 18.7565 242.274 18.6125C242.514 18.4685 242.838 18.4445 243.246 18.5405L246.378 19.1885C246.81 19.3085 247.026 19.5605 247.026 19.9445V20.0525ZM237.702 34.9925C238.686 34.9925 239.562 34.5845 240.33 33.7685C241.122 32.9525 241.518 31.8125 241.518 30.3485V24.5885C241.518 23.3885 241.062 22.2845 240.15 21.2765C239.238 20.2445 238.17 19.7285 236.946 19.7285C235.602 19.7285 234.522 20.2805 233.706 21.3845C232.89 22.4645 232.47 23.9525 232.446 25.8485C232.398 28.3685 232.854 30.5165 233.814 32.2925C234.798 34.0685 236.094 34.9685 237.702 34.9925ZM256.347 36.3605C254.787 36.3605 253.551 35.8685 252.639 34.8845C251.751 33.8765 251.307 32.4245 251.307 30.5285V20.4845H249.255C248.847 20.4845 248.643 20.2805 248.643 19.8725V19.3685C248.643 18.9365 248.847 18.7205 249.255 18.7205H250.371C251.283 18.7205 252.015 18.4085 252.567 17.7845C253.143 17.1605 253.503 16.3085 253.647 15.2285C253.719 14.7005 253.959 14.4365 254.367 14.4365H254.907C255.363 14.4365 255.591 14.7005 255.591 15.2285L255.627 18.7205H260.163C260.355 18.7205 260.511 18.7805 260.631 18.9005C260.751 19.0205 260.811 19.1765 260.811 19.3685V19.8725C260.811 20.2805 260.595 20.4845 260.163 20.4845H255.627V30.5645C255.627 31.4045 255.819 32.0645 256.203 32.5445C256.587 33.0005 257.079 33.2285 257.679 33.2285C259.119 33.2285 259.971 32.6045 260.235 31.3565C260.331 31.1645 260.475 31.0445 260.667 30.9965C260.859 30.9485 261.027 30.9725 261.171 31.0685C261.339 31.1645 261.423 31.3205 261.423 31.5365C261.423 32.8325 260.955 33.9605 260.019 34.9205C259.107 35.8805 257.883 36.3605 256.347 36.3605ZM272.946 18.3605C273.978 18.3605 274.782 18.6485 275.358 19.2245C275.958 19.8005 276.258 20.5205 276.258 21.3845C276.258 22.8965 275.634 23.6525 274.386 23.6525C273.858 23.6525 273.45 23.5085 273.162 23.2205C272.874 22.9325 272.694 22.6085 272.622 22.2485C272.55 21.8885 272.382 21.5645 272.118 21.2765C271.854 20.9885 271.494 20.8445 271.038 20.8445C270.246 20.8445 269.634 21.2765 269.202 22.1405C268.77 23.0045 268.554 24.0605 268.554 25.3085V33.0125C268.554 33.5405 268.83 34.0085 269.382 34.4165C269.934 34.8245 270.21 35.1365 270.21 35.3525V35.4965C270.21 35.8325 269.958 36.0005 269.454 36.0005H263.874C263.37 36.0005 263.118 35.8325 263.118 35.4965V35.3525C263.118 35.1365 263.346 34.8245 263.802 34.4165C264.258 34.0085 264.486 33.5405 264.486 33.0125V23.3285C264.486 22.7765 264.222 22.3085 263.694 21.9245C263.19 21.5165 262.938 21.2045 262.938 20.9885V20.8805C262.938 20.6165 263.154 20.3645 263.586 20.1245L267.114 18.5045C267.81 18.1685 268.158 18.3725 268.158 19.1165V21.9245C268.974 19.5485 270.57 18.3605 272.946 18.3605ZM281.128 15.7325C280.24 15.7325 279.52 15.4805 278.968 14.9765C278.416 14.4725 278.14 13.8245 278.14 13.0325C278.14 12.2405 278.416 11.5925 278.968 11.0885C279.52 10.5845 280.24 10.3325 281.128 10.3325C281.992 10.3325 282.688 10.5845 283.216 11.0885C283.768 11.5925 284.044 12.2405 284.044 13.0325C284.044 13.8245 283.768 14.4725 283.216 14.9765C282.688 15.4805 281.992 15.7325 281.128 15.7325ZM278.464 36.0005C277.96 36.0005 277.708 35.8205 277.708 35.4605V35.3165C277.708 35.1005 277.924 34.7885 278.356 34.3805C278.812 33.9725 279.04 33.5045 279.04 32.9765V23.5445C279.04 22.9925 278.812 22.4765 278.356 21.9965C277.924 21.5165 277.708 21.2045 277.708 21.0605V20.9525C277.708 20.7605 277.924 20.5445 278.356 20.3045L281.956 18.5045C282.364 18.3365 282.676 18.3245 282.892 18.4685C283.132 18.5885 283.252 18.8045 283.252 19.1165V32.9765C283.252 33.5045 283.492 33.9725 283.972 34.3805C284.476 34.7885 284.728 35.1005 284.728 35.3165V35.4605C284.728 35.8205 284.464 36.0005 283.936 36.0005H278.464ZM295.911 36.3605C293.319 36.3605 291.123 35.4845 289.323 33.7325C287.547 31.9565 286.659 29.8085 286.659 27.2885C286.659 24.6245 287.535 22.4765 289.287 20.8445C291.039 19.2125 293.187 18.3845 295.731 18.3605C297.699 18.3365 299.391 18.8165 300.807 19.8005C302.247 20.7605 302.967 21.8645 302.967 23.1125C302.967 23.5685 302.811 23.9525 302.499 24.2645C302.211 24.5525 301.755 24.6845 301.131 24.6605C300.555 24.6365 300.039 24.3605 299.583 23.8325C299.127 23.3045 298.755 22.7405 298.467 22.1405C298.179 21.5405 297.735 20.9885 297.135 20.4845C296.559 19.9805 295.863 19.7285 295.047 19.7285C293.823 19.7285 292.827 20.2565 292.059 21.3125C291.291 22.3685 290.907 23.6885 290.907 25.2725C290.907 27.7205 291.495 29.6885 292.671 31.1765C293.847 32.6405 295.395 33.3725 297.315 33.3725C299.403 33.3725 300.951 32.3885 301.959 30.4205C302.151 30.1325 302.403 30.0245 302.715 30.0965C303.027 30.1685 303.159 30.3845 303.111 30.7445C302.919 32.2805 302.187 33.6005 300.915 34.7045C299.667 35.8085 297.999 36.3605 295.911 36.3605Z" fill="#FFF6F7"/>
<g clip-path="url(#clip0_774_3169)">
<path d="M95.458 40.8249C95.416 38.6601 95.4161 36.9862 95.4388 35.588C96.0689 35.0364 98.3994 32.3943 105.732 34.733C107.793 34.5867 104.442 29.4947 95.7285 24.7824C95.7177 23.5914 95.6888 22.2133 95.6344 20.5687C95.9757 20.8816 96.6262 21.1448 97.7947 21.4051C98.5595 22.4289 96.7972 22.7503 95.8875 22.6499C98.5936 25.5461 100.182 27.3692 110.515 27.7878C110.314 23.3821 108.201 19.3938 105.713 19.8663C109.082 17.7946 107.487 13.3262 106.872 9.77141C103.113 9.70141 98.4099 12.609 95.5746 18.9137C95.4749 16.3624 95.321 13.2392 95.0932 9.32631L95.32 19.5011C95.3032 19.6317 95.2957 19.7544 95.3026 19.8703L95.1754 22.5712L95.1874 24.4939L95.2537 35.1753C95.2255 35.5101 95.2222 35.6587 95.272 35.6815L95.458 40.8249Z" fill="url(#paint0_linear_774_3169)"/>
<path d="M93.5746 9.47025C93.6158 11.1219 93.652 12.5987 93.6844 13.9545C93.2064 13.7215 91.381 14.2488 85.1107 12.4357C83.1826 12.6725 85.527 21.0574 93.9145 25.3135C93.9247 25.9626 93.9348 26.6299 93.9449 27.3252L93.8543 29.7168C93.8106 29.0541 93.3878 28.4909 91.6747 28.1692C90.9661 27.2083 92.4603 27.0836 93.296 27.1414C90.7935 24.4468 89.3241 22.7456 79.8362 22.791C80.0492 27.0612 82.014 30.8424 84.2941 30.2747C81.2151 32.4342 82.7074 36.7043 83.2946 40.13C86.8517 40.0306 91.3079 36.816 93.837 30.1749L94.1099 40.0471C94.041 34.4969 93.9925 30.6002 93.9449 27.3252L93.9501 27.1867L93.927 25.3198L93.7981 14.9485C93.8383 14.3958 93.8789 14.1359 93.7598 14.0086L93.5746 9.47025Z" fill="url(#paint1_linear_774_3169)"/>
</g>
<defs>
<linearGradient id="paint0_linear_774_3169" x1="102.936" y1="41.6508" x2="106.462" y2="9.72611" gradientUnits="userSpaceOnUse">
<stop stop-color="#B40E1D"/>
<stop offset="1" stop-color="#280226"/>
</linearGradient>
<linearGradient id="paint1_linear_774_3169" x1="86.7188" y1="8.99611" x2="84.5595" y2="40.2175" gradientUnits="userSpaceOnUse">
<stop stop-color="#B40E1D"/>
<stop offset="1" stop-color="#280226"/>
</linearGradient>
<clipPath id="clip0_774_3169">
<rect width="44" height="44" fill="white" transform="translate(73 3.00049)"/>
</clipPath>
</defs>
</svg>
