<svg width="373" height="82" viewBox="0 0 373 82" fill="none" xmlns="http://www.w3.org/2000/svg">
<path d="M11.3906 70.3193C11.3906 71.2725 11.0547 72.0928 10.3828 72.7803C9.39844 73.749 8.00781 74.2334 6.21094 74.2334C4.67969 74.2334 3.3125 73.835 2.10938 73.0381C2.10938 73.3662 2.09375 73.5928 2.0625 73.7178C2 73.9365 1.78125 74.0459 1.40625 74.0459V69.1943H2.10938C2.375 72.085 3.70312 73.5459 6.09375 73.5771C6.70312 73.5771 7.25781 73.4678 7.75781 73.249C8.82031 72.7646 9.35156 71.9756 9.35156 70.8818C9.35156 70.46 9.25 70.0693 9.04688 69.71C8.67188 69.0693 7.78125 68.4365 6.375 67.8115C4.85938 67.1553 3.96875 66.7568 3.70312 66.6162C2.23438 65.7881 1.5 64.7178 1.5 63.4053C1.5 62.5303 1.8125 61.7646 2.4375 61.1084C3.375 60.1709 4.6875 59.7021 6.375 59.7021C7.76562 59.7021 9.01562 60.0068 10.125 60.6162C10.125 60.4287 10.1406 60.2803 10.1719 60.1709C10.2344 59.9365 10.4531 59.8193 10.8281 59.8193V63.9209H10.125C10.1406 63.0459 9.92188 62.3037 9.46875 61.6943C8.78125 60.8037 7.78125 60.3584 6.46875 60.3584C5.9375 60.3584 5.45312 60.4443 5.01562 60.6162C4 61.0225 3.49219 61.749 3.49219 62.7959C3.49219 63.1865 3.58594 63.5537 3.77344 63.8975C4.13281 64.5225 5.00781 65.1318 6.39844 65.7256C7.92969 66.3975 8.84375 66.8115 9.14062 66.9678C10.6406 67.8115 11.3906 68.9287 11.3906 70.3193ZM14.9766 77.7256C15.1953 77.7256 15.4141 77.6787 15.6328 77.585C16.3984 77.2568 17.2188 76.0615 18.0938 73.999L13.875 64.6475H12.7266V64.0381H17.2969V64.6475H15.7266L18.9375 72.1475L21.9375 64.6475H20.2266V64.0381H23.7891C23.7891 64.1787 23.7734 64.2959 23.7422 64.3896C23.6953 64.5615 23.5156 64.6475 23.2031 64.6475C23.0625 64.6475 22.9375 64.6631 22.8281 64.6943C22.6406 64.7568 22.4688 65.0068 22.3125 65.4443L18.8438 73.999C18.5 74.8428 18.1406 75.5693 17.7656 76.1787C16.8594 77.6943 15.7891 78.4521 14.5547 78.4521C14.2109 78.4521 13.8828 78.3896 13.5703 78.2646C12.8828 77.999 12.5391 77.5693 12.5391 76.9756C12.5391 76.9287 12.5469 76.874 12.5625 76.8115C12.6406 76.374 12.9297 76.1553 13.4297 76.1553C13.6172 76.1553 13.7812 76.2021 13.9219 76.2959C14.0781 76.4053 14.2422 76.6943 14.4141 77.1631C14.5391 77.5381 14.7266 77.7256 14.9766 77.7256ZM29.1797 73.4131C29.2578 73.4131 29.3359 73.4209 29.4141 73.4365C29.6484 73.4834 29.7656 73.6709 29.7656 73.999H24.6094V73.4131C25.1406 73.4131 25.5234 73.374 25.7578 73.2959C26.1641 73.1553 26.3672 72.7256 26.3672 72.0068V64.624H24.6094V64.0381H28.0078L28.1016 66.3818C28.2578 65.96 28.4688 65.5771 28.7344 65.2334C29.4688 64.2803 30.3984 63.8037 31.5234 63.8037C31.8203 63.8037 32.1094 63.8584 32.3906 63.9678C33.3438 64.3271 33.9609 65.124 34.2422 66.3584C34.3672 66.0459 34.5234 65.749 34.7109 65.4678C35.4297 64.3584 36.3828 63.8037 37.5703 63.8037C38.1172 63.8037 38.625 63.9443 39.0938 64.2256C40.1406 64.8662 40.6641 65.9912 40.6641 67.6006V73.4131H41.8594C41.9531 73.4131 42.0312 73.4209 42.0938 73.4365C42.3281 73.4678 42.4453 73.6553 42.4453 73.999H37.2656V73.4131C37.7969 73.4131 38.1719 73.374 38.3906 73.2959C38.7344 73.1553 38.9062 72.7256 38.9062 72.0068V67.3662C38.9062 66.8662 38.8281 66.4209 38.6719 66.0303C38.3438 65.2021 37.7812 64.7881 36.9844 64.7881C36.6875 64.7881 36.375 64.8662 36.0469 65.0225C35.1875 65.4756 34.6328 66.2725 34.3828 67.4131V67.6006V73.4131H35.4375C35.5312 73.4131 35.6094 73.4209 35.6719 73.4365C35.9062 73.4678 36.0234 73.6553 36.0234 73.999H30.9844V73.4131C31.5156 73.4131 31.8906 73.374 32.1094 73.2959C32.4531 73.1553 32.625 72.7256 32.625 72.0068V67.3662C32.625 66.8975 32.5625 66.4756 32.4375 66.1006C32.1406 65.2412 31.6016 64.8115 30.8203 64.8115C30.3984 64.8115 29.9766 64.9678 29.5547 65.2803C28.6484 65.9521 28.1719 66.9756 28.125 68.3506V73.4131H29.1797ZM48.3047 73.4131C48.3828 73.4131 48.4609 73.4209 48.5391 73.4365C48.7734 73.4834 48.8906 73.6709 48.8906 73.999H43.7344V73.4131C44.2656 73.4131 44.6484 73.374 44.8828 73.2959C45.2891 73.1553 45.4922 72.7256 45.4922 72.0068V64.624H43.7344V64.0381H47.1328L47.2266 66.3818C47.3828 65.96 47.5938 65.5771 47.8594 65.2334C48.5938 64.2803 49.5234 63.8037 50.6484 63.8037C50.9453 63.8037 51.2344 63.8584 51.5156 63.9678C52.4688 64.3271 53.0859 65.124 53.3672 66.3584C53.4922 66.0459 53.6484 65.749 53.8359 65.4678C54.5547 64.3584 55.5078 63.8037 56.6953 63.8037C57.2422 63.8037 57.75 63.9443 58.2188 64.2256C59.2656 64.8662 59.7891 65.9912 59.7891 67.6006V73.4131H60.9844C61.0781 73.4131 61.1562 73.4209 61.2188 73.4365C61.4531 73.4678 61.5703 73.6553 61.5703 73.999H56.3906V73.4131C56.9219 73.4131 57.2969 73.374 57.5156 73.2959C57.8594 73.1553 58.0312 72.7256 58.0312 72.0068V67.3662C58.0312 66.8662 57.9531 66.4209 57.7969 66.0303C57.4688 65.2021 56.9062 64.7881 56.1094 64.7881C55.8125 64.7881 55.5 64.8662 55.1719 65.0225C54.3125 65.4756 53.7578 66.2725 53.5078 67.4131V67.6006V73.4131H54.5625C54.6562 73.4131 54.7344 73.4209 54.7969 73.4365C55.0312 73.4678 55.1484 73.6553 55.1484 73.999H50.1094V73.4131C50.6406 73.4131 51.0156 73.374 51.2344 73.2959C51.5781 73.1553 51.75 72.7256 51.75 72.0068V67.3662C51.75 66.8975 51.6875 66.4756 51.5625 66.1006C51.2656 65.2412 50.7266 64.8115 49.9453 64.8115C49.5234 64.8115 49.1016 64.9678 48.6797 65.2803C47.7734 65.9521 47.2969 66.9756 47.25 68.3506V73.4131H48.3047ZM67.9922 64.3896C67.5859 64.3896 67.2031 64.4834 66.8438 64.6709C65.75 65.2178 65.1641 66.3896 65.0859 68.1865L67.5703 68.2568C68.2891 68.2725 68.8438 68.2412 69.2344 68.1631C69.9844 67.9912 70.3594 67.5146 70.3594 66.7334C70.3594 66.3896 70.2969 66.0693 70.1719 65.7725C69.8125 64.8506 69.0859 64.3896 67.9922 64.3896ZM72.0703 71.749C71.9766 71.9678 71.8672 72.1865 71.7422 72.4053C70.9453 73.624 69.7031 74.2334 68.0156 74.2334C66.9531 74.2334 66.0078 73.96 65.1797 73.4131C63.7891 72.4756 63.0938 71.0381 63.0938 69.1006C63.0938 68.0381 63.3125 67.085 63.75 66.2412C64.5938 64.6162 65.9922 63.8037 67.9453 63.8037C68.9453 63.8037 69.8281 64.0303 70.5938 64.4834C71.6719 65.1084 72.2109 65.9521 72.2109 67.0146C72.2109 67.5928 72 68.0381 71.5781 68.3506C71.0312 68.7412 69.8047 68.9209 67.8984 68.8896L65.0859 68.8428C65.1016 69.499 65.1719 70.1006 65.2969 70.6475C65.7188 72.6006 66.75 73.5771 68.3906 73.5771C68.5312 73.5771 68.6797 73.5693 68.8359 73.5537C70.0547 73.3975 70.9375 72.7256 71.4844 71.5381L72.0703 71.749ZM73.5 64.624V64.0381H75.1406V61.8115L76.8984 61.3193V64.0381H80.5312V64.624H76.8984V71.749C76.9141 72.9209 77.3438 73.5225 78.1875 73.5537C78.9375 73.4443 79.5078 72.7412 79.8984 71.4443L80.5312 71.5615C80.5312 71.5771 80.5312 71.5928 80.5312 71.6084C80.1719 73.374 79.2734 74.2568 77.8359 74.2568C76.1484 74.1943 75.25 73.1865 75.1406 71.2334V64.624H73.5ZM86.6016 73.4131C86.6953 73.4131 86.7734 73.4209 86.8359 73.4365C87.0703 73.4678 87.1875 73.6553 87.1875 73.999H81.3984V73.4131C81.9297 73.4131 82.3125 73.374 82.5469 73.2959C82.9531 73.1553 83.1562 72.7256 83.1562 72.0068V64.624H81.3984V64.0381H84.7969L84.8906 66.3584C85.0938 65.8896 85.3672 65.4678 85.7109 65.0928C86.4453 64.2959 87.2812 63.8975 88.2188 63.8975C88.3594 63.8975 88.5078 63.9131 88.6641 63.9443C89.3828 64.1006 89.7422 64.5303 89.7422 65.2334C89.7422 65.3271 89.7266 65.4209 89.6953 65.5146C89.5703 65.9678 89.2734 66.1943 88.8047 66.1943C88.7109 66.1943 88.6172 66.1787 88.5234 66.1475C88.3047 66.085 88.0703 65.835 87.8203 65.3975C87.6016 65.0068 87.3594 64.8115 87.0938 64.8115C86.8594 64.8271 86.5703 64.999 86.2266 65.3271C85.3516 66.1865 84.9141 67.3271 84.9141 68.749V73.4131H86.6016ZM95.3672 73.4131C95.4453 73.4131 95.5234 73.4209 95.6016 73.4365C95.8359 73.4678 95.9531 73.6553 95.9531 73.999H90.5625V73.4131C91.0938 73.4131 91.4766 73.3818 91.7109 73.3193C92.1953 73.1631 92.4375 72.7256 92.4375 72.0068V64.624H90.5625V64.0381H94.1953V73.4131H95.3672ZM94.4766 60.6162C94.4766 60.8037 94.4375 60.9834 94.3594 61.1553C94.1406 61.6553 93.7578 61.9053 93.2109 61.9053C93.0391 61.9053 92.8672 61.874 92.6953 61.8115C92.1797 61.5928 91.9219 61.1943 91.9219 60.6162C91.9219 60.4287 91.9609 60.249 92.0391 60.0771C92.2734 59.5771 92.6641 59.3271 93.2109 59.3271C93.3828 59.3271 93.5625 59.3662 93.75 59.4443C94.2344 59.6787 94.4766 60.0693 94.4766 60.6162ZM97.5938 69.124C97.5938 68.0928 97.7891 67.1709 98.1797 66.3584C99.0078 64.6553 100.469 63.8037 102.562 63.8037C103.406 63.8037 104.188 63.9834 104.906 64.3428C105.922 64.8584 106.43 65.5146 106.43 66.3115C106.43 66.4053 106.414 66.5068 106.383 66.6162C106.242 67.085 105.906 67.3037 105.375 67.2725C105.188 67.2568 105.016 67.21 104.859 67.1318C104.609 66.9756 104.438 66.585 104.344 65.96C104.297 65.6943 104.258 65.499 104.227 65.374C104.055 64.7178 103.547 64.3896 102.703 64.3896C102.156 64.3896 101.656 64.5303 101.203 64.8115C100.125 65.499 99.5859 66.8662 99.5859 68.9131C99.5859 70.0693 99.8203 71.0693 100.289 71.9131C100.914 73.0225 101.781 73.5771 102.891 73.5771C103.016 73.5771 103.141 73.5693 103.266 73.5537C104.594 73.4287 105.547 72.749 106.125 71.5146L106.734 71.7256C106.625 71.9912 106.477 72.2568 106.289 72.5225C105.461 73.6631 104.234 74.2334 102.609 74.2334C101.516 74.2334 100.539 73.9443 99.6797 73.3662C98.2891 72.4287 97.5938 71.0146 97.5938 69.124ZM121.359 68.9365H117.445V73.1084H116.391V68.9365H112.477V68.0928H116.391V63.9209H117.445V68.0928H121.359V68.9365ZM141.352 73.999H136.289V73.3896H137.812L136.055 68.8428H131.156L129.398 73.3896H130.547C130.625 73.3896 130.703 73.3975 130.781 73.4131C131.031 73.46 131.156 73.6553 131.156 73.999H126.984V73.3896H128.461L133.711 59.9365H134.578L139.945 73.3896H140.742C140.82 73.3896 140.898 73.3975 140.977 73.4131C141.227 73.46 141.352 73.6553 141.352 73.999ZM135.797 68.1631L133.594 62.4912L131.414 68.1631H135.797ZM145.805 73.6006C146.883 73.6006 147.609 73.2725 147.984 72.6162C148.125 72.3818 148.195 72.124 148.195 71.8428C148.195 71.1865 147.719 70.624 146.766 70.1553C146.562 70.0459 146.227 69.8896 145.758 69.6865C144.477 69.1553 143.625 68.6553 143.203 68.1865C142.75 67.6709 142.523 67.0693 142.523 66.3818C142.523 65.3037 143.117 64.5459 144.305 64.1084C144.852 63.9053 145.445 63.8037 146.086 63.8037C147.117 63.8037 148.008 64.0225 148.758 64.46C148.758 64.0068 148.867 63.749 149.086 63.6865C149.18 63.6709 149.281 63.6631 149.391 63.6631V66.5928H148.781C148.75 65.1553 147.953 64.4287 146.391 64.4131C145.219 64.4131 144.492 64.7568 144.211 65.4443C144.133 65.6318 144.094 65.8271 144.094 66.0303C144.094 66.7021 144.578 67.2725 145.547 67.7412C145.766 67.8506 146.109 67.999 146.578 68.1865C147.844 68.7021 148.688 69.1943 149.109 69.6631C149.562 70.1631 149.789 70.7568 149.789 71.4443C149.789 72.71 149.117 73.5537 147.773 73.9756C147.258 74.1475 146.695 74.2334 146.086 74.2334C144.961 74.2178 143.984 73.9365 143.156 73.3896C143.156 73.7959 143.055 74.0303 142.852 74.0928C142.758 74.1084 142.648 74.1162 142.523 74.1162V70.5537H143.18C143.211 72.5693 144.086 73.585 145.805 73.6006ZM153.141 77.7256C153.359 77.7256 153.578 77.6787 153.797 77.585C154.562 77.2568 155.383 76.0615 156.258 73.999L152.039 64.6475H150.891V64.0381H155.461V64.6475H153.891L157.102 72.1475L160.102 64.6475H158.391V64.0381H161.953C161.953 64.1787 161.938 64.2959 161.906 64.3896C161.859 64.5615 161.68 64.6475 161.367 64.6475C161.227 64.6475 161.102 64.6631 160.992 64.6943C160.805 64.7568 160.633 65.0068 160.477 65.4443L157.008 73.999C156.664 74.8428 156.305 75.5693 155.93 76.1787C155.023 77.6943 153.953 78.4521 152.719 78.4521C152.375 78.4521 152.047 78.3896 151.734 78.2646C151.047 77.999 150.703 77.5693 150.703 76.9756C150.703 76.9287 150.711 76.874 150.727 76.8115C150.805 76.374 151.094 76.1553 151.594 76.1553C151.781 76.1553 151.945 76.2021 152.086 76.2959C152.242 76.4053 152.406 76.6943 152.578 77.1631C152.703 77.5381 152.891 77.7256 153.141 77.7256ZM167.344 73.4131C167.422 73.4131 167.5 73.4209 167.578 73.4365C167.812 73.4834 167.93 73.6709 167.93 73.999H162.773V73.4131C163.305 73.4131 163.688 73.374 163.922 73.2959C164.328 73.1553 164.531 72.7256 164.531 72.0068V64.624H162.773V64.0381H166.172L166.266 66.3818C166.422 65.96 166.633 65.5771 166.898 65.2334C167.633 64.2803 168.562 63.8037 169.688 63.8037C169.984 63.8037 170.273 63.8584 170.555 63.9678C171.508 64.3271 172.125 65.124 172.406 66.3584C172.531 66.0459 172.688 65.749 172.875 65.4678C173.594 64.3584 174.547 63.8037 175.734 63.8037C176.281 63.8037 176.789 63.9443 177.258 64.2256C178.305 64.8662 178.828 65.9912 178.828 67.6006V73.4131H180.023C180.117 73.4131 180.195 73.4209 180.258 73.4365C180.492 73.4678 180.609 73.6553 180.609 73.999H175.43V73.4131C175.961 73.4131 176.336 73.374 176.555 73.2959C176.898 73.1553 177.07 72.7256 177.07 72.0068V67.3662C177.07 66.8662 176.992 66.4209 176.836 66.0303C176.508 65.2021 175.945 64.7881 175.148 64.7881C174.852 64.7881 174.539 64.8662 174.211 65.0225C173.352 65.4756 172.797 66.2725 172.547 67.4131V67.6006V73.4131H173.602C173.695 73.4131 173.773 73.4209 173.836 73.4365C174.07 73.4678 174.188 73.6553 174.188 73.999H169.148V73.4131C169.68 73.4131 170.055 73.374 170.273 73.2959C170.617 73.1553 170.789 72.7256 170.789 72.0068V67.3662C170.789 66.8975 170.727 66.4756 170.602 66.1006C170.305 65.2412 169.766 64.8115 168.984 64.8115C168.562 64.8115 168.141 64.9678 167.719 65.2803C166.812 65.9521 166.336 66.9756 166.289 68.3506V73.4131H167.344ZM186.469 73.4131C186.547 73.4131 186.625 73.4209 186.703 73.4365C186.938 73.4834 187.055 73.6709 187.055 73.999H181.898V73.4131C182.43 73.4131 182.812 73.374 183.047 73.2959C183.453 73.1553 183.656 72.7256 183.656 72.0068V64.624H181.898V64.0381H185.297L185.391 66.3818C185.547 65.96 185.758 65.5771 186.023 65.2334C186.758 64.2803 187.688 63.8037 188.812 63.8037C189.109 63.8037 189.398 63.8584 189.68 63.9678C190.633 64.3271 191.25 65.124 191.531 66.3584C191.656 66.0459 191.812 65.749 192 65.4678C192.719 64.3584 193.672 63.8037 194.859 63.8037C195.406 63.8037 195.914 63.9443 196.383 64.2256C197.43 64.8662 197.953 65.9912 197.953 67.6006V73.4131H199.148C199.242 73.4131 199.32 73.4209 199.383 73.4365C199.617 73.4678 199.734 73.6553 199.734 73.999H194.555V73.4131C195.086 73.4131 195.461 73.374 195.68 73.2959C196.023 73.1553 196.195 72.7256 196.195 72.0068V67.3662C196.195 66.8662 196.117 66.4209 195.961 66.0303C195.633 65.2021 195.07 64.7881 194.273 64.7881C193.977 64.7881 193.664 64.8662 193.336 65.0225C192.477 65.4756 191.922 66.2725 191.672 67.4131V67.6006V73.4131H192.727C192.82 73.4131 192.898 73.4209 192.961 73.4365C193.195 73.4678 193.312 73.6553 193.312 73.999H188.273V73.4131C188.805 73.4131 189.18 73.374 189.398 73.2959C189.742 73.1553 189.914 72.7256 189.914 72.0068V67.3662C189.914 66.8975 189.852 66.4756 189.727 66.1006C189.43 65.2412 188.891 64.8115 188.109 64.8115C187.688 64.8115 187.266 64.9678 186.844 65.2803C185.938 65.9521 185.461 66.9756 185.414 68.3506V73.4131H186.469ZM206.156 64.3896C205.75 64.3896 205.367 64.4834 205.008 64.6709C203.914 65.2178 203.328 66.3896 203.25 68.1865L205.734 68.2568C206.453 68.2725 207.008 68.2412 207.398 68.1631C208.148 67.9912 208.523 67.5146 208.523 66.7334C208.523 66.3896 208.461 66.0693 208.336 65.7725C207.977 64.8506 207.25 64.3896 206.156 64.3896ZM210.234 71.749C210.141 71.9678 210.031 72.1865 209.906 72.4053C209.109 73.624 207.867 74.2334 206.18 74.2334C205.117 74.2334 204.172 73.96 203.344 73.4131C201.953 72.4756 201.258 71.0381 201.258 69.1006C201.258 68.0381 201.477 67.085 201.914 66.2412C202.758 64.6162 204.156 63.8037 206.109 63.8037C207.109 63.8037 207.992 64.0303 208.758 64.4834C209.836 65.1084 210.375 65.9521 210.375 67.0146C210.375 67.5928 210.164 68.0381 209.742 68.3506C209.195 68.7412 207.969 68.9209 206.062 68.8896L203.25 68.8428C203.266 69.499 203.336 70.1006 203.461 70.6475C203.883 72.6006 204.914 73.5771 206.555 73.5771C206.695 73.5771 206.844 73.5693 207 73.5537C208.219 73.3975 209.102 72.7256 209.648 71.5381L210.234 71.749ZM211.664 64.624V64.0381H213.305V61.8115L215.062 61.3193V64.0381H218.695V64.624H215.062V71.749C215.078 72.9209 215.508 73.5225 216.352 73.5537C217.102 73.4443 217.672 72.7412 218.062 71.4443L218.695 71.5615C218.695 71.5771 218.695 71.5928 218.695 71.6084C218.336 73.374 217.438 74.2568 216 74.2568C214.312 74.1943 213.414 73.1865 213.305 71.2334V64.624H211.664ZM224.766 73.4131C224.859 73.4131 224.938 73.4209 225 73.4365C225.234 73.4678 225.352 73.6553 225.352 73.999H219.562V73.4131C220.094 73.4131 220.477 73.374 220.711 73.2959C221.117 73.1553 221.32 72.7256 221.32 72.0068V64.624H219.562V64.0381H222.961L223.055 66.3584C223.258 65.8896 223.531 65.4678 223.875 65.0928C224.609 64.2959 225.445 63.8975 226.383 63.8975C226.523 63.8975 226.672 63.9131 226.828 63.9443C227.547 64.1006 227.906 64.5303 227.906 65.2334C227.906 65.3271 227.891 65.4209 227.859 65.5146C227.734 65.9678 227.438 66.1943 226.969 66.1943C226.875 66.1943 226.781 66.1787 226.688 66.1475C226.469 66.085 226.234 65.835 225.984 65.3975C225.766 65.0068 225.523 64.8115 225.258 64.8115C225.023 64.8271 224.734 64.999 224.391 65.3271C223.516 66.1865 223.078 67.3271 223.078 68.749V73.4131H224.766ZM233.531 73.4131C233.609 73.4131 233.688 73.4209 233.766 73.4365C234 73.4678 234.117 73.6553 234.117 73.999H228.727V73.4131C229.258 73.4131 229.641 73.3818 229.875 73.3193C230.359 73.1631 230.602 72.7256 230.602 72.0068V64.624H228.727V64.0381H232.359V73.4131H233.531ZM232.641 60.6162C232.641 60.8037 232.602 60.9834 232.523 61.1553C232.305 61.6553 231.922 61.9053 231.375 61.9053C231.203 61.9053 231.031 61.874 230.859 61.8115C230.344 61.5928 230.086 61.1943 230.086 60.6162C230.086 60.4287 230.125 60.249 230.203 60.0771C230.438 59.5771 230.828 59.3271 231.375 59.3271C231.547 59.3271 231.727 59.3662 231.914 59.4443C232.398 59.6787 232.641 60.0693 232.641 60.6162ZM235.758 69.124C235.758 68.0928 235.953 67.1709 236.344 66.3584C237.172 64.6553 238.633 63.8037 240.727 63.8037C241.57 63.8037 242.352 63.9834 243.07 64.3428C244.086 64.8584 244.594 65.5146 244.594 66.3115C244.594 66.4053 244.578 66.5068 244.547 66.6162C244.406 67.085 244.07 67.3037 243.539 67.2725C243.352 67.2568 243.18 67.21 243.023 67.1318C242.773 66.9756 242.602 66.585 242.508 65.96C242.461 65.6943 242.422 65.499 242.391 65.374C242.219 64.7178 241.711 64.3896 240.867 64.3896C240.32 64.3896 239.82 64.5303 239.367 64.8115C238.289 65.499 237.75 66.8662 237.75 68.9131C237.75 70.0693 237.984 71.0693 238.453 71.9131C239.078 73.0225 239.945 73.5771 241.055 73.5771C241.18 73.5771 241.305 73.5693 241.43 73.5537C242.758 73.4287 243.711 72.749 244.289 71.5146L244.898 71.7256C244.789 71.9912 244.641 72.2568 244.453 72.5225C243.625 73.6631 242.398 74.2334 240.773 74.2334C239.68 74.2334 238.703 73.9443 237.844 73.3662C236.453 72.4287 235.758 71.0146 235.758 69.124ZM259.523 67.6475H250.641V66.8037H259.523V67.6475ZM259.523 70.2256H250.641V69.3818H259.523V70.2256ZM276.539 70.3193C276.539 71.2725 276.203 72.0928 275.531 72.7803C274.547 73.749 273.156 74.2334 271.359 74.2334C269.828 74.2334 268.461 73.835 267.258 73.0381C267.258 73.3662 267.242 73.5928 267.211 73.7178C267.148 73.9365 266.93 74.0459 266.555 74.0459V69.1943H267.258C267.523 72.085 268.852 73.5459 271.242 73.5771C271.852 73.5771 272.406 73.4678 272.906 73.249C273.969 72.7646 274.5 71.9756 274.5 70.8818C274.5 70.46 274.398 70.0693 274.195 69.71C273.82 69.0693 272.93 68.4365 271.523 67.8115C270.008 67.1553 269.117 66.7568 268.852 66.6162C267.383 65.7881 266.648 64.7178 266.648 63.4053C266.648 62.5303 266.961 61.7646 267.586 61.1084C268.523 60.1709 269.836 59.7021 271.523 59.7021C272.914 59.7021 274.164 60.0068 275.273 60.6162C275.273 60.4287 275.289 60.2803 275.32 60.1709C275.383 59.9365 275.602 59.8193 275.977 59.8193V63.9209H275.273C275.289 63.0459 275.07 62.3037 274.617 61.6943C273.93 60.8037 272.93 60.3584 271.617 60.3584C271.086 60.3584 270.602 60.4443 270.164 60.6162C269.148 61.0225 268.641 61.749 268.641 62.7959C268.641 63.1865 268.734 63.5537 268.922 63.8975C269.281 64.5225 270.156 65.1318 271.547 65.7256C273.078 66.3975 273.992 66.8115 274.289 66.9678C275.789 67.8115 276.539 68.9287 276.539 70.3193ZM280.125 77.7256C280.344 77.7256 280.562 77.6787 280.781 77.585C281.547 77.2568 282.367 76.0615 283.242 73.999L279.023 64.6475H277.875V64.0381H282.445V64.6475H280.875L284.086 72.1475L287.086 64.6475H285.375V64.0381H288.938C288.938 64.1787 288.922 64.2959 288.891 64.3896C288.844 64.5615 288.664 64.6475 288.352 64.6475C288.211 64.6475 288.086 64.6631 287.977 64.6943C287.789 64.7568 287.617 65.0068 287.461 65.4443L283.992 73.999C283.648 74.8428 283.289 75.5693 282.914 76.1787C282.008 77.6943 280.938 78.4521 279.703 78.4521C279.359 78.4521 279.031 78.3896 278.719 78.2646C278.031 77.999 277.688 77.5693 277.688 76.9756C277.688 76.9287 277.695 76.874 277.711 76.8115C277.789 76.374 278.078 76.1553 278.578 76.1553C278.766 76.1553 278.93 76.2021 279.07 76.2959C279.227 76.4053 279.391 76.6943 279.562 77.1631C279.688 77.5381 279.875 77.7256 280.125 77.7256ZM294.328 73.4131C294.406 73.4131 294.484 73.4209 294.562 73.4365C294.797 73.4834 294.914 73.6709 294.914 73.999H289.758V73.4131C290.289 73.4131 290.672 73.374 290.906 73.2959C291.312 73.1553 291.516 72.7256 291.516 72.0068V64.624H289.758V64.0381H293.156L293.25 66.3818C293.406 65.96 293.617 65.5771 293.883 65.2334C294.617 64.2803 295.547 63.8037 296.672 63.8037C296.969 63.8037 297.258 63.8584 297.539 63.9678C298.492 64.3271 299.109 65.124 299.391 66.3584C299.516 66.0459 299.672 65.749 299.859 65.4678C300.578 64.3584 301.531 63.8037 302.719 63.8037C303.266 63.8037 303.773 63.9443 304.242 64.2256C305.289 64.8662 305.812 65.9912 305.812 67.6006V73.4131H307.008C307.102 73.4131 307.18 73.4209 307.242 73.4365C307.477 73.4678 307.594 73.6553 307.594 73.999H302.414V73.4131C302.945 73.4131 303.32 73.374 303.539 73.2959C303.883 73.1553 304.055 72.7256 304.055 72.0068V67.3662C304.055 66.8662 303.977 66.4209 303.82 66.0303C303.492 65.2021 302.93 64.7881 302.133 64.7881C301.836 64.7881 301.523 64.8662 301.195 65.0225C300.336 65.4756 299.781 66.2725 299.531 67.4131V67.6006V73.4131H300.586C300.68 73.4131 300.758 73.4209 300.82 73.4365C301.055 73.4678 301.172 73.6553 301.172 73.999H296.133V73.4131C296.664 73.4131 297.039 73.374 297.258 73.2959C297.602 73.1553 297.773 72.7256 297.773 72.0068V67.3662C297.773 66.8975 297.711 66.4756 297.586 66.1006C297.289 65.2412 296.75 64.8115 295.969 64.8115C295.547 64.8115 295.125 64.9678 294.703 65.2803C293.797 65.9521 293.32 66.9756 293.273 68.3506V73.4131H294.328ZM313.453 73.4131C313.531 73.4131 313.609 73.4209 313.688 73.4365C313.922 73.4834 314.039 73.6709 314.039 73.999H308.883V73.4131C309.414 73.4131 309.797 73.374 310.031 73.2959C310.438 73.1553 310.641 72.7256 310.641 72.0068V64.624H308.883V64.0381H312.281L312.375 66.3818C312.531 65.96 312.742 65.5771 313.008 65.2334C313.742 64.2803 314.672 63.8037 315.797 63.8037C316.094 63.8037 316.383 63.8584 316.664 63.9678C317.617 64.3271 318.234 65.124 318.516 66.3584C318.641 66.0459 318.797 65.749 318.984 65.4678C319.703 64.3584 320.656 63.8037 321.844 63.8037C322.391 63.8037 322.898 63.9443 323.367 64.2256C324.414 64.8662 324.938 65.9912 324.938 67.6006V73.4131H326.133C326.227 73.4131 326.305 73.4209 326.367 73.4365C326.602 73.4678 326.719 73.6553 326.719 73.999H321.539V73.4131C322.07 73.4131 322.445 73.374 322.664 73.2959C323.008 73.1553 323.18 72.7256 323.18 72.0068V67.3662C323.18 66.8662 323.102 66.4209 322.945 66.0303C322.617 65.2021 322.055 64.7881 321.258 64.7881C320.961 64.7881 320.648 64.8662 320.32 65.0225C319.461 65.4756 318.906 66.2725 318.656 67.4131V67.6006V73.4131H319.711C319.805 73.4131 319.883 73.4209 319.945 73.4365C320.18 73.4678 320.297 73.6553 320.297 73.999H315.258V73.4131C315.789 73.4131 316.164 73.374 316.383 73.2959C316.727 73.1553 316.898 72.7256 316.898 72.0068V67.3662C316.898 66.8975 316.836 66.4756 316.711 66.1006C316.414 65.2412 315.875 64.8115 315.094 64.8115C314.672 64.8115 314.25 64.9678 313.828 65.2803C312.922 65.9521 312.445 66.9756 312.398 68.3506V73.4131H313.453ZM336.469 74.2334C335.375 74.2178 334.734 73.5146 334.547 72.124C334.406 72.4521 334.195 72.7646 333.914 73.0615C333.133 73.8428 332.172 74.2334 331.031 74.2334C330.562 74.2334 330.117 74.1475 329.695 73.9756C328.648 73.5381 328.125 72.7256 328.125 71.5381C328.125 71.1943 328.172 70.874 328.266 70.5771C328.797 69.0459 330.898 68.2803 334.57 68.2803V66.8037C334.523 65.2881 333.766 64.4834 332.297 64.3896C331.672 64.3896 331.211 64.585 330.914 64.9756C330.836 65.085 330.688 65.4287 330.469 66.0068C330.297 66.46 330.031 66.6865 329.672 66.6865C329.594 66.6865 329.516 66.6787 329.438 66.6631C328.984 66.585 328.758 66.3037 328.758 65.8193C328.758 65.5537 328.852 65.2881 329.039 65.0225C329.633 64.21 330.805 63.8037 332.555 63.8037C332.695 63.8037 332.836 63.8037 332.977 63.8037C335.211 63.9287 336.328 65.1084 336.328 67.3428V72.2881C336.344 73.0693 336.555 73.4756 336.961 73.5068C337.461 73.4912 337.766 72.9131 337.875 71.7725L338.484 71.7959C338.484 71.874 338.477 71.96 338.461 72.0537C338.336 73.5068 337.672 74.2334 336.469 74.2334ZM331.805 73.2959C332.148 73.2959 332.5 73.2178 332.859 73.0615C333.766 72.624 334.336 71.8662 334.57 70.7881V68.9131C333.352 68.9287 332.422 69.0068 331.781 69.1475C330.578 69.4287 329.977 70.0928 329.977 71.1396C329.977 71.4053 330 71.6475 330.047 71.8662C330.266 72.8193 330.852 73.2959 331.805 73.2959ZM339.07 64.624V64.0381H340.711V61.8115L342.469 61.3193V64.0381H346.102V64.624H342.469V71.749C342.484 72.9209 342.914 73.5225 343.758 73.5537C344.508 73.4443 345.078 72.7412 345.469 71.4443L346.102 71.5615C346.102 71.5771 346.102 71.5928 346.102 71.6084C345.742 73.374 344.844 74.2568 343.406 74.2568C341.719 74.1943 340.82 73.1865 340.711 71.2334V64.624H339.07ZM352.172 73.4131C352.266 73.4131 352.344 73.4209 352.406 73.4365C352.641 73.4678 352.758 73.6553 352.758 73.999H346.969V73.4131C347.5 73.4131 347.883 73.374 348.117 73.2959C348.523 73.1553 348.727 72.7256 348.727 72.0068V64.624H346.969V64.0381H350.367L350.461 66.3584C350.664 65.8896 350.938 65.4678 351.281 65.0928C352.016 64.2959 352.852 63.8975 353.789 63.8975C353.93 63.8975 354.078 63.9131 354.234 63.9443C354.953 64.1006 355.312 64.5303 355.312 65.2334C355.312 65.3271 355.297 65.4209 355.266 65.5146C355.141 65.9678 354.844 66.1943 354.375 66.1943C354.281 66.1943 354.188 66.1787 354.094 66.1475C353.875 66.085 353.641 65.835 353.391 65.3975C353.172 65.0068 352.93 64.8115 352.664 64.8115C352.43 64.8271 352.141 64.999 351.797 65.3271C350.922 66.1865 350.484 67.3271 350.484 68.749V73.4131H352.172ZM360.938 73.4131C361.016 73.4131 361.094 73.4209 361.172 73.4365C361.406 73.4678 361.523 73.6553 361.523 73.999H356.133V73.4131C356.664 73.4131 357.047 73.3818 357.281 73.3193C357.766 73.1631 358.008 72.7256 358.008 72.0068V64.624H356.133V64.0381H359.766V73.4131H360.938ZM360.047 60.6162C360.047 60.8037 360.008 60.9834 359.93 61.1553C359.711 61.6553 359.328 61.9053 358.781 61.9053C358.609 61.9053 358.438 61.874 358.266 61.8115C357.75 61.5928 357.492 61.1943 357.492 60.6162C357.492 60.4287 357.531 60.249 357.609 60.0771C357.844 59.5771 358.234 59.3271 358.781 59.3271C358.953 59.3271 359.133 59.3662 359.32 59.4443C359.805 59.6787 360.047 60.0693 360.047 60.6162ZM363.164 69.124C363.164 68.0928 363.359 67.1709 363.75 66.3584C364.578 64.6553 366.039 63.8037 368.133 63.8037C368.977 63.8037 369.758 63.9834 370.477 64.3428C371.492 64.8584 372 65.5146 372 66.3115C372 66.4053 371.984 66.5068 371.953 66.6162C371.812 67.085 371.477 67.3037 370.945 67.2725C370.758 67.2568 370.586 67.21 370.43 67.1318C370.18 66.9756 370.008 66.585 369.914 65.96C369.867 65.6943 369.828 65.499 369.797 65.374C369.625 64.7178 369.117 64.3896 368.273 64.3896C367.727 64.3896 367.227 64.5303 366.773 64.8115C365.695 65.499 365.156 66.8662 365.156 68.9131C365.156 70.0693 365.391 71.0693 365.859 71.9131C366.484 73.0225 367.352 73.5771 368.461 73.5771C368.586 73.5771 368.711 73.5693 368.836 73.5537C370.164 73.4287 371.117 72.749 371.695 71.5146L372.305 71.7256C372.195 71.9912 372.047 72.2568 371.859 72.5225C371.031 73.6631 369.805 74.2334 368.18 74.2334C367.086 74.2334 366.109 73.9443 365.25 73.3662C363.859 72.4287 363.164 71.0146 363.164 69.124Z" fill="white" fill-opacity="0.83"/>
<path d="M113.2 40.4C109.707 40.4 106.813 39.6533 104.52 38.16C102.227 36.6667 101.08 34.9867 101.08 33.12C101.08 31.2267 102.04 30.28 103.96 30.28C104.733 30.28 105.413 30.5467 106 31.08C106.587 31.5867 107.08 32.2133 107.48 32.96C107.88 33.68 108.307 34.4133 108.76 35.16C109.213 35.88 109.84 36.4933 110.64 37C111.44 37.5067 112.387 37.76 113.48 37.76C114.653 37.76 115.573 37.4667 116.24 36.88C116.933 36.2933 117.28 35.48 117.28 34.44C117.28 33.4 116.987 32.5333 116.4 31.84C115.84 31.12 115.093 30.5733 114.16 30.2C113.253 29.8 112.24 29.4533 111.12 29.16C110 28.84 108.88 28.48 107.76 28.08C106.64 27.6533 105.613 27.1467 104.68 26.56C103.773 25.9467 103.027 25.08 102.44 23.96C101.853 22.8133 101.56 21.4533 101.56 19.88C101.56 17.32 102.547 15.24 104.52 13.64C106.493 12.04 109.12 11.24 112.4 11.24C115.627 11.24 118.347 11.9733 120.56 13.44C122.8 14.88 123.907 16.5333 123.88 18.4C123.88 19.3067 123.613 20.0267 123.08 20.56C122.573 21.0667 121.827 21.32 120.84 21.32C119.96 21.32 119.213 21.0667 118.6 20.56C117.987 20.0267 117.493 19.4 117.12 18.68C116.773 17.96 116.413 17.24 116.04 16.52C115.693 15.7733 115.2 15.1467 114.56 14.64C113.947 14.1067 113.187 13.84 112.28 13.84C111.08 13.84 110.16 14.1733 109.52 14.84C108.88 15.48 108.56 16.32 108.56 17.36C108.56 18.5067 108.84 19.48 109.4 20.28C109.987 21.0533 110.733 21.6533 111.64 22.08C112.573 22.5067 113.6 22.8933 114.72 23.24C115.84 23.56 116.947 23.92 118.04 24.32C119.16 24.72 120.173 25.2133 121.08 25.8C122.013 26.36 122.76 27.1733 123.32 28.24C123.907 29.3067 124.2 30.6 124.2 32.12C124.2 34.6533 123.133 36.6667 121 38.16C118.893 39.6533 116.293 40.4 113.2 40.4ZM144.595 20.56C145.769 20.4 146.355 20.68 146.355 21.4V37.48C146.355 40.8667 145.315 43.4667 143.235 45.28C141.155 47.0933 138.555 48 135.435 48C133.062 48 131.009 47.48 129.275 46.44C127.542 45.4 126.675 44.0267 126.675 42.32C126.675 41.5733 126.929 40.9467 127.435 40.44C127.942 39.9333 128.635 39.68 129.515 39.68C130.262 39.68 130.889 39.8933 131.395 40.32C131.902 40.7733 132.289 41.3067 132.555 41.92C132.849 42.5333 133.115 43.1467 133.355 43.76C133.622 44.4 133.982 44.9333 134.435 45.36C134.915 45.8133 135.502 46.0533 136.195 46.08C138.302 46.1333 139.355 43.64 139.355 38.6V38.56C138.182 39.52 136.582 40 134.555 40C132.582 40 130.889 39.3067 129.475 37.92C128.062 36.5333 127.355 34.7333 127.355 32.52V25.84C127.355 25.1467 127.089 24.48 126.555 23.84C126.022 23.2 125.755 22.7467 125.755 22.48V22.32C125.755 21.7867 126.062 21.48 126.675 21.4L132.635 20.6C133.889 20.44 134.515 20.7067 134.515 21.4L134.395 33.24C134.369 35.9867 135.129 37.36 136.675 37.36C137.422 37.36 138.049 37.0133 138.555 36.32C139.089 35.6267 139.355 34.76 139.355 33.72V25.84C139.355 25.1467 139.075 24.48 138.515 23.84C137.982 23.2 137.715 22.7467 137.715 22.48V22.32C137.715 21.7867 138.022 21.48 138.635 21.4L144.595 20.56ZM182.927 35.64C182.98 36.3067 183.234 36.9733 183.687 37.64C184.14 38.3067 184.367 38.8 184.367 39.12V39.28C184.367 39.7867 184.047 40.04 183.407 40.04H175.407C174.767 40.04 174.447 39.7867 174.447 39.28V39.12C174.447 38.8267 174.7 38.3467 175.207 37.68C175.714 37.0133 175.94 36.3333 175.887 35.64L175.487 28.56C175.38 26.56 175.114 25.1467 174.687 24.32C174.26 23.4667 173.607 23.04 172.727 23.04C171.927 23.04 171.314 23.3867 170.887 24.08C170.46 24.7733 170.247 25.6933 170.247 26.84C170.327 27.4 170.367 27.96 170.367 28.52V35.64C170.367 36.3067 170.607 36.9733 171.087 37.64C171.567 38.3067 171.807 38.8 171.807 39.12V39.28C171.807 39.7867 171.487 40.04 170.847 40.04H162.887C162.247 40.04 161.927 39.7867 161.927 39.28V39.12C161.927 38.8 162.154 38.3067 162.607 37.64C163.087 36.9733 163.327 36.3067 163.327 35.64V28.04C163.327 24.7067 162.42 23.04 160.607 23.04C159.727 23.04 159.06 23.3867 158.607 24.08C158.154 24.7733 157.927 25.6933 157.927 26.84V35.64C157.927 36.3067 158.22 36.9733 158.807 37.64C159.394 38.3067 159.687 38.8 159.687 39.12V39.28C159.687 39.7867 159.367 40.04 158.727 40.04H150.087C149.447 40.04 149.127 39.7867 149.127 39.28V39.12C149.127 38.8 149.42 38.3067 150.007 37.64C150.594 36.9733 150.887 36.3067 150.887 35.64V27.76C150.887 27.2267 150.7 26.7733 150.327 26.4C149.98 26 149.634 25.6533 149.287 25.36C148.94 25.0667 148.767 24.76 148.767 24.44V24.32C148.767 23.9733 149.087 23.64 149.727 23.32L155.727 20.56C156.207 20.3467 156.58 20.3467 156.847 20.56C157.114 20.7733 157.247 21.0933 157.247 21.52V22.96C158.474 21.2533 160.247 20.4 162.567 20.4C165.527 20.4 167.714 21.4933 169.127 23.68C169.66 22.64 170.447 21.84 171.487 21.28C172.527 20.6933 173.714 20.4 175.047 20.4C176.994 20.4 178.647 21.0533 180.007 22.36C181.394 23.6667 182.194 25.8133 182.407 28.8L182.927 35.64ZM219.724 35.64C219.777 36.3067 220.03 36.9733 220.484 37.64C220.937 38.3067 221.164 38.8 221.164 39.12V39.28C221.164 39.7867 220.844 40.04 220.204 40.04H212.204C211.564 40.04 211.244 39.7867 211.244 39.28V39.12C211.244 38.8267 211.497 38.3467 212.004 37.68C212.51 37.0133 212.737 36.3333 212.684 35.64L212.284 28.56C212.177 26.56 211.91 25.1467 211.484 24.32C211.057 23.4667 210.404 23.04 209.524 23.04C208.724 23.04 208.11 23.3867 207.684 24.08C207.257 24.7733 207.044 25.6933 207.044 26.84C207.124 27.4 207.164 27.96 207.164 28.52V35.64C207.164 36.3067 207.404 36.9733 207.884 37.64C208.364 38.3067 208.604 38.8 208.604 39.12V39.28C208.604 39.7867 208.284 40.04 207.644 40.04H199.684C199.044 40.04 198.724 39.7867 198.724 39.28V39.12C198.724 38.8 198.95 38.3067 199.404 37.64C199.884 36.9733 200.124 36.3067 200.124 35.64V28.04C200.124 24.7067 199.217 23.04 197.404 23.04C196.524 23.04 195.857 23.3867 195.404 24.08C194.95 24.7733 194.724 25.6933 194.724 26.84V35.64C194.724 36.3067 195.017 36.9733 195.604 37.64C196.19 38.3067 196.484 38.8 196.484 39.12V39.28C196.484 39.7867 196.164 40.04 195.524 40.04H186.884C186.244 40.04 185.924 39.7867 185.924 39.28V39.12C185.924 38.8 186.217 38.3067 186.804 37.64C187.39 36.9733 187.684 36.3067 187.684 35.64V27.76C187.684 27.2267 187.497 26.7733 187.124 26.4C186.777 26 186.43 25.6533 186.084 25.36C185.737 25.0667 185.564 24.76 185.564 24.44V24.32C185.564 23.9733 185.884 23.64 186.524 23.32L192.524 20.56C193.004 20.3467 193.377 20.3467 193.644 20.56C193.91 20.7733 194.044 21.0933 194.044 21.52V22.96C195.27 21.2533 197.044 20.4 199.364 20.4C202.324 20.4 204.51 21.4933 205.924 23.68C206.457 22.64 207.244 21.84 208.284 21.28C209.324 20.6933 210.51 20.4 211.844 20.4C213.79 20.4 215.444 21.0533 216.804 22.36C218.19 23.6667 218.99 25.8133 219.204 28.8L219.724 35.64ZM244.641 22.68C244.641 22.8933 244.494 23.1467 244.201 23.44C243.907 23.7333 243.614 24.12 243.321 24.6C243.027 25.08 242.881 25.64 242.881 26.28V35.64C242.881 36.3067 243.147 36.9733 243.681 37.64C244.214 38.28 244.481 38.76 244.481 39.08V39.24C244.481 39.7467 244.187 40 243.601 40H237.881C237.587 40 237.334 39.9067 237.121 39.72C236.934 39.5333 236.841 39.2933 236.841 39V38.64C235.614 39.8133 233.987 40.4 231.961 40.4C229.374 40.4 227.147 39.52 225.281 37.76C223.441 35.9733 222.521 33.52 222.521 30.4C222.521 27.4933 223.454 25.1067 225.321 23.24C227.187 21.3467 229.414 20.4 232.001 20.4C233.974 20.4 235.587 20.96 236.841 22.08V21.84C236.841 21.4133 237.014 21.0933 237.361 20.88C237.707 20.6667 238.174 20.6 238.761 20.68L243.681 21.4C244.321 21.48 244.641 21.8533 244.641 22.52V22.68ZM233.561 38.44C234.281 38.4667 234.881 38.1733 235.361 37.56C235.867 36.9467 236.121 36.12 236.121 35.08V27.36C236.121 25.92 235.761 24.7333 235.041 23.8C234.321 22.84 233.481 22.36 232.521 22.36C230.547 22.36 229.494 24 229.361 27.28C229.307 28.5333 229.414 29.9867 229.681 31.64C229.974 33.2933 230.454 34.84 231.121 36.28C231.814 37.6933 232.627 38.4133 233.561 38.44ZM255.023 40.4C252.996 40.4 251.396 39.76 250.223 38.48C249.076 37.2 248.503 35.3733 248.503 33V23.52H246.983C246.716 23.52 246.49 23.44 246.303 23.28C246.143 23.0933 246.063 22.8667 246.063 22.6V21.72C246.063 21.1067 246.37 20.8 246.983 20.8H247.743C248.97 20.8 250.023 20.44 250.903 19.72C251.783 18.9733 252.356 17.9867 252.623 16.76C252.756 16.0667 253.116 15.72 253.703 15.72H254.623C255.343 15.72 255.703 16.0667 255.703 16.76V20.8H259.823C260.09 20.8 260.303 20.8933 260.463 21.08C260.65 21.24 260.743 21.4533 260.743 21.72V22.6C260.743 22.8667 260.65 23.0933 260.463 23.28C260.303 23.44 260.09 23.52 259.823 23.52H255.703V33.12C255.703 33.7867 255.876 34.32 256.223 34.72C256.57 35.0933 256.996 35.28 257.503 35.28C258.65 35.28 259.53 34.7867 260.143 33.8C260.33 33.56 260.543 33.4267 260.783 33.4C261.023 33.3467 261.223 33.3867 261.383 33.52C261.57 33.6533 261.663 33.84 261.663 34.08C261.663 35.76 261.063 37.24 259.863 38.52C258.69 39.7733 257.076 40.4 255.023 40.4ZM276.236 20.4C277.383 20.4 278.289 20.7733 278.956 21.52C279.649 22.2667 279.996 23.2133 279.996 24.36C279.996 26.8667 278.969 28.12 276.916 28.12C276.089 28.12 275.463 27.9333 275.036 27.56C274.609 27.16 274.356 26.72 274.276 26.24C274.223 25.76 274.089 25.3333 273.876 24.96C273.663 24.56 273.343 24.36 272.916 24.36C271.929 24.36 271.436 25.64 271.436 28.2V35.64C271.436 36.3067 271.783 36.9733 272.476 37.64C273.196 38.28 273.556 38.76 273.556 39.08V39.24C273.556 39.7467 273.236 40 272.596 40H263.996C263.356 40 263.036 39.7467 263.036 39.24V39.08C263.036 38.76 263.303 38.28 263.836 37.64C264.369 36.9733 264.636 36.3067 264.636 35.64V27.68C264.636 27.1467 264.476 26.6933 264.156 26.32C263.836 25.9467 263.516 25.6267 263.196 25.36C262.876 25.0933 262.716 24.8 262.716 24.48V24.36C262.716 23.9067 263.023 23.52 263.636 23.2L269.276 20.56C269.809 20.3733 270.183 20.36 270.396 20.52C270.609 20.68 270.716 20.9867 270.716 21.44V24.36C271.623 21.72 273.463 20.4 276.236 20.4ZM286.36 18.44C285 18.44 283.893 18.0667 283.04 17.32C282.187 16.5467 281.76 15.5867 281.76 14.44C281.76 13.2933 282.187 12.3467 283.04 11.6C283.893 10.8267 285 10.44 286.36 10.44C287.693 10.44 288.787 10.8267 289.64 11.6C290.493 12.3467 290.92 13.2933 290.92 14.44C290.92 15.5867 290.493 16.5467 289.64 17.32C288.787 18.0667 287.693 18.44 286.36 18.44ZM282.08 40C281.44 40 281.12 39.7467 281.12 39.24V39.08C281.12 38.76 281.387 38.2667 281.92 37.6C282.453 36.9333 282.72 36.2667 282.72 35.6V28C282.72 27.3067 282.453 26.64 281.92 26C281.387 25.3333 281.12 24.88 281.12 24.64V24.48C281.12 24.16 281.427 23.8533 282.04 23.56L288.08 20.6C288.64 20.36 289.08 20.3333 289.4 20.52C289.72 20.7067 289.88 21.0133 289.88 21.44V35.6C289.88 36.2667 290.173 36.9333 290.76 37.6C291.373 38.2667 291.68 38.76 291.68 39.08V39.24C291.68 39.7467 291.347 40 290.68 40H282.08ZM303.543 40.4C300.503 40.4 298.009 39.4133 296.063 37.44C294.116 35.44 293.143 33.08 293.143 30.36C293.143 27.3467 294.129 24.9467 296.103 23.16C298.076 21.3467 300.476 20.4267 303.303 20.4C305.676 20.3733 307.689 20.92 309.343 22.04C310.996 23.1333 311.823 24.56 311.823 26.32C311.823 26.9867 311.583 27.5467 311.103 28C310.649 28.4533 309.916 28.6667 308.903 28.64C307.996 28.5867 307.209 28.2267 306.543 27.56C305.903 26.8933 305.436 26.1733 305.143 25.4C304.849 24.6267 304.449 23.9333 303.943 23.32C303.436 22.68 302.863 22.36 302.223 22.36C301.396 22.3867 300.716 22.8267 300.183 23.68C299.676 24.5333 299.423 25.5867 299.423 26.84C299.423 29.4533 300.009 31.5467 301.183 33.12C302.383 34.6933 303.969 35.48 305.943 35.48C307.729 35.48 309.209 34.7067 310.383 33.16C310.649 32.84 310.969 32.7333 311.343 32.84C311.716 32.92 311.903 33.1733 311.903 33.6C311.849 35.4667 311.089 37.0667 309.623 38.4C308.156 39.7333 306.129 40.4 303.543 40.4Z" fill="#C4001C"/>
<g clip-path="url(#clip0_676_3073)">
<path d="M68.0515 46.5619C68.0008 43.9543 68.001 41.9381 68.0284 40.2538C68.7873 39.5894 71.5945 36.4069 80.4274 39.2239C82.9092 39.0478 78.8729 32.9142 68.3773 27.238C68.3643 25.8034 68.3294 24.1434 68.264 22.1624C68.6751 22.5392 69.4586 22.8563 70.8661 23.1699C71.7873 24.4031 69.6645 24.7903 68.5688 24.6693C71.8285 28.1579 73.7415 30.3539 86.1884 30.8581C85.9456 25.5513 83.4006 20.7472 80.4046 21.3163C84.4623 18.8209 82.5414 13.4385 81.8005 9.15657C77.2717 9.07225 71.6071 12.5746 68.1919 20.1688C68.0718 17.0957 67.8864 13.3337 67.612 8.62042L67.8852 20.8764C67.8649 21.0337 67.8559 21.1816 67.8643 21.3212L67.7111 24.5745L67.7255 26.8905L67.8054 39.7567C67.7714 40.1599 67.7674 40.339 67.8274 40.3665L68.0515 46.5619Z" fill="url(#paint0_linear_676_3073)"/>
<path d="M65.7828 8.79329C65.8324 10.7828 65.8761 12.5616 65.9151 14.1947C65.3393 13.9141 63.1406 14.5493 55.5877 12.3653C53.2652 12.6505 56.0892 22.7505 66.1922 27.8772C66.2045 28.6591 66.2167 29.4629 66.2289 30.3004L66.1198 33.1812C66.0671 32.3829 65.5578 31.7045 63.4943 31.317C62.6408 30.1595 64.4407 30.0094 65.4473 30.079C62.4329 26.8333 60.6629 24.784 49.2343 24.8388C49.4909 29.9823 51.8576 34.537 54.6041 33.8532C50.8952 36.4544 52.6928 41.598 53.4001 45.7244C57.6848 45.6046 63.0525 41.7325 66.0989 33.7329L66.4276 45.6245C66.3446 38.9391 66.2863 34.2453 66.2289 30.3004L66.2352 30.1335L66.2073 27.8848L66.0521 15.3921C66.1005 14.7263 66.1494 14.4132 66.0059 14.26L65.7828 8.79329Z" fill="url(#paint1_linear_676_3073)"/>
</g>
<defs>
<linearGradient id="paint0_linear_676_3073" x1="77.0594" y1="47.5568" x2="81.3065" y2="9.102" gradientUnits="userSpaceOnUse">
<stop stop-color="#B40E1D"/>
<stop offset="1" stop-color="#280226"/>
</linearGradient>
<linearGradient id="paint1_linear_676_3073" x1="57.5247" y1="8.22216" x2="54.9238" y2="45.8297" gradientUnits="userSpaceOnUse">
<stop stop-color="#B40E1D"/>
<stop offset="1" stop-color="#280226"/>
</linearGradient>
<clipPath id="clip0_676_3073">
<rect width="53" height="53" fill="white" transform="translate(41 1)"/>
</clipPath>
</defs>
</svg>
