<svg width="200" height="146" viewBox="0 0 200 146" fill="none" xmlns="http://www.w3.org/2000/svg">
<g clip-path="url(#clip0_774_3191)">
<path d="M192.593 102.63H7.40741C3.25926 102.63 0 99.3706 0 95.2225V50.778C0 46.6299 3.25926 43.3706 7.40741 43.3706H192.593C196.741 43.3706 200 46.6299 200 50.778V95.2225C200 99.3706 196.741 102.63 192.593 102.63Z" fill="black"/>
<path d="M192.593 44.5558C196 44.5558 198.815 47.3706 198.815 50.778V95.2225C198.815 98.6299 196 101.445 192.593 101.445H7.40741C4 101.445 1.18519 98.6299 1.18519 95.2225V50.778C1.18519 47.3706 4 44.5558 7.40741 44.5558H192.593ZM192.593 43.3706H7.40741C3.25926 43.3706 0 46.778 0 50.778V95.2225C0 99.3706 3.25926 102.63 7.40741 102.63H192.593C196.741 102.63 200 99.3706 200 95.2225V50.778C200 46.778 196.741 43.3706 192.593 43.3706Z" fill="#A6A6A6"/>
<path d="M70.2224 58.4817C70.2224 59.6668 69.9261 60.7039 69.1853 61.4446C68.2965 62.3335 67.2594 62.778 65.9261 62.778C64.5928 62.778 63.5557 62.3335 62.6668 61.4446C61.7779 60.5557 61.3335 59.5187 61.3335 58.1854C61.3335 56.852 61.7779 55.815 62.6668 54.9261C63.5557 54.0372 64.5928 53.5928 65.9261 53.5928C66.5187 53.5928 67.1113 53.7409 67.7039 54.0372C68.2965 54.3335 68.7409 54.6298 69.0372 55.0743L68.2965 55.815C67.7039 55.0743 66.9631 54.778 65.9261 54.778C65.0372 54.778 64.1483 55.0743 63.5557 55.815C62.815 56.4076 62.5187 57.2965 62.5187 58.3335C62.5187 59.3706 62.815 60.2594 63.5557 60.852C64.2965 61.4446 65.0372 61.8891 65.9261 61.8891C66.9631 61.8891 67.7039 61.5928 68.4446 60.852C68.8891 60.4076 69.1853 59.815 69.1853 59.0743H65.9261V57.8891H70.2224V58.4817ZM77.0372 54.778H73.0372V57.5928H76.7409V58.6298H73.0372V61.4446H77.0372V62.6298H71.852V53.7409H77.0372V54.778ZM81.9261 62.6298H80.7409V54.778H78.2224V53.7409H84.4446V54.778H81.9261V62.6298ZM88.7409 62.6298V53.7409H89.9261V62.6298H88.7409ZM95.4065 62.6298H93.7779V54.778H91.2594V53.7409H97.3335V54.778H94.815V62.6298H95.4065ZM109.037 61.4446C108.148 62.3335 107.111 62.778 105.778 62.778C104.445 62.778 103.408 62.3335 102.519 61.4446C101.63 60.5557 101.185 59.5187 101.185 58.1854C101.185 56.852 101.63 55.815 102.519 54.9261C103.408 54.0372 104.445 53.5928 105.778 53.5928C107.111 53.5928 108.148 54.0372 109.037 54.9261C109.926 55.815 110.371 56.852 110.371 58.1854C110.371 59.5187 109.926 60.5557 109.037 61.4446ZM103.408 60.7039C104 61.2965 104.889 61.7409 105.778 61.7409C106.667 61.7409 107.556 61.4446 108.148 60.7039C108.741 60.1113 109.185 59.2224 109.185 58.1854C109.185 57.1483 108.889 56.2594 108.148 55.6668C107.556 55.0743 106.667 54.6298 105.778 54.6298C104.889 54.6298 104 54.9261 103.408 55.6668C102.815 56.2594 102.371 57.1483 102.371 58.1854C102.371 59.2224 102.667 60.1113 103.408 60.7039ZM112 62.6298V53.7409H113.333L117.63 60.7039V53.7409H118.815V62.6298H117.63L113.037 55.3706V62.6298H112Z" fill="white" stroke="white" stroke-width="1.18519" stroke-miterlimit="10"/>
<path d="M100.889 75.6666C97.3331 75.6666 94.5183 78.3332 94.5183 82.0369C94.5183 85.5925 97.3331 88.4073 100.889 88.4073C104.444 88.4073 107.259 85.7406 107.259 82.0369C107.259 78.1851 104.444 75.6666 100.889 75.6666ZM100.889 85.7406C98.9627 85.7406 97.3331 84.111 97.3331 81.8888C97.3331 79.6666 98.9627 78.0369 100.889 78.0369C102.815 78.0369 104.444 79.5184 104.444 81.8888C104.444 84.111 102.815 85.7406 100.889 85.7406ZM87.1109 75.6666C83.5553 75.6666 80.7405 78.3332 80.7405 82.0369C80.7405 85.5925 83.5553 88.4073 87.1109 88.4073C90.6664 88.4073 93.4813 85.7406 93.4813 82.0369C93.4813 78.1851 90.6664 75.6666 87.1109 75.6666ZM87.1109 85.7406C85.185 85.7406 83.5553 84.111 83.5553 81.8888C83.5553 79.6666 85.185 78.0369 87.1109 78.0369C89.0368 78.0369 90.6665 79.5184 90.6665 81.8888C90.6665 84.111 89.0368 85.7406 87.1109 85.7406ZM70.6665 77.5925V80.2592H77.0368C76.8887 81.7406 76.2961 82.9258 75.5553 83.6666C74.6665 84.5555 73.185 85.5925 70.6665 85.5925C66.6665 85.5925 63.7035 82.4814 63.7035 78.4814C63.7035 74.4814 66.8146 71.3703 70.6665 71.3703C72.7405 71.3703 74.3702 72.2592 75.5553 73.2962L77.4813 71.3703C75.8516 69.8888 73.7776 68.7036 70.8146 68.7036C65.4813 68.7036 60.8887 73.1481 60.8887 78.4814C60.8887 83.8147 65.4813 88.2592 70.8146 88.2592C73.7776 88.2592 75.8516 87.3703 77.6294 85.4444C79.4072 83.6666 79.9998 81.1481 79.9998 79.2221C79.9998 78.6295 79.9998 78.0369 79.8516 77.5925H70.6665ZM137.926 79.6666C137.333 78.1851 135.852 75.6666 132.592 75.6666C129.333 75.6666 126.666 78.1851 126.666 82.0369C126.666 85.5925 129.333 88.4073 132.889 88.4073C135.703 88.4073 137.481 86.6295 138.074 85.5925L136 84.111C135.259 85.1481 134.37 85.8888 132.889 85.8888C131.407 85.8888 130.518 85.2962 129.778 83.9629L138.222 80.4073L137.926 79.6666ZM129.333 81.7406C129.333 79.3703 131.259 78.0369 132.592 78.0369C133.629 78.0369 134.666 78.6295 134.963 79.3703L129.333 81.7406ZM122.37 87.8147H125.185V69.2962H122.37V87.8147ZM117.926 76.9999C117.185 76.2592 116 75.5184 114.518 75.5184C111.407 75.5184 108.444 78.3332 108.444 81.8888C108.444 85.4444 111.259 88.111 114.518 88.111C116 88.111 117.185 87.3703 117.778 86.6295H117.926V87.5184C117.926 89.8888 116.592 91.2221 114.518 91.2221C112.889 91.2221 111.703 90.0369 111.407 88.9999L109.037 90.0369C109.778 91.6666 111.555 93.7406 114.666 93.7406C117.926 93.7406 120.592 91.8147 120.592 87.2221V75.9629H117.926V76.9999ZM114.666 85.7406C112.741 85.7406 111.111 84.111 111.111 81.8888C111.111 79.6666 112.741 78.0369 114.666 78.0369C116.592 78.0369 118.074 79.6666 118.074 81.8888C118.074 84.111 116.592 85.7406 114.666 85.7406ZM150.815 69.2962H144.148V87.8147H146.963V80.8518H150.815C153.926 80.8518 156.889 78.6295 156.889 75.074C156.889 71.5184 153.926 69.2962 150.815 69.2962ZM150.963 78.1851H146.963V71.8147H150.963C153.037 71.8147 154.222 73.5925 154.222 74.9258C154.074 76.5555 152.889 78.1851 150.963 78.1851ZM168 75.5184C165.926 75.5184 163.852 76.4073 163.111 78.3332L165.629 79.3703C166.222 78.3332 167.111 78.0369 168.148 78.0369C169.629 78.0369 170.963 78.9258 171.111 80.4073V80.5555C170.666 80.2592 169.481 79.8147 168.296 79.8147C165.629 79.8147 162.963 81.2962 162.963 83.9629C162.963 86.4814 165.185 88.111 167.555 88.111C169.481 88.111 170.37 87.2221 171.111 86.3332H171.259V87.8147H173.926V80.7036C173.629 77.4444 171.111 75.5184 168 75.5184ZM167.703 85.7406C166.815 85.7406 165.481 85.2962 165.481 84.111C165.481 82.6295 167.111 82.1851 168.444 82.1851C169.629 82.1851 170.222 82.4814 170.963 82.7777C170.666 84.5555 169.185 85.7406 167.703 85.7406ZM183.259 75.9629L180.148 83.9629H180L176.741 75.9629H173.778L178.666 87.2221L175.852 93.4444H178.666L186.222 75.9629H183.259ZM158.37 87.8147H161.185V69.2962H158.37V87.8147Z" fill="white"/>
<path d="M15.4075 54.4814C14.9631 54.9259 14.8149 55.6666 14.8149 56.5555V89.2963C14.8149 90.1851 15.1112 90.9259 15.5557 91.3703L15.7038 91.5185L34.0742 73.1481V72.8518L15.4075 54.4814Z" fill="url(#paint0_linear_774_3191)"/>
<path d="M40.0003 79.3704L33.9263 73.2964V72.8519L40.0003 66.7778L40.1485 66.926L47.4078 71.0741C49.4818 72.2593 49.4818 74.1852 47.4078 75.3704L40.0003 79.3704Z" fill="url(#paint1_linear_774_3191)"/>
<path d="M40.1485 79.2222L33.9262 73L15.4077 91.5185C16.1485 92.2593 17.1855 92.2593 18.5188 91.6667L40.1485 79.2222Z" fill="url(#paint2_linear_774_3191)"/>
<path d="M40.1485 66.7779L18.5188 54.4816C17.1855 53.7409 16.1485 53.889 15.4077 54.6298L33.9262 73.0001L40.1485 66.7779Z" fill="url(#paint3_linear_774_3191)"/>
<path opacity="0.2" d="M40.0003 79.0742L18.5188 91.2224C17.3336 91.9631 16.2966 91.815 15.5559 91.2224L15.4077 91.3705L15.5559 91.5187C16.2966 92.1113 17.3336 92.2594 18.5188 91.5187L40.0003 79.0742Z" fill="black"/>
<path opacity="0.12" d="M15.4075 91.2222C14.9631 90.7778 14.8149 90.037 14.8149 89.1481V89.2963C14.8149 90.1852 15.1112 90.9259 15.5557 91.3704V91.2222H15.4075ZM47.4075 74.9259L40.0001 79.0741L40.1483 79.2222L47.4075 75.0741C48.4446 74.4815 48.889 73.7407 48.889 73C48.889 73.7407 48.2964 74.3333 47.4075 74.9259Z" fill="black"/>
<path opacity="0.25" d="M18.5186 54.6298L47.4075 71.0743C48.2964 71.6669 48.889 72.2594 48.889 73.0002C48.889 72.2594 48.4446 71.5187 47.4075 70.9261L18.5186 54.4817C16.4446 53.2965 14.8149 54.1854 14.8149 56.5557V56.7039C14.8149 54.4817 16.4446 53.4446 18.5186 54.6298Z" fill="white"/>
</g>
<defs>
<linearGradient id="paint0_linear_774_3191" x1="32.2964" y1="56.274" x2="7.43272" y2="81.1363" gradientUnits="userSpaceOnUse">
<stop stop-color="#00A0FF"/>
<stop offset="0.007" stop-color="#00A1FF"/>
<stop offset="0.26" stop-color="#00BEFF"/>
<stop offset="0.512" stop-color="#00D2FF"/>
<stop offset="0.76" stop-color="#00DFFF"/>
<stop offset="1" stop-color="#00E3FF"/>
</linearGradient>
<linearGradient id="paint1_linear_774_3191" x1="50.1248" y1="73.0015" x2="14.2774" y2="73.0015" gradientUnits="userSpaceOnUse">
<stop stop-color="#FFE000"/>
<stop offset="0.409" stop-color="#FFBD00"/>
<stop offset="0.775" stop-color="#FFA500"/>
<stop offset="1" stop-color="#FF9C00"/>
</linearGradient>
<linearGradient id="paint2_linear_774_3191" x1="36.781" y1="76.4015" x2="3.0655" y2="110.117" gradientUnits="userSpaceOnUse">
<stop stop-color="#FF3A44"/>
<stop offset="1" stop-color="#C31162"/>
</linearGradient>
<linearGradient id="paint3_linear_774_3191" x1="10.8107" y1="43.6313" x2="25.867" y2="58.6876" gradientUnits="userSpaceOnUse">
<stop stop-color="#32A071"/>
<stop offset="0.069" stop-color="#2DA771"/>
<stop offset="0.476" stop-color="#15CF74"/>
<stop offset="0.801" stop-color="#06E775"/>
<stop offset="1" stop-color="#00F076"/>
</linearGradient>
<clipPath id="clip0_774_3191">
<rect width="200" height="200" fill="white" transform="translate(0 -27)"/>
</clipPath>
</defs>
</svg>
